ISO-10303-21;
HEADER;
/* Generated by software containing ST-Developer
 * from STEP Tools, Inc. (www.steptools.com) 
 */

FILE_DESCRIPTION(
/* description */ ('NOT SPECIFIED'),
/* implementation_level */ '2;1');

FILE_NAME(
/* name */ '_AF1_ASM-modified.step',
/* time_stamp */ '2026-09-04T21:29:23+10:00',
/* author */ (''),
/* organization */ (''),
/* preprocessor_version */ 'ST-DEVELOPER v20.2',
/* originating_system */ 'Autodesk Translation Framework v15.15.0.0',
/* authorisation */ '');

FILE_SCHEMA (('AUTOMOTIVE_DESIGN { 1 0 10303 214 3 1 1 }'));
ENDSEC;

DATA;
#10=MECHANICAL_DESIGN_GEOMETRIC_PRESENTATION_REPRESENTATION('',(#29,#30,
#31,#32,#33,#34,#35,#36,#37),#990);
#11=ITEM_DEFINED_TRANSFORMATION($,$,#351,#390);
#12=(
REPRESENTATION_RELATIONSHIP($,$,#1001,#1000)
REPRESENTATION_RELATIONSHIP_WITH_TRANSFORMATION(#11)
SHAPE_REPRESENTATION_RELATIONSHIP()
);
#13=CONTEXT_DEPENDENT_SHAPE_REPRESENTATION(#12,#999);
#14=NEXT_ASSEMBLY_USAGE_OCCURRENCE('00 (4):1','00 (4):1','00 (4):1',#1003,
#1004,'00 (4):1');
#15=SHAPE_REPRESENTATION_RELATIONSHIP('SRR','None',#1001,#16);
#16=ADVANCED_BREP_SHAPE_REPRESENTATION('',(#17),#989);
#17=MANIFOLD_SOLID_BREP('Body1',#337);
#18=B_SPLINE_SURFACE_WITH_KNOTS('',3,3,((#638,#639,#640,#641,#642,#643,
#644,#645,#646,#647),(#648,#649,#650,#651,#652,#653,#654,#655,#656,#657),
(#658,#659,#660,#661,#662,#663,#664,#665,#666,#667),(#668,#669,#670,#671,
#672,#673,#674,#675,#676,#677),(#678,#679,#680,#681,#682,#683,#684,#685,
#686,#687),(#688,#689,#690,#691,#692,#693,#694,#695,#696,#697)),
 .UNSPECIFIED.,.F.,.F.,.F.,(4,1,1,4),(4,1,1,1,1,1,1,4),(0.,0.285714285714286,
0.571428571428571,1.),(-2.06461929862115,-1.76967368453241,-1.47472807044368,
-0.884836842266207,-0.589891228177471,-0.294945614088736,-0.147472807044368,
2.83278272436143E-16),.UNSPECIFIED.);
#19=B_SPLINE_SURFACE_WITH_KNOTS('',3,3,((#740,#741,#742,#743,#744,#745,
#746,#747,#748,#749),(#750,#751,#752,#753,#754,#755,#756,#757,#758,#759),
(#760,#761,#762,#763,#764,#765,#766,#767,#768,#769),(#770,#771,#772,#773,
#774,#775,#776,#777,#778,#779),(#780,#781,#782,#783,#784,#785,#786,#787,
#788,#789),(#790,#791,#792,#793,#794,#795,#796,#797,#798,#799)),
 .UNSPECIFIED.,.F.,.F.,.F.,(4,1,1,4),(4,1,1,1,1,1,1,4),(0.,0.285714285714286,
0.571428571428571,1.),(4.60430906509255E-16,0.147472807044361,0.294945614088721,
0.589891228177442,1.17978245635488,1.4747280704436,1.76967368453232,2.06461929862105),
 .UNSPECIFIED.);
#20=B_SPLINE_SURFACE_WITH_KNOTS('',3,3,((#818,#819,#820,#821,#822,#823,
#824,#825,#826,#827,#828,#829),(#830,#831,#832,#833,#834,#835,#836,#837,
#838,#839,#840,#841),(#842,#843,#844,#845,#846,#847,#848,#849,#850,#851,
#852,#853),(#854,#855,#856,#857,#858,#859,#860,#861,#862,#863,#864,#865),
(#866,#867,#868,#869,#870,#871,#872,#873,#874,#875,#876,#877)),
 .UNSPECIFIED.,.F.,.F.,.F.,(4,1,4),(4,1,1,1,1,1,1,1,1,4),(0.,0.571428571428571,
1.),(-0.658747463500046,-0.652865789718796,-0.646984115937545,-0.635220768375045,
-0.588167378125041,-0.517587292750036,-0.376427122000027,-0.188213561000013,
-0.105870128062508,-3.42607886505401E-16),.UNSPECIFIED.);
#21=B_SPLINE_SURFACE_WITH_KNOTS('',3,3,((#881,#882,#883,#884,#885,#886,
#887,#888,#889,#890,#891,#892,#893),(#894,#895,#896,#897,#898,#899,#900,
#901,#902,#903,#904,#905,#906),(#907,#908,#909,#910,#911,#912,#913,#914,
#915,#916,#917,#918,#919),(#920,#921,#922,#923,#924,#925,#926,#927,#928,
#929,#930,#931,#932),(#933,#934,#935,#936,#937,#938,#939,#940,#941,#942,
#943,#944,#945)),.UNSPECIFIED.,.F.,.F.,.F.,(4,1,4),(4,1,1,1,1,1,1,1,1,1,
4),(0.,0.571428571428571,1.),(0.,0.0941067805000296,0.282320341500089,0.470533902500148,
0.564640683000178,0.588167378125185,0.611694073250193,0.6352207683752,0.646984115937704,
0.652865789718956,0.658747463500207),.UNSPECIFIED.);
#22=FACE_BOUND('',#88,.T.);
#23=FACE_BOUND('',#100,.T.);
#24=CONICAL_SURFACE('',#367,5.25,0.78539816339744);
#25=TOROIDAL_SURFACE('',#362,14.95,0.2);
#26=TOROIDAL_SURFACE('',#364,24.55,0.2);
#27=TOROIDAL_SURFACE('',#385,24.55,0.2);
#28=TOROIDAL_SURFACE('',#389,14.95,0.2);
#29=STYLED_ITEM('',(#1016),#319);
#30=STYLED_ITEM('',(#1016),#320);
#31=STYLED_ITEM('',(#1016),#321);
#32=STYLED_ITEM('',(#1016),#324);
#33=STYLED_ITEM('',(#1016),#332);
#34=STYLED_ITEM('',(#1016),#334);
#35=STYLED_ITEM('',(#1016),#335);
#36=STYLED_ITEM('',(#1016),#336);
#37=STYLED_ITEM('',(#1015),#17);
#38=B_SPLINE_CURVE_WITH_KNOTS('',3,(#494,#495,#496,#497,#498,#499,#500,
#501,#502,#503,#504,#505),.UNSPECIFIED.,.F.,.F.,(4,2,2,2,2,4),(-0.0369355581498853,
-0.03199115825255,-0.0207504599391007,-0.0123177213337206,-0.00580926899951872,
-0.000378553879000382),.UNSPECIFIED.);
#39=B_SPLINE_CURVE_WITH_KNOTS('',3,(#509,#510,#511,#512,#513,#514,#515,
#516,#517,#518,#519,#520),.UNSPECIFIED.,.F.,.F.,(4,2,2,2,2,4),(-0.0829505715182541,
-0.0781204190913522,-0.0719936651489621,-0.0615142629142388,-0.0459502836835991,
-0.0395959331472653),.UNSPECIFIED.);
#40=B_SPLINE_CURVE_WITH_KNOTS('',3,(#524,#525,#526,#527,#528,#529,#530,
#531,#532,#533,#534,#535),.UNSPECIFIED.,.F.,.F.,(4,2,2,2,2,4),(-0.0403935613689604,
-0.0295880546325417,-0.0175313425098612,-0.00978570935543471,-0.00452238089373877,
-0.000531108277449665),.UNSPECIFIED.);
#41=B_SPLINE_CURVE_WITH_KNOTS('',3,(#539,#540,#541,#542,#543,#544,#545,
#546,#547,#548,#549,#550),.UNSPECIFIED.,.F.,.F.,(4,2,2,2,2,4),(-0.0748041977994853,
-0.0705118551030879,-0.0656660548703075,-0.0566884002716039,-0.0448145619694247,
-0.0361885387301356),.UNSPECIFIED.);
#42=B_SPLINE_CURVE_WITH_KNOTS('',3,(#561,#562,#563,#564,#565,#566,#567,
#568,#569,#570,#571,#572),.UNSPECIFIED.,.F.,.F.,(4,1,1,1,1,1,1,1,1,4),(3.42607886505401E-16,
0.105870128062508,0.188213561000013,0.376427122000027,0.517587292750036,
0.588167378125041,0.635220768375045,0.646984115937545,0.652865789718796,
0.658747463500046),.UNSPECIFIED.);
#43=B_SPLINE_CURVE_WITH_KNOTS('',3,(#577,#578,#579,#580,#581,#582,#583,
#584,#585,#586),.UNSPECIFIED.,.F.,.F.,(4,1,1,1,1,1,1,4),(-2.06461929862105,
-1.76967368453232,-1.4747280704436,-1.17978245635488,-0.589891228177442,
-0.294945614088721,-0.147472807044361,-4.60430906509255E-16),
 .UNSPECIFIED.);
#44=B_SPLINE_CURVE_WITH_KNOTS('',3,(#602,#603,#604,#605,#606,#607,#608,
#609,#610,#611,#612,#613,#614,#615,#616,#617),.UNSPECIFIED.,.F.,.F.,(4,
2,2,2,2,2,2,4),(-0.000945902612024461,0.,0.0638403862941199,0.135095612239636,
0.165156245844457,0.183082634593323,0.243582167900331,0.313239749415563),
 .UNSPECIFIED.);
#45=B_SPLINE_CURVE_WITH_KNOTS('',3,(#618,#619,#620,#621,#622,#623,#624,
#625,#626,#627,#628,#629,#630,#631,#632,#633,#634,#635,#636,#637),
 .UNSPECIFIED.,.F.,.F.,(4,2,2,2,2,2,2,2,2,4),(0.,0.123801229261724,0.282828489132796,
0.364972019250768,0.431387208027871,0.618885478331944,0.882695835572878,
1.49998075842893,2.10116567488558,2.10439384163873),.UNSPECIFIED.);
#46=B_SPLINE_CURVE_WITH_KNOTS('',3,(#702,#703,#704,#705,#706,#707,#708,
#709,#710,#711),.UNSPECIFIED.,.F.,.F.,(4,1,1,1,1,1,1,4),(-2.83278272436143E-16,
0.147472807044368,0.294945614088736,0.589891228177471,0.884836842266207,
1.47472807044368,1.76967368453241,2.06461929862115),.UNSPECIFIED.);
#47=B_SPLINE_CURVE_WITH_KNOTS('',3,(#713,#714,#715,#716,#717,#718,#719,
#720,#721,#722,#723,#724,#725,#726,#727,#728,#729,#730),.UNSPECIFIED.,.F.,
 .F.,(4,2,2,2,2,2,2,2,4),(-0.00247379557437837,0.,0.567940705973368,0.931523681276304,
1.02993438222425,1.0833184565649,1.13892420662907,1.22597685968314,1.29341004677798),
 .UNSPECIFIED.);
#48=B_SPLINE_CURVE_WITH_KNOTS('',3,(#731,#732,#733,#734),.UNSPECIFIED.,
 .F.,.F.,(4,4),(-0.0200349950391638,2.83278272436143E-16),.UNSPECIFIED.);
#49=B_SPLINE_CURVE_WITH_KNOTS('',3,(#800,#801,#802,#803),.UNSPECIFIED.,
 .F.,.F.,(4,4),(4.60430906509255E-16,0.0200364698553747),.UNSPECIFIED.);
#50=B_SPLINE_CURVE_WITH_KNOTS('',3,(#808,#809,#810,#811),.UNSPECIFIED.,
 .F.,.F.,(4,4),(0.,0.0200104888596518),.UNSPECIFIED.);
#51=B_SPLINE_CURVE_WITH_KNOTS('',3,(#814,#815,#816,#817),.UNSPECIFIED.,
 .F.,.F.,(4,4),(-0.020028595132426,-3.42607886505401E-16),.UNSPECIFIED.);
#52=B_SPLINE_CURVE_WITH_KNOTS('',3,(#947,#948,#949,#950,#951,#952,#953,
#954,#955,#956,#957,#958,#959,#960,#961,#962),.UNSPECIFIED.,.F.,.F.,(4,
2,2,2,2,2,2,4),(0.,0.143773269043413,0.24967148186722,0.302971404594827,
0.387077081499877,0.514740419752618,0.676729773505884,0.678615144300485),
 .UNSPECIFIED.);
#53=B_SPLINE_CURVE_WITH_KNOTS('',3,(#963,#964,#965,#966,#967,#968,#969,
#970,#971,#972,#973,#974,#975),.UNSPECIFIED.,.F.,.F.,(4,1,1,1,1,1,1,1,1,
1,4),(-0.658747463500207,-0.652865789718956,-0.646984115937704,-0.6352207683752,
-0.611694073250193,-0.588167378125185,-0.564640683000178,-0.470533902500148,
-0.282320341500089,-0.0941067805000296,0.),.UNSPECIFIED.);
#54=PLANE('',#355);
#55=PLANE('',#372);
#56=PLANE('',#384);
#57=PLANE('',#387);
#58=FACE_OUTER_BOUND('',#79,.T.);
#59=FACE_OUTER_BOUND('',#80,.T.);
#60=FACE_OUTER_BOUND('',#81,.T.);
#61=FACE_OUTER_BOUND('',#82,.T.);
#62=FACE_OUTER_BOUND('',#83,.T.);
#63=FACE_OUTER_BOUND('',#84,.T.);
#64=FACE_OUTER_BOUND('',#85,.T.);
#65=FACE_OUTER_BOUND('',#86,.T.);
#66=FACE_OUTER_BOUND('',#87,.T.);
#67=FACE_OUTER_BOUND('',#89,.T.);
#68=FACE_OUTER_BOUND('',#90,.T.);
#69=FACE_OUTER_BOUND('',#91,.T.);
#70=FACE_OUTER_BOUND('',#92,.T.);
#71=FACE_OUTER_BOUND('',#93,.T.);
#72=FACE_OUTER_BOUND('',#94,.T.);
#73=FACE_OUTER_BOUND('',#95,.T.);
#74=FACE_OUTER_BOUND('',#96,.T.);
#75=FACE_OUTER_BOUND('',#97,.T.);
#76=FACE_OUTER_BOUND('',#98,.T.);
#77=FACE_OUTER_BOUND('',#99,.T.);
#78=FACE_OUTER_BOUND('',#101,.T.);
#79=EDGE_LOOP('',(#216,#217,#218,#219));
#80=EDGE_LOOP('',(#220));
#81=EDGE_LOOP('',(#221,#222,#223,#224,#225,#226,#227,#228));
#82=EDGE_LOOP('',(#229,#230,#231,#232));
#83=EDGE_LOOP('',(#233,#234,#235,#236));
#84=EDGE_LOOP('',(#237,#238,#239,#240));
#85=EDGE_LOOP('',(#241,#242,#243,#244));
#86=EDGE_LOOP('',(#245,#246,#247,#248));
#87=EDGE_LOOP('',(#249,#250,#251,#252,#253,#254));
#88=EDGE_LOOP('',(#255));
#89=EDGE_LOOP('',(#256,#257,#258,#259));
#90=EDGE_LOOP('',(#260,#261,#262,#263));
#91=EDGE_LOOP('',(#264,#265,#266,#267));
#92=EDGE_LOOP('',(#268,#269,#270,#271,#272,#273,#274,#275));
#93=EDGE_LOOP('',(#276,#277,#278,#279));
#94=EDGE_LOOP('',(#280,#281,#282,#283));
#95=EDGE_LOOP('',(#284,#285,#286,#287));
#96=EDGE_LOOP('',(#288,#289,#290,#291));
#97=EDGE_LOOP('',(#292));
#98=EDGE_LOOP('',(#293,#294,#295,#296));
#99=EDGE_LOOP('',(#297,#298,#299,#300,#301,#302));
#100=EDGE_LOOP('',(#303));
#101=EDGE_LOOP('',(#304,#305,#306,#307));
#102=LINE('',#488,#111);
#103=LINE('',#522,#112);
#104=LINE('',#551,#113);
#105=LINE('',#556,#114);
#106=LINE('',#592,#115);
#107=LINE('',#596,#116);
#108=LINE('',#738,#117);
#109=LINE('',#739,#118);
#110=LINE('',#813,#119);
#111=VECTOR('',#399,5.);
#112=VECTOR('',#408,10.);
#113=VECTOR('',#411,10.);
#114=VECTOR('',#416,10.);
#115=VECTOR('',#433,5.24999999999999);
#116=VECTOR('',#438,5.);
#117=VECTOR('',#451,10.);
#118=VECTOR('',#452,10.);
#119=VECTOR('',#457,10.);
#120=CIRCLE('',#353,5.);
#121=CIRCLE('',#354,5.);
#122=CIRCLE('',#357,6.5);
#123=CIRCLE('',#358,6.5);
#124=CIRCLE('',#360,14.75);
#125=CIRCLE('',#361,14.75);
#126=CIRCLE('',#363,14.95);
#127=CIRCLE('',#365,24.75);
#128=CIRCLE('',#366,24.55);
#129=CIRCLE('',#368,5.5);
#130=CIRCLE('',#369,5.);
#131=CIRCLE('',#371,5.);
#132=CIRCLE('',#373,6.5);
#133=CIRCLE('',#374,9.5);
#134=CIRCLE('',#376,9.50000000000001);
#135=CIRCLE('',#378,6.5);
#136=CIRCLE('',#379,3.75);
#137=CIRCLE('',#381,3.75);
#138=CIRCLE('',#383,24.75);
#139=CIRCLE('',#386,24.55);
#140=CIRCLE('',#388,14.95);
#141=VERTEX_POINT('',#485);
#142=VERTEX_POINT('',#487);
#143=VERTEX_POINT('',#492);
#144=VERTEX_POINT('',#493);
#145=VERTEX_POINT('',#506);
#146=VERTEX_POINT('',#508);
#147=VERTEX_POINT('',#521);
#148=VERTEX_POINT('',#523);
#149=VERTEX_POINT('',#536);
#150=VERTEX_POINT('',#538);
#151=VERTEX_POINT('',#553);
#152=VERTEX_POINT('',#555);
#153=VERTEX_POINT('',#559);
#154=VERTEX_POINT('',#574);
#155=VERTEX_POINT('',#576);
#156=VERTEX_POINT('',#589);
#157=VERTEX_POINT('',#591);
#158=VERTEX_POINT('',#595);
#159=VERTEX_POINT('',#599);
#160=VERTEX_POINT('',#600);
#161=VERTEX_POINT('',#698);
#162=VERTEX_POINT('',#699);
#163=VERTEX_POINT('',#701);
#164=VERTEX_POINT('',#712);
#165=VERTEX_POINT('',#736);
#166=VERTEX_POINT('',#805);
#167=VERTEX_POINT('',#807);
#168=VERTEX_POINT('',#812);
#169=VERTEX_POINT('',#946);
#170=EDGE_CURVE('',#141,#141,#120,.T.);
#171=EDGE_CURVE('',#141,#142,#102,.T.);
#172=EDGE_CURVE('',#142,#142,#121,.T.);
#173=EDGE_CURVE('',#143,#144,#38,.T.);
#174=EDGE_CURVE('',#145,#143,#122,.T.);
#175=EDGE_CURVE('',#146,#145,#39,.T.);
#176=EDGE_CURVE('',#147,#146,#103,.T.);
#177=EDGE_CURVE('',#148,#147,#40,.T.);
#178=EDGE_CURVE('',#149,#148,#123,.T.);
#179=EDGE_CURVE('',#150,#149,#41,.T.);
#180=EDGE_CURVE('',#144,#150,#104,.T.);
#181=EDGE_CURVE('',#151,#150,#124,.T.);
#182=EDGE_CURVE('',#152,#151,#105,.T.);
#183=EDGE_CURVE('',#144,#152,#125,.T.);
#184=EDGE_CURVE('',#153,#149,#126,.T.);
#185=EDGE_CURVE('',#151,#153,#42,.T.);
#186=EDGE_CURVE('',#147,#154,#127,.T.);
#187=EDGE_CURVE('',#155,#154,#43,.T.);
#188=EDGE_CURVE('',#148,#155,#128,.T.);
#189=EDGE_CURVE('',#156,#156,#129,.T.);
#190=EDGE_CURVE('',#156,#157,#106,.T.);
#191=EDGE_CURVE('',#157,#157,#130,.T.);
#192=EDGE_CURVE('',#157,#158,#107,.T.);
#193=EDGE_CURVE('',#158,#158,#131,.T.);
#194=EDGE_CURVE('',#159,#160,#132,.T.);
#195=EDGE_CURVE('',#153,#160,#44,.T.);
#196=EDGE_CURVE('',#159,#155,#45,.T.);
#197=EDGE_CURVE('',#161,#162,#133,.T.);
#198=EDGE_CURVE('',#162,#163,#46,.T.);
#199=EDGE_CURVE('',#163,#164,#47,.T.);
#200=EDGE_CURVE('',#164,#161,#48,.T.);
#201=EDGE_CURVE('',#165,#154,#134,.T.);
#202=EDGE_CURVE('',#154,#162,#108,.T.);
#203=EDGE_CURVE('',#161,#165,#109,.T.);
#204=EDGE_CURVE('',#165,#159,#49,.T.);
#205=EDGE_CURVE('',#166,#164,#135,.T.);
#206=EDGE_CURVE('',#167,#166,#50,.T.);
#207=EDGE_CURVE('',#168,#167,#110,.T.);
#208=EDGE_CURVE('',#160,#168,#51,.T.);
#209=EDGE_CURVE('',#168,#151,#136,.T.);
#210=EDGE_CURVE('',#167,#152,#137,.T.);
#211=EDGE_CURVE('',#166,#169,#52,.T.);
#212=EDGE_CURVE('',#169,#152,#53,.T.);
#213=EDGE_CURVE('',#162,#146,#138,.T.);
#214=EDGE_CURVE('',#163,#145,#139,.T.);
#215=EDGE_CURVE('',#143,#169,#140,.T.);
#216=ORIENTED_EDGE('',*,*,#170,.F.);
#217=ORIENTED_EDGE('',*,*,#171,.T.);
#218=ORIENTED_EDGE('',*,*,#172,.T.);
#219=ORIENTED_EDGE('',*,*,#171,.F.);
#220=ORIENTED_EDGE('',*,*,#172,.F.);
#221=ORIENTED_EDGE('',*,*,#173,.F.);
#222=ORIENTED_EDGE('',*,*,#174,.F.);
#223=ORIENTED_EDGE('',*,*,#175,.F.);
#224=ORIENTED_EDGE('',*,*,#176,.F.);
#225=ORIENTED_EDGE('',*,*,#177,.F.);
#226=ORIENTED_EDGE('',*,*,#178,.F.);
#227=ORIENTED_EDGE('',*,*,#179,.F.);
#228=ORIENTED_EDGE('',*,*,#180,.F.);
#229=ORIENTED_EDGE('',*,*,#180,.T.);
#230=ORIENTED_EDGE('',*,*,#181,.F.);
#231=ORIENTED_EDGE('',*,*,#182,.F.);
#232=ORIENTED_EDGE('',*,*,#183,.F.);
#233=ORIENTED_EDGE('',*,*,#179,.T.);
#234=ORIENTED_EDGE('',*,*,#184,.F.);
#235=ORIENTED_EDGE('',*,*,#185,.F.);
#236=ORIENTED_EDGE('',*,*,#181,.T.);
#237=ORIENTED_EDGE('',*,*,#177,.T.);
#238=ORIENTED_EDGE('',*,*,#186,.T.);
#239=ORIENTED_EDGE('',*,*,#187,.F.);
#240=ORIENTED_EDGE('',*,*,#188,.F.);
#241=ORIENTED_EDGE('',*,*,#189,.T.);
#242=ORIENTED_EDGE('',*,*,#190,.T.);
#243=ORIENTED_EDGE('',*,*,#191,.T.);
#244=ORIENTED_EDGE('',*,*,#190,.F.);
#245=ORIENTED_EDGE('',*,*,#191,.F.);
#246=ORIENTED_EDGE('',*,*,#192,.T.);
#247=ORIENTED_EDGE('',*,*,#193,.T.);
#248=ORIENTED_EDGE('',*,*,#192,.F.);
#249=ORIENTED_EDGE('',*,*,#194,.T.);
#250=ORIENTED_EDGE('',*,*,#195,.F.);
#251=ORIENTED_EDGE('',*,*,#184,.T.);
#252=ORIENTED_EDGE('',*,*,#178,.T.);
#253=ORIENTED_EDGE('',*,*,#188,.T.);
#254=ORIENTED_EDGE('',*,*,#196,.F.);
#255=ORIENTED_EDGE('',*,*,#189,.F.);
#256=ORIENTED_EDGE('',*,*,#197,.T.);
#257=ORIENTED_EDGE('',*,*,#198,.T.);
#258=ORIENTED_EDGE('',*,*,#199,.T.);
#259=ORIENTED_EDGE('',*,*,#200,.T.);
#260=ORIENTED_EDGE('',*,*,#201,.T.);
#261=ORIENTED_EDGE('',*,*,#202,.T.);
#262=ORIENTED_EDGE('',*,*,#197,.F.);
#263=ORIENTED_EDGE('',*,*,#203,.T.);
#264=ORIENTED_EDGE('',*,*,#196,.T.);
#265=ORIENTED_EDGE('',*,*,#187,.T.);
#266=ORIENTED_EDGE('',*,*,#201,.F.);
#267=ORIENTED_EDGE('',*,*,#204,.T.);
#268=ORIENTED_EDGE('',*,*,#204,.F.);
#269=ORIENTED_EDGE('',*,*,#203,.F.);
#270=ORIENTED_EDGE('',*,*,#200,.F.);
#271=ORIENTED_EDGE('',*,*,#205,.F.);
#272=ORIENTED_EDGE('',*,*,#206,.F.);
#273=ORIENTED_EDGE('',*,*,#207,.F.);
#274=ORIENTED_EDGE('',*,*,#208,.F.);
#275=ORIENTED_EDGE('',*,*,#194,.F.);
#276=ORIENTED_EDGE('',*,*,#209,.T.);
#277=ORIENTED_EDGE('',*,*,#185,.T.);
#278=ORIENTED_EDGE('',*,*,#195,.T.);
#279=ORIENTED_EDGE('',*,*,#208,.T.);
#280=ORIENTED_EDGE('',*,*,#210,.T.);
#281=ORIENTED_EDGE('',*,*,#182,.T.);
#282=ORIENTED_EDGE('',*,*,#209,.F.);
#283=ORIENTED_EDGE('',*,*,#207,.T.);
#284=ORIENTED_EDGE('',*,*,#211,.T.);
#285=ORIENTED_EDGE('',*,*,#212,.T.);
#286=ORIENTED_EDGE('',*,*,#210,.F.);
#287=ORIENTED_EDGE('',*,*,#206,.T.);
#288=ORIENTED_EDGE('',*,*,#176,.T.);
#289=ORIENTED_EDGE('',*,*,#213,.F.);
#290=ORIENTED_EDGE('',*,*,#202,.F.);
#291=ORIENTED_EDGE('',*,*,#186,.F.);
#292=ORIENTED_EDGE('',*,*,#193,.F.);
#293=ORIENTED_EDGE('',*,*,#175,.T.);
#294=ORIENTED_EDGE('',*,*,#214,.F.);
#295=ORIENTED_EDGE('',*,*,#198,.F.);
#296=ORIENTED_EDGE('',*,*,#213,.T.);
#297=ORIENTED_EDGE('',*,*,#215,.T.);
#298=ORIENTED_EDGE('',*,*,#211,.F.);
#299=ORIENTED_EDGE('',*,*,#205,.T.);
#300=ORIENTED_EDGE('',*,*,#199,.F.);
#301=ORIENTED_EDGE('',*,*,#214,.T.);
#302=ORIENTED_EDGE('',*,*,#174,.T.);
#303=ORIENTED_EDGE('',*,*,#170,.T.);
#304=ORIENTED_EDGE('',*,*,#173,.T.);
#305=ORIENTED_EDGE('',*,*,#183,.T.);
#306=ORIENTED_EDGE('',*,*,#212,.F.);
#307=ORIENTED_EDGE('',*,*,#215,.F.);
#308=CYLINDRICAL_SURFACE('',#352,5.);
#309=CYLINDRICAL_SURFACE('',#356,6.5);
#310=CYLINDRICAL_SURFACE('',#359,14.75);
#311=CYLINDRICAL_SURFACE('',#370,5.);
#312=CYLINDRICAL_SURFACE('',#375,9.5);
#313=CYLINDRICAL_SURFACE('',#377,6.5);
#314=CYLINDRICAL_SURFACE('',#380,3.75);
#315=CYLINDRICAL_SURFACE('',#382,24.75);
#316=ADVANCED_FACE('',(#58),#308,.F.);
#317=ADVANCED_FACE('',(#59),#54,.T.);
#318=ADVANCED_FACE('',(#60),#309,.T.);
#319=ADVANCED_FACE('',(#61),#310,.F.);
#320=ADVANCED_FACE('',(#62),#25,.T.);
#321=ADVANCED_FACE('',(#63),#26,.T.);
#322=ADVANCED_FACE('',(#64),#24,.F.);
#323=ADVANCED_FACE('',(#65),#311,.F.);
#324=ADVANCED_FACE('',(#66,#22),#55,.F.);
#325=ADVANCED_FACE('',(#67),#18,.T.);
#326=ADVANCED_FACE('',(#68),#312,.F.);
#327=ADVANCED_FACE('',(#69),#19,.T.);
#328=ADVANCED_FACE('',(#70),#313,.T.);
#329=ADVANCED_FACE('',(#71),#20,.T.);
#330=ADVANCED_FACE('',(#72),#314,.F.);
#331=ADVANCED_FACE('',(#73),#21,.T.);
#332=ADVANCED_FACE('',(#74),#315,.T.);
#333=ADVANCED_FACE('',(#75),#56,.T.);
#334=ADVANCED_FACE('',(#76),#27,.T.);
#335=ADVANCED_FACE('',(#77,#23),#57,.T.);
#336=ADVANCED_FACE('',(#78),#28,.T.);
#337=CLOSED_SHELL('',(#316,#317,#318,#319,#320,#321,#322,#323,#324,#325,
#326,#327,#328,#329,#330,#331,#332,#333,#334,#335,#336));
#338=DERIVED_UNIT_ELEMENT(#340,1.);
#339=DERIVED_UNIT_ELEMENT(#992,-3.);
#340=(
MASS_UNIT()
NAMED_UNIT(*)
SI_UNIT(.KILO.,.GRAM.)
);
#341=DERIVED_UNIT((#338,#339));
#342=MEASURE_REPRESENTATION_ITEM('density measure',
POSITIVE_RATIO_MEASURE(7850.),#341);
#343=PROPERTY_DEFINITION_REPRESENTATION(#348,#345);
#344=PROPERTY_DEFINITION_REPRESENTATION(#349,#346);
#345=REPRESENTATION('material name',(#347),#989);
#346=REPRESENTATION('density',(#342),#989);
#347=DESCRIPTIVE_REPRESENTATION_ITEM('Steel','Steel');
#348=PROPERTY_DEFINITION('material property','material name',#1004);
#349=PROPERTY_DEFINITION('material property','density of part',#1004);
#350=AXIS2_PLACEMENT_3D('',#482,#391,#392);
#351=AXIS2_PLACEMENT_3D('',#483,#393,#394);
#352=AXIS2_PLACEMENT_3D('',#484,#395,#396);
#353=AXIS2_PLACEMENT_3D('',#486,#397,#398);
#354=AXIS2_PLACEMENT_3D('',#489,#400,#401);
#355=AXIS2_PLACEMENT_3D('',#490,#402,#403);
#356=AXIS2_PLACEMENT_3D('',#491,#404,#405);
#357=AXIS2_PLACEMENT_3D('',#507,#406,#407);
#358=AXIS2_PLACEMENT_3D('',#537,#409,#410);
#359=AXIS2_PLACEMENT_3D('',#552,#412,#413);
#360=AXIS2_PLACEMENT_3D('',#554,#414,#415);
#361=AXIS2_PLACEMENT_3D('',#557,#417,#418);
#362=AXIS2_PLACEMENT_3D('',#558,#419,#420);
#363=AXIS2_PLACEMENT_3D('',#560,#421,#422);
#364=AXIS2_PLACEMENT_3D('',#573,#423,#424);
#365=AXIS2_PLACEMENT_3D('',#575,#425,#426);
#366=AXIS2_PLACEMENT_3D('',#587,#427,#428);
#367=AXIS2_PLACEMENT_3D('',#588,#429,#430);
#368=AXIS2_PLACEMENT_3D('',#590,#431,#432);
#369=AXIS2_PLACEMENT_3D('',#593,#434,#435);
#370=AXIS2_PLACEMENT_3D('',#594,#436,#437);
#371=AXIS2_PLACEMENT_3D('',#597,#439,#440);
#372=AXIS2_PLACEMENT_3D('',#598,#441,#442);
#373=AXIS2_PLACEMENT_3D('',#601,#443,#444);
#374=AXIS2_PLACEMENT_3D('',#700,#445,#446);
#375=AXIS2_PLACEMENT_3D('',#735,#447,#448);
#376=AXIS2_PLACEMENT_3D('',#737,#449,#450);
#377=AXIS2_PLACEMENT_3D('',#804,#453,#454);
#378=AXIS2_PLACEMENT_3D('',#806,#455,#456);
#379=AXIS2_PLACEMENT_3D('',#878,#458,#459);
#380=AXIS2_PLACEMENT_3D('',#879,#460,#461);
#381=AXIS2_PLACEMENT_3D('',#880,#462,#463);
#382=AXIS2_PLACEMENT_3D('',#976,#464,#465);
#383=AXIS2_PLACEMENT_3D('',#977,#466,#467);
#384=AXIS2_PLACEMENT_3D('',#978,#468,#469);
#385=AXIS2_PLACEMENT_3D('',#979,#470,#471);
#386=AXIS2_PLACEMENT_3D('',#980,#472,#473);
#387=AXIS2_PLACEMENT_3D('',#981,#474,#475);
#388=AXIS2_PLACEMENT_3D('',#982,#476,#477);
#389=AXIS2_PLACEMENT_3D('',#983,#478,#479);
#390=AXIS2_PLACEMENT_3D('',#984,#480,#481);
#391=DIRECTION('axis',(0.,0.,1.));
#392=DIRECTION('refdir',(1.,0.,0.));
#393=DIRECTION('axis',(0.,0.,1.));
#394=DIRECTION('refdir',(1.,0.,0.));
#395=DIRECTION('center_axis',(9.86864910777917E-16,-1.,2.46716227694479E-16));
#396=DIRECTION('ref_axis',(0.476268709887116,2.53075351348709E-16,-0.879299787320833));
#397=DIRECTION('center_axis',(0.,-1.,0.));
#398=DIRECTION('ref_axis',(0.476268709887116,2.53075351348709E-16,-0.879299787320833));
#399=DIRECTION('',(9.86864910777917E-16,-1.,2.46716227694479E-16));
#400=DIRECTION('center_axis',(1.07096671074056E-15,-1.,2.67425152785947E-16));
#401=DIRECTION('ref_axis',(0.476268709887116,2.74921053687526E-16,-0.879299787320833));
#402=DIRECTION('center_axis',(-1.07096671074056E-15,1.,-2.67425152785947E-16));
#403=DIRECTION('ref_axis',(0.476268709887116,2.74921053687526E-16,-0.879299787320833));
#404=DIRECTION('center_axis',(8.88178419700125E-16,-1.,2.22044604925031E-16));
#405=DIRECTION('ref_axis',(-0.872997265339807,-6.67080604040145E-16,0.487725101577946));
#406=DIRECTION('center_axis',(-1.07096671074056E-15,1.,-2.67425152785947E-16));
#407=DIRECTION('ref_axis',(0.476268709887116,2.74921053687526E-16,-0.879299787320833));
#408=DIRECTION('',(-8.88178419700125E-16,1.,-2.22044604925031E-16));
#409=DIRECTION('center_axis',(1.07096671074056E-15,-1.,2.67425152785947E-16));
#410=DIRECTION('ref_axis',(0.476268709887116,2.74921053687526E-16,-0.879299787320833));
#411=DIRECTION('',(8.88178419700125E-16,-1.,2.22044604925031E-16));
#412=DIRECTION('center_axis',(0.,-1.,0.));
#413=DIRECTION('ref_axis',(0.,0.,-1.));
#414=DIRECTION('center_axis',(0.,1.,0.));
#415=DIRECTION('ref_axis',(0.,0.,-1.));
#416=DIRECTION('',(0.,-1.,0.));
#417=DIRECTION('center_axis',(0.,-1.,0.));
#418=DIRECTION('ref_axis',(0.,0.,-1.));
#419=DIRECTION('center_axis',(0.,1.,0.));
#420=DIRECTION('ref_axis',(1.22464679914735E-16,0.,-1.));
#421=DIRECTION('center_axis',(0.,1.,0.));
#422=DIRECTION('ref_axis',(0.,0.,-1.));
#423=DIRECTION('center_axis',(0.,1.,0.));
#424=DIRECTION('ref_axis',(-1.22464679914735E-16,0.,-1.));
#425=DIRECTION('center_axis',(0.,-1.,0.));
#426=DIRECTION('ref_axis',(0.,0.,-1.));
#427=DIRECTION('center_axis',(0.,-1.,0.));
#428=DIRECTION('ref_axis',(0.,0.,-1.));
#429=DIRECTION('center_axis',(0.,-1.,0.));
#430=DIRECTION('ref_axis',(-0.476268720471956,-1.2051207771857E-16,0.879299781587603));
#431=DIRECTION('center_axis',(0.,-1.,0.));
#432=DIRECTION('ref_axis',(-0.476268720471956,0.,0.879299781587603));
#433=DIRECTION('',(-0.336772841912758,0.707106781186552,0.62175883825644));
#434=DIRECTION('center_axis',(0.,1.,0.));
#435=DIRECTION('ref_axis',(-0.476268720471956,-2.53075363208996E-16,0.879299781587603));
#436=DIRECTION('center_axis',(-9.86864910777916E-16,1.,-2.46716227694479E-16));
#437=DIRECTION('ref_axis',(-0.476268720471956,-2.53075363208996E-16,0.879299781587603));
#438=DIRECTION('',(-9.86864910777916E-16,1.,-2.46716227694479E-16));
#439=DIRECTION('center_axis',(-1.07096448211283E-15,1.,-2.6742437732736E-16));
#440=DIRECTION('ref_axis',(-0.476268720471956,-2.74920686991642E-16,0.879299781587603));
#441=DIRECTION('center_axis',(0.,1.,0.));
#442=DIRECTION('ref_axis',(0.,0.,1.));
#443=DIRECTION('center_axis',(1.07096448211283E-15,-1.,2.6742437732736E-16));
#444=DIRECTION('ref_axis',(-0.476268720471956,-2.74920686991642E-16,0.879299781587603));
#445=DIRECTION('center_axis',(6.87068630108427E-16,-1.,2.5918351335394E-16));
#446=DIRECTION('ref_axis',(-0.036789473173112,2.3373116307898E-16,0.999323038193178));
#447=DIRECTION('center_axis',(0.,-1.,0.));
#448=DIRECTION('ref_axis',(-0.197455299339197,0.,0.980311891574752));
#449=DIRECTION('center_axis',(3.43534315054214E-16,-1.,1.29591756676969E-16));
#450=DIRECTION('ref_axis',(-0.0367894731731111,1.1686558153949E-16,0.999323038193179));
#451=DIRECTION('',(0.,1.,0.));
#452=DIRECTION('',(8.88178419700125E-16,-1.,2.22044604925031E-16));
#453=DIRECTION('center_axis',(-8.88178419700125E-16,1.,-2.22044604925031E-16));
#454=DIRECTION('ref_axis',(0.865100078290197,8.79740638105109E-16,0.501599296792067));
#455=DIRECTION('center_axis',(-1.07096448211283E-15,1.,-2.6742437732736E-16));
#456=DIRECTION('ref_axis',(-0.476268720471956,-2.74920686991642E-16,0.879299781587603));
#457=DIRECTION('',(-8.88178419700125E-16,1.,-2.22044604925031E-16));
#458=DIRECTION('center_axis',(9.1056271897747E-17,1.,1.35375459497684E-15));
#459=DIRECTION('ref_axis',(0.84883633793142,6.38378239159465E-16,-0.528655721057831));
#460=DIRECTION('center_axis',(0.,1.,0.));
#461=DIRECTION('ref_axis',(0.593621843059889,0.,-0.80474412544745));
#462=DIRECTION('center_axis',(-8.34303662932957E-16,1.,-2.19553699840381E-16));
#463=DIRECTION('ref_axis',(0.84883633793142,5.9211894646675E-16,-0.528655721057831));
#464=DIRECTION('center_axis',(0.,-1.,0.));
#465=DIRECTION('ref_axis',(0.,0.,-1.));
#466=DIRECTION('center_axis',(0.,1.,0.));
#467=DIRECTION('ref_axis',(0.582278481012678,0.,-0.812989403712969));
#468=DIRECTION('center_axis',(-6.84108792630924E-21,-1.,1.1571673517418E-21));
#469=DIRECTION('ref_axis',(-0.476268720471956,4.27569320087938E-21,0.879299781587603));
#470=DIRECTION('center_axis',(0.,1.,0.));
#471=DIRECTION('ref_axis',(-1.22464679914735E-16,0.,-1.));
#472=DIRECTION('center_axis',(0.,1.,0.));
#473=DIRECTION('ref_axis',(0.,0.,-1.));
#474=DIRECTION('center_axis',(0.,1.,0.));
#475=DIRECTION('ref_axis',(0.,0.,1.));
#476=DIRECTION('center_axis',(0.,-1.,0.));
#477=DIRECTION('ref_axis',(-0.582278481012678,0.,-0.812989403712969));
#478=DIRECTION('center_axis',(0.,1.,0.));
#479=DIRECTION('ref_axis',(1.22464679914735E-16,0.,-1.));
#480=DIRECTION('',(-0.879299787320833,0.476268709887117,-9.49450948205006E-14));
#481=DIRECTION('',(0.476268709887116,0.879299787320834,-1.7400802802884E-13));
#482=CARTESIAN_POINT('',(0.,0.,0.));
#483=CARTESIAN_POINT('',(0.,0.,0.));
#484=CARTESIAN_POINT('Origin',(-11.5,5.,-2.77555756156289E-16));
#485=CARTESIAN_POINT('',(-13.8813435494356,5.,4.39649893660417));
#486=CARTESIAN_POINT('Origin',(-11.5,4.99999999999998,-2.77555756156284E-16));
#487=CARTESIAN_POINT('',(-13.8813435494356,0.499999999999997,4.39649893660417));
#488=CARTESIAN_POINT('',(-13.8813435494356,5.,4.39649893660416));
#489=CARTESIAN_POINT('Origin',(-11.5,0.499999999999999,8.32667268468867E-16));
#490=CARTESIAN_POINT('Origin',(-11.5,0.499999999999999,8.32667268468867E-16));
#491=CARTESIAN_POINT('Origin',(-11.5,5.,-2.77555756156289E-16));
#492=CARTESIAN_POINT('',(-5.34702935991741,5.00000000000001,2.09545992619324));
#493=CARTESIAN_POINT('',(-5.43795647296834,4.79999999999999,2.34555500391136));
#494=CARTESIAN_POINT('Ctrl Pts',(-5.34702935991741,5.,2.09545992619324));
#495=CARTESIAN_POINT('Ctrl Pts',(-5.35241461219898,5.,2.11127282662798));
#496=CARTESIAN_POINT('Ctrl Pts',(-5.35785980531116,4.99876321179443,2.1270601281629));
#497=CARTESIAN_POINT('Ctrl Pts',(-5.37562141463205,4.99077556209321,2.1779319051623));
#498=CARTESIAN_POINT('Ctrl Pts',(-5.38809206344411,4.97891100081869,2.21261538918667));
#499=CARTESIAN_POINT('Ctrl Pts',(-5.4079950776802,4.94688594295927,2.26673486162266));
#500=CARTESIAN_POINT('Ctrl Pts',(-5.41600228625106,4.92935827695453,2.28808065339044));
#501=CARTESIAN_POINT('Ctrl Pts',(-5.4276109336799,4.89166312423486,2.31868374510539));
#502=CARTESIAN_POINT('Ctrl Pts',(-5.43176278419884,4.87310215582342,2.32949659032936));
#503=CARTESIAN_POINT('Ctrl Pts',(-5.4367531139532,4.8357806988337,2.34245108243066));
#504=CARTESIAN_POINT('Ctrl Pts',(-5.43795647296834,4.81805307882039,2.34555500391136));
#505=CARTESIAN_POINT('Ctrl Pts',(-5.43795647296834,4.79999999999999,2.34555500391136));
#506=CARTESIAN_POINT('',(-10.0587357615215,5.,-6.33819827670947));
#507=CARTESIAN_POINT('Origin',(-11.5,5.,-2.77555756156289E-16));
#508=CARTESIAN_POINT('',(-10.3938895480702,4.79999999999998,-6.40519474084369));
#509=CARTESIAN_POINT('Ctrl Pts',(-10.3938895480702,4.79999999999998,-6.40519474084368));
#510=CARTESIAN_POINT('Ctrl Pts',(-10.3938895480702,4.81313084254345,-6.40519474084368));
#511=CARTESIAN_POINT('Ctrl Pts',(-10.3916474741481,4.8260360575179,-6.40480861164783));
#512=CARTESIAN_POINT('Ctrl Pts',(-10.3819896016117,4.85442584528835,-6.4031307025105));
#513=CARTESIAN_POINT('Ctrl Pts',(-10.3735678940475,4.86904182766851,-6.40166066843811));
#514=CARTESIAN_POINT('Ctrl Pts',(-10.345757004857,4.90481670168203,-6.39672110028673));
#515=CARTESIAN_POINT('Ctrl Pts',(-10.3213179163612,4.92521785982514,-6.39231045864046));
#516=CARTESIAN_POINT('Ctrl Pts',(-10.2470735877487,4.96825033528459,-6.3782610932435));
#517=CARTESIAN_POINT('Ctrl Pts',(-10.1918681422653,4.98645738979231,-6.36729777016768));
#518=CARTESIAN_POINT('Ctrl Pts',(-10.1082384503059,4.99824913821694,-6.34930034240474));
#519=CARTESIAN_POINT('Ctrl Pts',(-10.0834897557563,5.,-6.34382717077251));
#520=CARTESIAN_POINT('Ctrl Pts',(-10.0587357615215,5.,-6.33819827670947));
#521=CARTESIAN_POINT('',(-10.3938895480702,0.199999999999984,-6.40519474084369));
#522=CARTESIAN_POINT('',(-10.3938895480702,5.,-6.40519474084369));
#523=CARTESIAN_POINT('',(-10.0587357615215,-1.11022302462516E-15,-6.33819827670947));
#524=CARTESIAN_POINT('Ctrl Pts',(-10.0587357615215,-4.93038065763132E-29,
-6.33819827670947));
#525=CARTESIAN_POINT('Ctrl Pts',(-10.1009423852372,-1.73355179637051E-15,
-6.34779578293011));
#526=CARTESIAN_POINT('Ctrl Pts',(-10.1435002182412,0.00508203701254792,
-6.35701306784224));
#527=CARTESIAN_POINT('Ctrl Pts',(-10.2291006025038,0.0263472454611232,-6.37471094887343));
#528=CARTESIAN_POINT('Ctrl Pts',(-10.2701083632627,0.0433878519976711,-6.38267464651437));
#529=CARTESIAN_POINT('Ctrl Pts',(-10.3253068817451,0.0788028901455037,-6.39301013465604));
#530=CARTESIAN_POINT('Ctrl Pts',(-10.3456966558251,0.095710030216747,-6.39670616970982));
#531=CARTESIAN_POINT('Ctrl Pts',(-10.3726671900151,0.129436181412278,-6.40150322782486));
#532=CARTESIAN_POINT('Ctrl Pts',(-10.3816347423342,0.144635655828501,-6.40306897793951));
#533=CARTESIAN_POINT('Ctrl Pts',(-10.3916143878019,0.17378862706266,-6.40480291796741));
#534=CARTESIAN_POINT('Ctrl Pts',(-10.3938895480702,0.186772214563752,-6.40519474084368));
#535=CARTESIAN_POINT('Ctrl Pts',(-10.3938895480702,0.199999999999984,-6.40519474084368));
#536=CARTESIAN_POINT('',(-5.34702935991741,5.55111512312578E-15,2.09545992619324));
#537=CARTESIAN_POINT('Origin',(-11.5,0.,8.32667268468867E-16));
#538=CARTESIAN_POINT('',(-5.43795647296834,0.19999999999999,2.34555500391136));
#539=CARTESIAN_POINT('Ctrl Pts',(-5.43795647296834,0.19999999999999,2.34555500391136));
#540=CARTESIAN_POINT('Ctrl Pts',(-5.43795647296834,0.186943001945727,2.34555500391136));
#541=CARTESIAN_POINT('Ctrl Pts',(-5.43732724077481,0.174009905939918,2.34393056388646));
#542=CARTESIAN_POINT('Ctrl Pts',(-5.43473029932944,0.147100283254163,2.33720304670583));
#543=CARTESIAN_POINT('Ctrl Pts',(-5.43263025494272,0.133504104291884,2.33175474171214));
#544=CARTESIAN_POINT('Ctrl Pts',(-5.42500892287034,0.0971200322021819,2.31185530138809));
#545=CARTESIAN_POINT('Ctrl Pts',(-5.41820782436701,0.0768340933884118,2.29396644990202));
#546=CARTESIAN_POINT('Ctrl Pts',(-5.40044425731443,0.0381710083841284,2.24638735275034));
#547=CARTESIAN_POINT('Ctrl Pts',(-5.38832946151782,0.0213725598302368,2.21336190639642));
#548=CARTESIAN_POINT('Ctrl Pts',(-5.36602630856559,0.00376147601034241,
2.15061663382846));
#549=CARTESIAN_POINT('Ctrl Pts',(-5.3564209595198,1.49034889461471E-15,
2.12303680127186));
#550=CARTESIAN_POINT('Ctrl Pts',(-5.34702935991741,0.,2.09545992619324));
#551=CARTESIAN_POINT('',(-5.43795647296834,5.,2.34555500391137));
#552=CARTESIAN_POINT('Origin',(0.,5.,16.05654072333));
#553=CARTESIAN_POINT('',(3.75377783263582,0.2,1.79219173772214));
#554=CARTESIAN_POINT('Origin',(0.,0.2,16.05654072333));
#555=CARTESIAN_POINT('',(3.75377783263581,4.8,1.79219173772214));
#556=CARTESIAN_POINT('',(3.75377783263581,5.,1.79219173772214));
#557=CARTESIAN_POINT('Origin',(0.,4.8,16.05654072333));
#558=CARTESIAN_POINT('Origin',(0.,0.2,16.05654072333));
#559=CARTESIAN_POINT('',(1.31637649783026,0.,1.16460824577777));
#560=CARTESIAN_POINT('Origin',(0.,0.,16.05654072333));
#561=CARTESIAN_POINT('Ctrl Pts',(3.75377783263582,0.2,1.79219173772214));
#562=CARTESIAN_POINT('Ctrl Pts',(3.75377783263582,0.182131623955695,1.79219173772214));
#563=CARTESIAN_POINT('Ctrl Pts',(3.63278511950115,0.150495351539417,1.7553369988338));
#564=CARTESIAN_POINT('Ctrl Pts',(3.10717686038284,0.0941747645460436,1.60502518812425));
#565=CARTESIAN_POINT('Ctrl Pts',(2.36305572666384,0.044749048990191,1.42124348755815));
#566=CARTESIAN_POINT('Ctrl Pts',(1.77899122714394,0.0137674725389287,1.29068927460925));
#567=CARTESIAN_POINT('Ctrl Pts',(1.49973466642445,0.00302785280305525,1.22024314146422));
#568=CARTESIAN_POINT('Ctrl Pts',(1.39095976341624,0.000564792215763499,
1.18887192472328));
#569=CARTESIAN_POINT('Ctrl Pts',(1.34418070410386,9.90939979873632E-5,1.17391244992467));
#570=CARTESIAN_POINT('Ctrl Pts',(1.32801685443187,1.41972618632446E-5,1.168569109295));
#571=CARTESIAN_POINT('Ctrl Pts',(1.32021019048767,-4.62176985445131E-15,
1.16592355102163));
#572=CARTESIAN_POINT('Ctrl Pts',(1.31637649783046,0.,1.16460824577733));
#573=CARTESIAN_POINT('Origin',(0.,0.2,16.05654072333));
#574=CARTESIAN_POINT('',(8.73558047814753,0.2,-7.10057770081353));
#575=CARTESIAN_POINT('Origin',(0.,0.2,16.05654072333));
#576=CARTESIAN_POINT('',(-2.11636002551625,-1.68051336735253E-16,-8.40206758218069));
#577=CARTESIAN_POINT('Ctrl Pts',(-2.11636002551607,0.,-8.40206758218071));
#578=CARTESIAN_POINT('Ctrl Pts',(-1.5334511540428,-2.86097111067736E-16,
-8.46883599764219));
#579=CARTESIAN_POINT('Ctrl Pts',(-0.330741430280928,0.00397970968332278,
-8.56139834564263));
#580=CARTESIAN_POINT('Ctrl Pts',(1.4972116630948,0.0189315048079143,-8.55855769560701));
#581=CARTESIAN_POINT('Ctrl Pts',(3.89205346858976,0.0483910528839077,-8.37160359220053));
#582=CARTESIAN_POINT('Ctrl Pts',(6.16268504296055,0.0888062549713404,-7.92563400804713));
#583=CARTESIAN_POINT('Ctrl Pts',(7.85773438391263,0.135913292954367,-7.41001221241254));
#584=CARTESIAN_POINT('Ctrl Pts',(8.57463219180667,0.169806826376812,-7.16023610355883));
#585=CARTESIAN_POINT('Ctrl Pts',(8.73558047814754,0.189864411886986,-7.10057770081353));
#586=CARTESIAN_POINT('Ctrl Pts',(8.73558047814754,0.2,-7.10057770081353));
#587=CARTESIAN_POINT('Origin',(0.,0.,16.05654072333));
#588=CARTESIAN_POINT('Origin',(11.5,0.250000000000003,1.29217624254984E-14));
#589=CARTESIAN_POINT('',(14.1194779625958,0.,-4.8361487987318));
#590=CARTESIAN_POINT('Origin',(11.5,0.,1.29217624254984E-14));
#591=CARTESIAN_POINT('',(13.8813436023598,0.500000000000007,-4.396498907938));
#592=CARTESIAN_POINT('',(14.0004107824778,0.250000000000004,-4.6163238533349));
#593=CARTESIAN_POINT('Origin',(11.5,0.500000000000006,1.29217624254984E-14));
#594=CARTESIAN_POINT('Origin',(11.5,3.10862446895044E-14,1.30451205393456E-14));
#595=CARTESIAN_POINT('',(13.8813436023598,4.50000000000003,-4.396498907938));
#596=CARTESIAN_POINT('',(13.8813436023598,3.23516215055494E-14,-4.396498907938));
#597=CARTESIAN_POINT('Origin',(11.5,4.50000000000003,1.19348975147204E-14));
#598=CARTESIAN_POINT('Origin',(5.75,0.,8.028270361666));
#599=CARTESIAN_POINT('',(11.7365023050208,-5.2762094737392E-12,-6.49569601041487));
#600=CARTESIAN_POINT('',(5.98009207838362,4.75076382887498E-8,3.43229027573083));
#601=CARTESIAN_POINT('Origin',(11.5,3.10862446895044E-14,1.30451205393456E-14));
#602=CARTESIAN_POINT('Ctrl Pts',(1.3163764978342,0.,1.16460824577861));
#603=CARTESIAN_POINT('Ctrl Pts',(1.31947346204711,1.09322799668738E-18,
1.16520008745402));
#604=CARTESIAN_POINT('Ctrl Pts',(1.32257088148339,-5.55111088347581E-16,
1.16579075463657));
#605=CARTESIAN_POINT('Ctrl Pts',(1.53471760390879,-5.5514012634629E-16,
1.20616433854772));
#606=CARTESIAN_POINT('Ctrl Pts',(1.83436606053361,5.53296929720334E-16,
1.25665205190417));
#607=CARTESIAN_POINT('Ctrl Pts',(2.56285792043447,5.57136852385106E-16,
1.4041574919361));
#608=CARTESIAN_POINT('Ctrl Pts',(2.93668035166317,-1.38777878078145E-15,
1.49253790946143));
#609=CARTESIAN_POINT('Ctrl Pts',(3.45817724573073,-1.38777878078145E-15,
1.64445193456322));
#610=CARTESIAN_POINT('Ctrl Pts',(3.6150082564407,-2.77946769364854E-15,
1.69391450569952));
#611=CARTESIAN_POINT('Ctrl Pts',(3.8579795834195,-2.77322578942701E-15,
1.77915321821441));
#612=CARTESIAN_POINT('Ctrl Pts',(3.94858207046794,-8.73531802447758E-11,
1.812912077158));
#613=CARTESIAN_POINT('Ctrl Pts',(4.33970996904721,-8.73531802447758E-11,
1.96998547644964));
#614=CARTESIAN_POINT('Ctrl Pts',(4.67494081638619,-1.48675047842377E-16,
2.13440314103124));
#615=CARTESIAN_POINT('Ctrl Pts',(5.39866924977734,-1.27382535470728E-16,
2.67034942004411));
#616=CARTESIAN_POINT('Ctrl Pts',(5.72642752103674,-7.77428374806652E-17,
3.02433963951328));
#617=CARTESIAN_POINT('Ctrl Pts',(5.98009207603646,-7.72267608629791E-17,
3.43229027195605));
#618=CARTESIAN_POINT('Ctrl Pts',(11.736502305021,2.55597317857278E-17,-6.49569601041486));
#619=CARTESIAN_POINT('Ctrl Pts',(11.3241047916878,2.56322392683438E-17,
-6.5107110237917));
#620=CARTESIAN_POINT('Ctrl Pts',(10.9138229942655,-1.21430643318376E-16,
-6.55241293095194));
#621=CARTESIAN_POINT('Ctrl Pts',(9.9831428660145,-1.21430643318376E-16,
-6.70780432543409));
#622=CARTESIAN_POINT('Ctrl Pts',(9.55671560757758,4.48252546192407E-14,
-6.8229933150948));
#623=CARTESIAN_POINT('Ctrl Pts',(9.07254782124976,4.48252546192407E-14,
-6.96751111476556));
#624=CARTESIAN_POINT('Ctrl Pts',(8.90453797491618,1.11022302462516E-15,
-7.0211921561555));
#625=CARTESIAN_POINT('Ctrl Pts',(8.62295481692113,1.11022302462516E-15,
-7.1120686243657));
#626=CARTESIAN_POINT('Ctrl Pts',(8.48391744401688,2.44227120922258E-14,
-7.157294672715));
#627=CARTESIAN_POINT('Ctrl Pts',(7.92931114989619,2.44311017434578E-14,
-7.3351345688017));
#628=CARTESIAN_POINT('Ctrl Pts',(7.59073515366296,-5.55111512312578E-16,
-7.43877253922486));
#629=CARTESIAN_POINT('Ctrl Pts',(6.66572053367547,-5.55111512312578E-16,
-7.70065430774141));
#630=CARTESIAN_POINT('Ctrl Pts',(6.12870224954531,0.,-7.8354315990116));
#631=CARTESIAN_POINT('Ctrl Pts',(4.30323466379429,0.,-8.23067521357087));
#632=CARTESIAN_POINT('Ctrl Pts',(3.01324875377754,-1.10867749780315E-15,
-8.40800083258002));
#633=CARTESIAN_POINT('Ctrl Pts',(0.441120509604408,-1.11172824106406E-15,
-8.55540132257356));
#634=CARTESIAN_POINT('Ctrl Pts',(-0.832326471669797,0.,-8.52996690894091));
#635=CARTESIAN_POINT('Ctrl Pts',(-2.10278981870885,0.,-8.40342796644264));
#636=CARTESIAN_POINT('Ctrl Pts',(-2.1095750681683,1.21128458454375E-18,
-8.40274922388159));
#637=CARTESIAN_POINT('Ctrl Pts',(-2.11636002551595,0.,-8.40206758218072));
#638=CARTESIAN_POINT('Ctrl Pts',(-2.11636002551668,5.,-8.40206758218064));
#639=CARTESIAN_POINT('Ctrl Pts',(-1.5334511540434,5.,-8.46883599764214));
#640=CARTESIAN_POINT('Ctrl Pts',(-0.330403908414037,4.99606680712215,-8.56097227432791));
#641=CARTESIAN_POINT('Ctrl Pts',(2.10580137410961,4.97596624950746,-8.55864483020642));
#642=CARTESIAN_POINT('Ctrl Pts',(4.4837884973803,4.94233517847657,-8.27479639409774));
#643=CARTESIAN_POINT('Ctrl Pts',(6.65078495583676,4.89788014098936,-7.7762398124481));
#644=CARTESIAN_POINT('Ctrl Pts',(7.85617273193845,4.86403237362229,-7.41084684305336));
#645=CARTESIAN_POINT('Ctrl Pts',(8.57449331723752,4.83020566411725,-7.16024457105434));
#646=CARTESIAN_POINT('Ctrl Pts',(8.73558047814754,4.81013558811302,-7.10057770081353));
#647=CARTESIAN_POINT('Ctrl Pts',(8.73558047814754,4.8,-7.10057770081353));
#648=CARTESIAN_POINT('Ctrl Pts',(-0.906889674517912,4.9999999999999,-7.65575567439539));
#649=CARTESIAN_POINT('Ctrl Pts',(-0.407376392947261,5.06917879935887,-7.67114404013892));
#650=CARTESIAN_POINT('Ctrl Pts',(0.622709794949407,5.20397497797319,-7.7175941750128));
#651=CARTESIAN_POINT('Ctrl Pts',(2.75172898065614,5.39179117373793,-7.80031779680322));
#652=CARTESIAN_POINT('Ctrl Pts',(4.92876859651886,5.41532698905076,-7.74693884696899));
#653=CARTESIAN_POINT('Ctrl Pts',(6.98742498606038,5.28265776344583,-7.47131261983761));
#654=CARTESIAN_POINT('Ctrl Pts',(8.1525146722032,5.13414127859639,-7.22617771865115));
#655=CARTESIAN_POINT('Ctrl Pts',(8.85239232330651,4.9618656368697,-7.04229445712524));
#656=CARTESIAN_POINT('Ctrl Pts',(9.00979546254673,4.85437186170544,-6.99713533718872));
#657=CARTESIAN_POINT('Ctrl Pts',(9.00979546254673,4.8,-6.99713533718872));
#658=CARTESIAN_POINT('Ctrl Pts',(1.50758807088441,5.64978343610657,-6.16588575655219));
#659=CARTESIAN_POINT('Ctrl Pts',(1.83674526824798,5.81582271780376,-6.13140470772835));
#660=CARTESIAN_POINT('Ctrl Pts',(2.52271096144707,6.12954046893828,-6.16683324503619));
#661=CARTESIAN_POINT('Ctrl Pts',(4.05940389628524,6.52499528924324,-6.48397388067496));
#662=CARTESIAN_POINT('Ctrl Pts',(5.85103085972137,6.50170415183781,-6.85100808049256));
#663=CARTESIAN_POINT('Ctrl Pts',(7.68790814280081,6.10084648898695,-6.95521823127851));
#664=CARTESIAN_POINT('Ctrl Pts',(8.76364088031868,5.69089448004511,-6.91028200692418));
#665=CARTESIAN_POINT('Ctrl Pts',(9.4195039239382,5.22941419424202,-6.83683008348108));
#666=CARTESIAN_POINT('Ctrl Pts',(9.56780633615094,4.94422043321335,-6.81565564375894));
#667=CARTESIAN_POINT('Ctrl Pts',(9.56780633615094,4.8,-6.81565564375894));
#668=CARTESIAN_POINT('Ctrl Pts',(4.91096848353796,8.82709803249226,-4.06580672064252));
#669=CARTESIAN_POINT('Ctrl Pts',(5.03436656214579,9.00082359535651,-4.11370450064019));
#670=CARTESIAN_POINT('Ctrl Pts',(5.31973181274507,9.26403187822647,-4.34476932507087));
#671=CARTESIAN_POINT('Ctrl Pts',(6.17551195621606,9.344114678684,-5.11191808553496));
#672=CARTESIAN_POINT('Ctrl Pts',(7.4778671018805,8.77435541671832,-5.93136794664892));
#673=CARTESIAN_POINT('Ctrl Pts',(8.96910825237555,7.6580390113484,-6.40720502994145));
#674=CARTESIAN_POINT('Ctrl Pts',(9.87820681030318,6.70735734040553,-6.55355828593333));
#675=CARTESIAN_POINT('Ctrl Pts',(10.4414079478526,5.70835842300184,-6.58735991374094));
#676=CARTESIAN_POINT('Ctrl Pts',(10.5694955865594,5.10492373997104,-6.58963919960892));
#677=CARTESIAN_POINT('Ctrl Pts',(10.5694955865594,4.8,-6.58963919960892));
#678=CARTESIAN_POINT('Ctrl Pts',(5.968353739634,12.368204985064,-3.41333995526061));
#679=CARTESIAN_POINT('Ctrl Pts',(6.10361542280853,12.4344583008048,-3.63477341010134));
#680=CARTESIAN_POINT('Ctrl Pts',(6.43112331013675,12.4149336465265,-4.11741725319537));
#681=CARTESIAN_POINT('Ctrl Pts',(7.32624883653041,11.8381476291982,-5.1036462484794));
#682=CARTESIAN_POINT('Ctrl Pts',(8.55866696676949,10.6047417842382,-5.90674811687298));
#683=CARTESIAN_POINT('Ctrl Pts',(9.89551384132645,8.83884911151797,-6.34970748167816));
#684=CARTESIAN_POINT('Ctrl Pts',(10.6964408492762,7.45625827583041,-6.47986923746604));
#685=CARTESIAN_POINT('Ctrl Pts',(11.1882365654064,6.0562594728063,-6.50993050335943));
#686=CARTESIAN_POINT('Ctrl Pts',(11.2998135446978,5.22158099544966,-6.51177297582627));
#687=CARTESIAN_POINT('Ctrl Pts',(11.2998135446978,4.8,-6.51177297582627));
#688=CARTESIAN_POINT('Ctrl Pts',(5.9683537396339,14.5,-3.41333995526045));
#689=CARTESIAN_POINT('Ctrl Pts',(6.17809593083615,14.5000000000001,-3.75324738399953));
#690=CARTESIAN_POINT('Ctrl Pts',(6.66067766921175,14.3092401454242,-4.39283319709962));
#691=CARTESIAN_POINT('Ctrl Pts',(7.8088980061171,13.3343631011117,-5.44688231138274));
#692=CARTESIAN_POINT('Ctrl Pts',(9.13163287909314,11.7032561561134,-6.12184583620711));
#693=CARTESIAN_POINT('Ctrl Pts',(10.4357287719193,9.54718683798392,-6.43622969794619));
#694=CARTESIAN_POINT('Ctrl Pts',(11.1855481233204,7.90557012068137,-6.50154892698257));
#695=CARTESIAN_POINT('Ctrl Pts',(11.6373803209654,6.26497470968665,-6.50014206011011));
#696=CARTESIAN_POINT('Ctrl Pts',(11.7391315756253,5.29157602348123,-6.49559974825565));
#697=CARTESIAN_POINT('Ctrl Pts',(11.7391315756253,4.8,-6.49559974825565));
#698=CARTESIAN_POINT('',(11.7391315756253,4.8,-6.49559974825565));
#699=CARTESIAN_POINT('',(8.73558047814753,4.8,-7.10057770081353));
#700=CARTESIAN_POINT('Origin',(12.0886315707698,4.8,-15.9891686110908));
#701=CARTESIAN_POINT('',(-2.11636002551643,5.,-8.40206758218067));
#702=CARTESIAN_POINT('Ctrl Pts',(8.73558047814754,4.8,-7.10057770081353));
#703=CARTESIAN_POINT('Ctrl Pts',(8.73558047814754,4.81013558811302,-7.10057770081353));
#704=CARTESIAN_POINT('Ctrl Pts',(8.57449331723752,4.83020566411725,-7.16024457105434));
#705=CARTESIAN_POINT('Ctrl Pts',(7.85617273193845,4.86403237362229,-7.41084684305336));
#706=CARTESIAN_POINT('Ctrl Pts',(6.65078495583676,4.89788014098936,-7.7762398124481));
#707=CARTESIAN_POINT('Ctrl Pts',(4.4837884973803,4.94233517847657,-8.27479639409774));
#708=CARTESIAN_POINT('Ctrl Pts',(2.10580137410961,4.97596624950746,-8.55864483020642));
#709=CARTESIAN_POINT('Ctrl Pts',(-0.330403908414037,4.99606680712215,-8.56097227432791));
#710=CARTESIAN_POINT('Ctrl Pts',(-1.5334511540434,5.,-8.46883599764214));
#711=CARTESIAN_POINT('Ctrl Pts',(-2.11636002551668,5.,-8.40206758218064));
#712=CARTESIAN_POINT('',(11.736502305021,5.00000000000003,-6.49569601041487));
#713=CARTESIAN_POINT('Ctrl Pts',(-2.11636002551593,5.,-8.40206758218073));
#714=CARTESIAN_POINT('Ctrl Pts',(-2.10815534104706,5.,-8.40289185487544));
#715=CARTESIAN_POINT('Ctrl Pts',(-2.09995022967057,5.,-8.40371188820215));
#716=CARTESIAN_POINT('Ctrl Pts',(-0.20789642817048,5.,-8.59182003311944));
#717=CARTESIAN_POINT('Ctrl Pts',(1.69354196848372,5.,-8.55605311305535));
#718=CARTESIAN_POINT('Ctrl Pts',(4.77971505924721,5.,-8.14401852606827));
#719=CARTESIAN_POINT('Ctrl Pts',(5.947832625812,4.99999999999219,-7.90045600669191));
#720=CARTESIAN_POINT('Ctrl Pts',(7.45661843949618,4.99999999999219,-7.47754651236372));
#721=CARTESIAN_POINT('Ctrl Pts',(7.76435206306552,5.,-7.385310666416));
#722=CARTESIAN_POINT('Ctrl Pts',(8.26520779964204,5.,-7.22778875996648));
#723=CARTESIAN_POINT('Ctrl Pts',(8.31019542211103,5.00000000000299,-7.21337859192975));
#724=CARTESIAN_POINT('Ctrl Pts',(8.9092311344192,5.00000000000299,-7.01948699046152));
#725=CARTESIAN_POINT('Ctrl Pts',(9.02746039437236,4.99999999999995,-6.98106189941743));
#726=CARTESIAN_POINT('Ctrl Pts',(9.55214749382366,4.99999999999995,-6.82421475021638));
#727=CARTESIAN_POINT('Ctrl Pts',(9.98033084564365,5.00000000000001,-6.70828182105029));
#728=CARTESIAN_POINT('Ctrl Pts',(10.9137283170848,5.00000000000001,-6.55242255492203));
#729=CARTESIAN_POINT('Ctrl Pts',(11.3240570751249,5.,-6.51071276110778));
#730=CARTESIAN_POINT('Ctrl Pts',(11.736502305021,5.,-6.49569601041487));
#731=CARTESIAN_POINT('Ctrl Pts',(11.7363643173646,4.99999618262754,-6.4957174012891));
#732=CARTESIAN_POINT('Ctrl Pts',(11.7381925782848,4.9334766260575,-6.49564166635057));
#733=CARTESIAN_POINT('Ctrl Pts',(11.7391315756253,4.86678331679721,-6.49559974825565));
#734=CARTESIAN_POINT('Ctrl Pts',(11.7391315756253,4.8,-6.49559974825565));
#735=CARTESIAN_POINT('Origin',(12.0886315707698,5.00000000000001,-15.9891686110909));
#736=CARTESIAN_POINT('',(11.7391315756253,0.200000000000001,-6.49559974825565));
#737=CARTESIAN_POINT('Origin',(12.0886315707698,0.2,-15.9891686110909));
#738=CARTESIAN_POINT('',(8.73558047814753,5.00000000000001,-7.10057770081353));
#739=CARTESIAN_POINT('',(11.7391315756253,5.00000000000001,-6.49559974825565));
#740=CARTESIAN_POINT('Ctrl Pts',(8.73558047814754,0.2,-7.10057770081353));
#741=CARTESIAN_POINT('Ctrl Pts',(8.73558047814754,0.189864411886986,-7.10057770081353));
#742=CARTESIAN_POINT('Ctrl Pts',(8.57463219180667,0.169806826376812,-7.16023610355883));
#743=CARTESIAN_POINT('Ctrl Pts',(7.85773438391263,0.135913292954367,-7.41001221241254));
#744=CARTESIAN_POINT('Ctrl Pts',(6.16268504296055,0.0888062549713404,-7.92563400804713));
#745=CARTESIAN_POINT('Ctrl Pts',(3.89205346858976,0.0483910528839077,-8.37160359220053));
#746=CARTESIAN_POINT('Ctrl Pts',(1.4972116630948,0.0189315048079143,-8.55855769560701));
#747=CARTESIAN_POINT('Ctrl Pts',(-0.330741430280928,0.00397970968332278,
-8.56139834564263));
#748=CARTESIAN_POINT('Ctrl Pts',(-1.5334511540428,-2.86097111067736E-16,
-8.46883599764219));
#749=CARTESIAN_POINT('Ctrl Pts',(-2.11636002551607,0.,-8.40206758218071));
#750=CARTESIAN_POINT('Ctrl Pts',(9.00979546254672,0.200000000000001,-6.99713533718872));
#751=CARTESIAN_POINT('Ctrl Pts',(9.00979546254672,0.145628138294535,-6.99713533718872));
#752=CARTESIAN_POINT('Ctrl Pts',(8.85247303680554,0.0381446861185892,-7.04243311261618));
#753=CARTESIAN_POINT('Ctrl Pts',(8.15421294468189,-0.134255233956421,-7.22507633423286));
#754=CARTESIAN_POINT('Ctrl Pts',(6.51488452371409,-0.341532127548972,-7.57372455466096));
#755=CARTESIAN_POINT('Ctrl Pts',(4.37703527587368,-0.423259313277621,-7.77644072522983));
#756=CARTESIAN_POINT('Ctrl Pts',(2.22044208952675,-0.344681301360401,-7.7782053188835));
#757=CARTESIAN_POINT('Ctrl Pts',(0.622158325224448,-0.203954485376403,-7.71844572920999));
#758=CARTESIAN_POINT('Ctrl Pts',(-0.407376392946752,-0.0691787993589396,
-7.67114404013894));
#759=CARTESIAN_POINT('Ctrl Pts',(-0.906889674517386,2.60269436985893E-14,
-7.65575567439541));
#760=CARTESIAN_POINT('Ctrl Pts',(9.56780628510062,0.200000000000002,-6.81565541704805));
#761=CARTESIAN_POINT('Ctrl Pts',(9.56780628510062,0.0557795667865721,-6.81565541704805));
#762=CARTESIAN_POINT('Ctrl Pts',(9.41951407904413,-0.229343726783343,-6.83720580095761));
#763=CARTESIAN_POINT('Ctrl Pts',(8.76545856740649,-0.691333752084283,-6.90876775671886));
#764=CARTESIAN_POINT('Ctrl Pts',(7.2506109504455,-1.26297578292269,-6.97939862312225));
#765=CARTESIAN_POINT('Ctrl Pts',(5.37660120701717,-1.54198048564915,-6.76395085142873));
#766=CARTESIAN_POINT('Ctrl Pts',(3.67685422164057,-1.4260926465784,-6.40189848287996));
#767=CARTESIAN_POINT('Ctrl Pts',(2.52187685553508,-1.12941764038486,-6.16833968334137));
#768=CARTESIAN_POINT('Ctrl Pts',(1.83680206607678,-0.815738206619948,-6.13136966024193));
#769=CARTESIAN_POINT('Ctrl Pts',(1.50764486871323,-0.649698924922772,-6.16585070906572));
#770=CARTESIAN_POINT('Ctrl Pts',(10.5694955148123,0.200000000000004,-6.58963848947055));
#771=CARTESIAN_POINT('Ctrl Pts',(10.5694955148123,-0.104923739971217,-6.58963848947055));
#772=CARTESIAN_POINT('Ctrl Pts',(10.441398604902,-0.708067222101079,-6.58783850697484));
#773=CARTESIAN_POINT('Ctrl Pts',(9.87985085040334,-1.7087222374283,-6.55202428651801));
#774=CARTESIAN_POINT('Ctrl Pts',(8.59903981575696,-3.03264079796981,-6.35518583463267));
#775=CARTESIAN_POINT('Ctrl Pts',(7.10925578990992,-3.96602708833844,-5.73261312965276));
#776=CARTESIAN_POINT('Ctrl Pts',(5.96330141878783,-4.32542612440996,-4.91674454138145));
#777=CARTESIAN_POINT('Ctrl Pts',(5.31877338779735,-4.26313993232462,-4.34649253982017));
#778=CARTESIAN_POINT('Ctrl Pts',(5.03468349602073,-4.00070697394366,-4.11350893443683));
#779=CARTESIAN_POINT('Ctrl Pts',(4.9112854174129,-3.82698141107946,-4.06561115443911));
#780=CARTESIAN_POINT('Ctrl Pts',(11.2998135446978,0.200000000000005,-6.51177297582627));
#781=CARTESIAN_POINT('Ctrl Pts',(11.2998135446978,-0.2215809954499,-6.51177297582627));
#782=CARTESIAN_POINT('Ctrl Pts',(11.1882721024224,-1.05577135588728,-6.51019616158934));
#783=CARTESIAN_POINT('Ctrl Pts',(10.697752927732,-2.45841017344849,-6.47891227195814));
#784=CARTESIAN_POINT('Ctrl Pts',(9.57030665880929,-4.38286790472595,-6.30129408890428));
#785=CARTESIAN_POINT('Ctrl Pts',(8.21936523380384,-5.95786339016181,-5.72716198724019));
#786=CARTESIAN_POINT('Ctrl Pts',(7.10377366475824,-6.98511596465912,-4.8551349490149));
#787=CARTESIAN_POINT('Ctrl Pts',(6.43087588627319,-7.41308613658815,-4.11838800997223));
#788=CARTESIAN_POINT('Ctrl Pts',(6.1036154228087,-7.43445830080482,-3.63477341010156));
#789=CARTESIAN_POINT('Ctrl Pts',(5.96835373963417,-7.36820498506405,-3.41333995526082));
#790=CARTESIAN_POINT('Ctrl Pts',(11.7391315756253,0.200000000000006,-6.49559974825565));
#791=CARTESIAN_POINT('Ctrl Pts',(11.7391315756253,-0.291576023481504,-6.49559974825565));
#792=CARTESIAN_POINT('Ctrl Pts',(11.6374849175046,-1.26436892072485,-6.50020134831814));
#793=CARTESIAN_POINT('Ctrl Pts',(11.1864933867349,-2.90820529171464,-6.50116834114951));
#794=CARTESIAN_POINT('Ctrl Pts',(10.1322304600573,-5.19289663388717,-6.41164034814351));
#795=CARTESIAN_POINT('Ctrl Pts',(8.78513322319394,-7.15303393513061,-5.98683476493834));
#796=CARTESIAN_POINT('Ctrl Pts',(7.52212675139777,-8.58182201681605,-5.18271632851566));
#797=CARTESIAN_POINT('Ctrl Pts',(6.66046328753647,-9.30698408035887,-4.39322850760475));
#798=CARTESIAN_POINT('Ctrl Pts',(6.1780959308364,-9.50000000000002,-3.75324738399984));
#799=CARTESIAN_POINT('Ctrl Pts',(5.96835373963414,-9.5,-3.41333995526078));
#800=CARTESIAN_POINT('Ctrl Pts',(11.7391315756253,0.200000000000006,-6.49559974825565));
#801=CARTESIAN_POINT('Ctrl Pts',(11.7391315756253,0.133211767148717,-6.49559974825565));
#802=CARTESIAN_POINT('Ctrl Pts',(11.7381934054335,0.0665191463486115,-6.4956422197357));
#803=CARTESIAN_POINT('Ctrl Pts',(11.7363668765976,3.74571707268539E-6,-6.49571881023355));
#804=CARTESIAN_POINT('Origin',(11.5,3.10862446895044E-14,1.30451205393456E-14));
#805=CARTESIAN_POINT('',(5.98009207838362,4.99999995249242,3.43229027573083));
#806=CARTESIAN_POINT('Origin',(11.5,5.00000000000003,1.19348975147204E-14));
#807=CARTESIAN_POINT('',(5.9825638034458,4.8,3.43626218687591));
#808=CARTESIAN_POINT('Ctrl Pts',(5.9825638034458,4.8,3.43626218687591));
#809=CARTESIAN_POINT('Ctrl Pts',(5.9825638034458,4.86670162953217,3.43626218687591));
#810=CARTESIAN_POINT('Ctrl Pts',(5.98165881755622,4.93341983386792,3.43483806678302));
#811=CARTESIAN_POINT('Ctrl Pts',(5.97991731103194,4.99998615758549,3.43206860255332));
#812=CARTESIAN_POINT('',(5.98256380344581,0.199999999999997,3.43626218687592));
#813=CARTESIAN_POINT('',(5.9825638034458,5.00000000000001,3.43626218687591));
#814=CARTESIAN_POINT('Ctrl Pts',(5.98000038760603,6.09980274430405E-6,3.43219828554508));
#815=CARTESIAN_POINT('Ctrl Pts',(5.98169154237907,0.0665276125611371,3.43488920786724));
#816=CARTESIAN_POINT('Ctrl Pts',(5.98256380344581,0.133238016225246,3.43626218687591));
#817=CARTESIAN_POINT('Ctrl Pts',(5.98256380344581,0.199999999999998,3.43626218687591));
#818=CARTESIAN_POINT('Ctrl Pts',(1.31637649783046,0.,1.16460824577733));
#819=CARTESIAN_POINT('Ctrl Pts',(1.32021019048767,-4.62176985445131E-15,
1.16592355102163));
#820=CARTESIAN_POINT('Ctrl Pts',(1.32801685443187,1.41972618632446E-5,1.168569109295));
#821=CARTESIAN_POINT('Ctrl Pts',(1.34418070410386,9.90939979873632E-5,1.17391244992467));
#822=CARTESIAN_POINT('Ctrl Pts',(1.39095976341624,0.000564792215763499,
1.18887192472328));
#823=CARTESIAN_POINT('Ctrl Pts',(1.49973466642445,0.00302785280305525,1.22024314146422));
#824=CARTESIAN_POINT('Ctrl Pts',(1.77899122714394,0.0137674725389287,1.29068927460925));
#825=CARTESIAN_POINT('Ctrl Pts',(2.36305572666384,0.044749048990191,1.42124348755815));
#826=CARTESIAN_POINT('Ctrl Pts',(3.10717686038284,0.0941747645460436,1.60502518812425));
#827=CARTESIAN_POINT('Ctrl Pts',(3.63278511950115,0.150495351539417,1.7553369988338));
#828=CARTESIAN_POINT('Ctrl Pts',(3.75377783263582,0.182131623955695,1.79219173772214));
#829=CARTESIAN_POINT('Ctrl Pts',(3.75377783263582,0.2,1.79219173772214));
#830=CARTESIAN_POINT('Ctrl Pts',(2.43110809299962,1.06878744922005E-12,
1.03712654859299));
#831=CARTESIAN_POINT('Ctrl Pts',(2.43399524144375,-0.00112555140918475,
1.03632836639921));
#832=CARTESIAN_POINT('Ctrl Pts',(2.43986675134155,-0.00338957522665215,
1.03481605433216));
#833=CARTESIAN_POINT('Ctrl Pts',(2.45192897578439,-0.00816903850926277,
1.0320288816174));
#834=CARTESIAN_POINT('Ctrl Pts',(2.48661880999203,-0.0218513101031245,1.02561931275146));
#835=CARTESIAN_POINT('Ctrl Pts',(2.56569427051713,-0.0537461741714161,1.02169147811643));
#836=CARTESIAN_POINT('Ctrl Pts',(2.76569503185978,-0.128412023069167,1.05707493041334));
#837=CARTESIAN_POINT('Ctrl Pts',(3.19305786337988,-0.224165727778041,1.25393026782002));
#838=CARTESIAN_POINT('Ctrl Pts',(3.76872068700694,-0.166727762053725,1.60676004892983));
#839=CARTESIAN_POINT('Ctrl Pts',(4.18059973260074,0.00911372234220621,1.86834875552823));
#840=CARTESIAN_POINT('Ctrl Pts',(4.27631332238424,0.131024218571588,1.92970114247396));
#841=CARTESIAN_POINT('Ctrl Pts',(4.27631332238424,0.2,1.92970114247396));
#842=CARTESIAN_POINT('Ctrl Pts',(4.36304878732007,-0.938931763882277,0.816188091619408));
#843=CARTESIAN_POINT('Ctrl Pts',(4.36397651445788,-0.940677286978036,0.81646057653909));
#844=CARTESIAN_POINT('Ctrl Pts',(4.36581060346774,-0.944205520298264,0.81708811226098));
#845=CARTESIAN_POINT('Ctrl Pts',(4.36946249315204,-0.951303715284263,0.818770871388289));
#846=CARTESIAN_POINT('Ctrl Pts',(4.37930759043521,-0.971226533231223,0.82503158831351));
#847=CARTESIAN_POINT('Ctrl Pts',(4.39884464048353,-1.01189236761112,0.85086907139946));
#848=CARTESIAN_POINT('Ctrl Pts',(4.44566589492664,-1.08428139289581,0.968883695260194));
#849=CARTESIAN_POINT('Ctrl Pts',(4.58141576774057,-1.09201171540912,1.35681663445245));
#850=CARTESIAN_POINT('Ctrl Pts',(4.85751845214445,-0.79174967238849,1.914854189218));
#851=CARTESIAN_POINT('Ctrl Pts',(5.08306478540503,-0.289203545716496,2.2866128650684));
#852=CARTESIAN_POINT('Ctrl Pts',(5.13745359513911,0.0229466237528696,2.3709618418341));
#853=CARTESIAN_POINT('Ctrl Pts',(5.13745359513911,0.199999999999999,2.3709618418341));
#854=CARTESIAN_POINT('Ctrl Pts',(5.0420924132598,-2.90850196778794,0.738532058290465));
#855=CARTESIAN_POINT('Ctrl Pts',(5.04304161094533,-2.90901714863648,0.746912279625677));
#856=CARTESIAN_POINT('Ctrl Pts',(5.04497735325859,-2.90986706927157,0.763696325255685));
#857=CARTESIAN_POINT('Ctrl Pts',(5.04895279378543,-2.91078868226829,0.797380085018703));
#858=CARTESIAN_POINT('Ctrl Pts',(5.06043849644463,-2.91026107043659,0.890452170629435));
#859=CARTESIAN_POINT('Ctrl Pts',(5.08685094577973,-2.88825238827001,1.07958423244562));
#860=CARTESIAN_POINT('Ctrl Pts',(5.15554303015989,-2.76101679768819,1.46953362465061));
#861=CARTESIAN_POINT('Ctrl Pts',(5.31294101338213,-2.33393645310495,2.08888505323061));
#862=CARTESIAN_POINT('Ctrl Pts',(5.54945248460822,-1.56065294801728,2.66594112725798));
#863=CARTESIAN_POINT('Ctrl Pts',(5.72641514196136,-0.631113113931085,3.0167868860622));
#864=CARTESIAN_POINT('Ctrl Pts',(5.76832898443555,-0.100161741787453,3.09227593650074));
#865=CARTESIAN_POINT('Ctrl Pts',(5.76832898443555,0.199999999999999,3.09227593650074));
#866=CARTESIAN_POINT('Ctrl Pts',(5.04209241325935,-3.75,0.738532058286577));
#867=CARTESIAN_POINT('Ctrl Pts',(5.04350522917843,-3.75000000000009,0.750886071277773));
#868=CARTESIAN_POINT('Ctrl Pts',(5.04640218931158,-3.7497196040782,0.775587596156899));
#869=CARTESIAN_POINT('Ctrl Pts',(5.05247610498392,-3.74804289353974,0.824938692111759));
#870=CARTESIAN_POINT('Ctrl Pts',(5.07035021044279,-3.73884535373867,0.960474346075634));
#871=CARTESIAN_POINT('Ctrl Pts',(5.11363412055565,-3.69019990713965,1.22910620445858));
#872=CARTESIAN_POINT('Ctrl Pts',(5.2284530265952,-3.47809241735615,1.74955122632801));
#873=CARTESIAN_POINT('Ctrl Pts',(5.46669197225578,-2.86620628244372,2.47205431788284));
#874=CARTESIAN_POINT('Ctrl Pts',(5.74834685324554,-1.89004840021564,3.04055080616973));
#875=CARTESIAN_POINT('Ctrl Pts',(5.9392356816918,-0.777716807096506,3.36806173184905));
#876=CARTESIAN_POINT('Ctrl Pts',(5.98256380344581,-0.152900426875028,3.43626218687591));
#877=CARTESIAN_POINT('Ctrl Pts',(5.98256380344581,0.199999999999998,3.43626218687591));
#878=CARTESIAN_POINT('Origin',(2.79942753620298,0.199999999999995,5.41872114084278));
#879=CARTESIAN_POINT('Origin',(2.79942753620298,5.,5.41872114084278));
#880=CARTESIAN_POINT('Origin',(2.79942753620298,4.8,5.41872114084278));
#881=CARTESIAN_POINT('Ctrl Pts',(3.75377783263581,4.8,1.79219173772214));
#882=CARTESIAN_POINT('Ctrl Pts',(3.75377783263581,4.81588300092827,1.79219173772214));
#883=CARTESIAN_POINT('Ctrl Pts',(3.58582176749924,4.86358768752786,1.73938965757383));
#884=CARTESIAN_POINT('Ctrl Pts',(2.78023650839509,4.93006634621888,1.51680925217868));
#885=CARTESIAN_POINT('Ctrl Pts',(1.99329302299963,4.97585362472512,1.34005665174119));
#886=CARTESIAN_POINT('Ctrl Pts',(1.62210905044215,4.9925323055305,1.25166951186643));
#887=CARTESIAN_POINT('Ctrl Pts',(1.48339538459012,4.99709925238678,1.21500281452102));
#888=CARTESIAN_POINT('Ctrl Pts',(1.42064225540976,4.99876536085392,1.19744213780405));
#889=CARTESIAN_POINT('Ctrl Pts',(1.37393938257825,4.99960416362667,1.18342126596625));
#890=CARTESIAN_POINT('Ctrl Pts',(1.34418347315437,4.99990098147216,1.17391455874701));
#891=CARTESIAN_POINT('Ctrl Pts',(1.32801630127674,4.99998577953388,1.16856836921665));
#892=CARTESIAN_POINT('Ctrl Pts',(1.32021019048734,5.00000000000001,1.16592355102152));
#893=CARTESIAN_POINT('Ctrl Pts',(1.31637649783013,5.,1.16460824577722));
#894=CARTESIAN_POINT('Ctrl Pts',(4.27631332238424,4.8,1.92970114247396));
#895=CARTESIAN_POINT('Ctrl Pts',(4.27631332238423,4.86131180571415,1.92970114247395));
#896=CARTESIAN_POINT('Ctrl Pts',(4.14339051127134,5.04748760651816,1.84543332113599));
#897=CARTESIAN_POINT('Ctrl Pts',(3.51100673209334,5.22975788835136,1.44227222205144));
#898=CARTESIAN_POINT('Ctrl Pts',(2.91944935320591,5.17775098417189,1.11136378184628));
#899=CARTESIAN_POINT('Ctrl Pts',(2.65319979674619,5.08784739077063,1.03383282175419));
#900=CARTESIAN_POINT('Ctrl Pts',(2.55343497250626,5.0491814175947,1.02435892943077));
#901=CARTESIAN_POINT('Ctrl Pts',(2.50815403438154,5.03068232184918,1.02438167344456));
#902=CARTESIAN_POINT('Ctrl Pts',(2.47394837177849,5.0170315350802,1.02786887211785));
#903=CARTESIAN_POINT('Ctrl Pts',(2.45192508822576,5.00818658325334,1.03201007822107));
#904=CARTESIAN_POINT('Ctrl Pts',(2.43986079213956,5.00340711356992,1.03480521631311));
#905=CARTESIAN_POINT('Ctrl Pts',(2.4339952414435,5.00112555140909,1.03632836639927));
#906=CARTESIAN_POINT('Ctrl Pts',(2.43110809299937,4.99999999999884,1.03712654859305));
#907=CARTESIAN_POINT('Ctrl Pts',(5.13743292876866,4.8,2.37099402722652));
#908=CARTESIAN_POINT('Ctrl Pts',(5.13743292876866,4.95738077888636,2.37099402722652));
#909=CARTESIAN_POINT('Ctrl Pts',(5.06225343982884,5.42927110876923,2.25688072409271));
#910=CARTESIAN_POINT('Ctrl Pts',(4.71872799892307,5.98832910755489,1.67426876844299));
#911=CARTESIAN_POINT('Ctrl Pts',(4.48584730033611,6.11384766400477,1.09339414627691));
#912=CARTESIAN_POINT('Ctrl Pts',(4.41980769182757,6.045009643217,0.899851513606892));
#913=CARTESIAN_POINT('Ctrl Pts',(4.39542444762039,6.00440466500031,0.850033473886277));
#914=CARTESIAN_POINT('Ctrl Pts',(4.38431962816564,5.98273464415317,0.832154862227291));
#915=CARTESIAN_POINT('Ctrl Pts',(4.37537889570281,5.96443121025539,0.822884386914527));
#916=CARTESIAN_POINT('Ctrl Pts',(4.36906929125073,5.95182945701773,0.818821066366973));
#917=CARTESIAN_POINT('Ctrl Pts',(4.3654167150443,5.94473041756746,0.817142638695425));
#918=CARTESIAN_POINT('Ctrl Pts',(4.363576646721,5.94121177227972,0.816506305769273));
#919=CARTESIAN_POINT('Ctrl Pts',(4.36264891958319,5.93946624918396,0.816233820849594));
#920=CARTESIAN_POINT('Ctrl Pts',(5.76832898443555,4.8,3.09227593650074));
#921=CARTESIAN_POINT('Ctrl Pts',(5.76832898443555,5.06681043714444,3.09227593650074));
#922=CARTESIAN_POINT('Ctrl Pts',(5.70986938612624,5.86766953671821,2.98868779525832));
#923=CARTESIAN_POINT('Ctrl Pts',(5.43938793244526,6.95440463529263,2.4430763203173));
#924=CARTESIAN_POINT('Ctrl Pts',(5.20992457702284,7.62573695945068,1.72394185020562));
#925=CARTESIAN_POINT('Ctrl Pts',(5.11671694538497,7.83629846181728,1.25595877037227));
#926=CARTESIAN_POINT('Ctrl Pts',(5.08278773264572,7.88755694835411,1.04595510176227));
#927=CARTESIAN_POINT('Ctrl Pts',(5.06761995040158,7.90423791747345,0.942050937155503));
#928=CARTESIAN_POINT('Ctrl Pts',(5.0562253885418,7.91040281093026,0.856626606365903));
#929=CARTESIAN_POINT('Ctrl Pts',(5.04894972589773,7.91078551654156,0.797383308342317));
#930=CARTESIAN_POINT('Ctrl Pts',(5.04497338803643,7.90986179346306,0.763698620244563));
#931=CARTESIAN_POINT('Ctrl Pts',(5.04304161094523,7.90901714863645,0.74691227962499));
#932=CARTESIAN_POINT('Ctrl Pts',(5.04209241325971,7.9085019677879,0.738532058289778));
#933=CARTESIAN_POINT('Ctrl Pts',(5.9825638034458,4.8,3.43626218687591));
#934=CARTESIAN_POINT('Ctrl Pts',(5.9825638034458,5.1136892683334,3.43626218687591));
#935=CARTESIAN_POINT('Ctrl Pts',(5.92251705472727,6.05585682867519,3.34177034744823));
#936=CARTESIAN_POINT('Ctrl Pts',(5.62902504406158,7.36881033782302,2.83473117833944));
#937=CARTESIAN_POINT('Ctrl Pts',(5.3172349847323,8.2731090883211,2.0646203068171));
#938=CARTESIAN_POINT('Ctrl Pts',(5.16367646801279,8.60251303422753,1.46674879796941));
#939=CARTESIAN_POINT('Ctrl Pts',(5.10734466924779,8.69271023463906,1.17942109483204));
#940=CARTESIAN_POINT('Ctrl Pts',(5.08215441344713,8.725615876865,1.03374904427629));
#941=CARTESIAN_POINT('Ctrl Pts',(5.06384709513533,8.74218223162673,0.911170527509853));
#942=CARTESIAN_POINT('Ctrl Pts',(5.05247689761727,8.74804438407512,0.824941371073538));
#943=CARTESIAN_POINT('Ctrl Pts',(5.04640195776235,8.74971914579417,0.775586223553126));
#944=CARTESIAN_POINT('Ctrl Pts',(5.0435052291783,8.7500000000001,0.750886071276762));
#945=CARTESIAN_POINT('Ctrl Pts',(5.04209241325922,8.75,0.738532058285563));
#946=CARTESIAN_POINT('',(1.31637649783026,5.,1.16460824577777));
#947=CARTESIAN_POINT('Ctrl Pts',(5.98009207603645,5.,3.43229027195605));
#948=CARTESIAN_POINT('Ctrl Pts',(5.72702972080311,5.,3.02530811449611));
#949=CARTESIAN_POINT('Ctrl Pts',(5.40020673939429,5.,2.67201000506412));
#950=CARTESIAN_POINT('Ctrl Pts',(4.72964714800989,5.,2.17453377853056));
#951=CARTESIAN_POINT('Ctrl Pts',(4.45202888350048,5.,2.02862214544207));
#952=CARTESIAN_POINT('Ctrl Pts',(4.08959084254088,5.,1.86797582694972));
#953=CARTESIAN_POINT('Ctrl Pts',(3.96613275460102,5.,1.8190979658673));
#954=CARTESIAN_POINT('Ctrl Pts',(3.6456177579569,5.,1.70267104385118));
#955=CARTESIAN_POINT('Ctrl Pts',(3.44005886876464,5.,1.63807153754792));
#956=CARTESIAN_POINT('Ctrl Pts',(2.93583050268417,5.,1.49449256989553));
#957=CARTESIAN_POINT('Ctrl Pts',(2.62586822727526,5.,1.41997083202632));
#958=CARTESIAN_POINT('Ctrl Pts',(1.91485307333479,5.,1.27027705296533));
#959=CARTESIAN_POINT('Ctrl Pts',(1.58508811433845,5.,1.21575522907465));
#960=CARTESIAN_POINT('Ctrl Pts',(1.32242003032955,5.,1.16576198709322));
#961=CARTESIAN_POINT('Ctrl Pts',(1.31939805036886,5.,1.16518567599463));
#962=CARTESIAN_POINT('Ctrl Pts',(1.31637649783419,5.,1.16460824577861));
#963=CARTESIAN_POINT('Ctrl Pts',(1.31637649783013,5.,1.16460824577722));
#964=CARTESIAN_POINT('Ctrl Pts',(1.32021019048734,5.00000000000001,1.16592355102152));
#965=CARTESIAN_POINT('Ctrl Pts',(1.32801630127674,4.99998577953388,1.16856836921665));
#966=CARTESIAN_POINT('Ctrl Pts',(1.34418347315437,4.99990098147216,1.17391455874701));
#967=CARTESIAN_POINT('Ctrl Pts',(1.37393938257825,4.99960416362667,1.18342126596625));
#968=CARTESIAN_POINT('Ctrl Pts',(1.42064225540976,4.99876536085392,1.19744213780405));
#969=CARTESIAN_POINT('Ctrl Pts',(1.48339538459012,4.99709925238678,1.21500281452102));
#970=CARTESIAN_POINT('Ctrl Pts',(1.62210905044215,4.9925323055305,1.25166951186643));
#971=CARTESIAN_POINT('Ctrl Pts',(1.99329302299963,4.97585362472512,1.34005665174119));
#972=CARTESIAN_POINT('Ctrl Pts',(2.78023650839509,4.93006634621888,1.51680925217868));
#973=CARTESIAN_POINT('Ctrl Pts',(3.58582176749924,4.86358768752786,1.73938965757383));
#974=CARTESIAN_POINT('Ctrl Pts',(3.75377783263581,4.81588300092827,1.79219173772214));
#975=CARTESIAN_POINT('Ctrl Pts',(3.75377783263581,4.8,1.79219173772214));
#976=CARTESIAN_POINT('Origin',(0.,5.,16.05654072333));
#977=CARTESIAN_POINT('Origin',(0.,4.8,16.05654072333));
#978=CARTESIAN_POINT('Origin',(11.5,4.49999999999999,0.));
#979=CARTESIAN_POINT('Origin',(0.,4.8,16.05654072333));
#980=CARTESIAN_POINT('Origin',(0.,5.,16.05654072333));
#981=CARTESIAN_POINT('Origin',(5.75,5.,8.028270361666));
#982=CARTESIAN_POINT('Origin',(0.,5.,16.05654072333));
#983=CARTESIAN_POINT('Origin',(0.,4.8,16.05654072333));
#984=CARTESIAN_POINT('',(-3.06285610215689,-0.529999935500929,24.3479367597));
#985=UNCERTAINTY_MEASURE_WITH_UNIT(LENGTH_MEASURE(0.01),#991,
'DISTANCE_ACCURACY_VALUE',
'Maximum model space distance between geometric entities at asserted c
onnectivities');
#986=UNCERTAINTY_MEASURE_WITH_UNIT(LENGTH_MEASURE(0.01),#991,
'DISTANCE_ACCURACY_VALUE',
'Maximum model space distance between geometric entities at asserted c
onnectivities');
#987=UNCERTAINTY_MEASURE_WITH_UNIT(LENGTH_MEASURE(0.01),#991,
'DISTANCE_ACCURACY_VALUE',
'Maximum model space distance between geometric entities at asserted c
onnectivities');
#988=(
GEOMETRIC_REPRESENTATION_CONTEXT(3)
GLOBAL_UNCERTAINTY_ASSIGNED_CONTEXT((#985))
GLOBAL_UNIT_ASSIGNED_CONTEXT((#991,#993,#994))
REPRESENTATION_CONTEXT('','3D')
);
#989=(
GEOMETRIC_REPRESENTATION_CONTEXT(3)
GLOBAL_UNCERTAINTY_ASSIGNED_CONTEXT((#986))
GLOBAL_UNIT_ASSIGNED_CONTEXT((#991,#993,#994))
REPRESENTATION_CONTEXT('','3D')
);
#990=(
GEOMETRIC_REPRESENTATION_CONTEXT(3)
GLOBAL_UNCERTAINTY_ASSIGNED_CONTEXT((#987))
GLOBAL_UNIT_ASSIGNED_CONTEXT((#991,#993,#994))
REPRESENTATION_CONTEXT('','3D')
);
#991=(
LENGTH_UNIT()
NAMED_UNIT(*)
SI_UNIT(.MILLI.,.METRE.)
);
#992=(
LENGTH_UNIT()
NAMED_UNIT(*)
SI_UNIT($,.METRE.)
);
#993=(
NAMED_UNIT(*)
PLANE_ANGLE_UNIT()
SI_UNIT($,.RADIAN.)
);
#994=(
NAMED_UNIT(*)
SI_UNIT($,.STERADIAN.)
SOLID_ANGLE_UNIT()
);
#995=SHAPE_DEFINITION_REPRESENTATION(#997,#1000);
#996=SHAPE_DEFINITION_REPRESENTATION(#998,#1001);
#997=PRODUCT_DEFINITION_SHAPE('',$,#1003);
#998=PRODUCT_DEFINITION_SHAPE('',$,#1004);
#999=PRODUCT_DEFINITION_SHAPE($,$,#14);
#1000=SHAPE_REPRESENTATION('',(#350,#390),#988);
#1001=SHAPE_REPRESENTATION('',(#351),#989);
#1002=PRODUCT_DEFINITION_CONTEXT('part definition',#1010,'design');
#1003=PRODUCT_DEFINITION('_AF1_ASM','_AF1_ASM v12',#1005,#1002);
#1004=PRODUCT_DEFINITION('00','00 (4)',#1006,#1002);
#1005=PRODUCT_DEFINITION_FORMATION('',$,#1012);
#1006=PRODUCT_DEFINITION_FORMATION('',$,#1013);
#1007=PRODUCT_RELATED_PRODUCT_CATEGORY('_AF1_ASM v12','_AF1_ASM v12',(#1012));
#1008=PRODUCT_RELATED_PRODUCT_CATEGORY('00 (4)','00 (4)',(#1013));
#1009=APPLICATION_PROTOCOL_DEFINITION('international standard',
'automotive_design',2009,#1010);
#1010=APPLICATION_CONTEXT(
'Core Data for Automotive Mechanical Design Process');
#1011=PRODUCT_CONTEXT('part definition',#1010,'mechanical');
#1012=PRODUCT('_AF1_ASM','_AF1_ASM v12','NOT SPECIFIED',(#1011));
#1013=PRODUCT('00','00 (4)','NOT SPECIFIED',(#1011));
#1014=PRESENTATION_STYLE_ASSIGNMENT((#1017));
#1015=PRESENTATION_STYLE_ASSIGNMENT((#1018));
#1016=PRESENTATION_STYLE_ASSIGNMENT((#1019));
#1017=SURFACE_STYLE_USAGE(.BOTH.,#1020);
#1018=SURFACE_STYLE_USAGE(.BOTH.,#1021);
#1019=SURFACE_STYLE_USAGE(.BOTH.,#1022);
#1020=SURFACE_SIDE_STYLE('',(#1023));
#1021=SURFACE_SIDE_STYLE('',(#1024));
#1022=SURFACE_SIDE_STYLE('',(#1025));
#1023=SURFACE_STYLE_FILL_AREA(#1026);
#1024=SURFACE_STYLE_FILL_AREA(#1027);
#1025=SURFACE_STYLE_FILL_AREA(#1028);
#1026=FILL_AREA_STYLE('Steel - Satin',(#1029));
#1027=FILL_AREA_STYLE('Opaque(255,255,255)',(#1030));
#1028=FILL_AREA_STYLE('Opaque(229,234,237)',(#1031));
#1029=FILL_AREA_STYLE_COLOUR('Steel - Satin',#1032);
#1030=FILL_AREA_STYLE_COLOUR('Opaque(255,255,255)',#1033);
#1031=FILL_AREA_STYLE_COLOUR('Opaque(229,234,237)',#1034);
#1032=COLOUR_RGB('Steel - Satin',0.627450980392157,0.627450980392157,0.627450980392157);
#1033=COLOUR_RGB('Opaque(255,255,255)',1.,1.,1.);
#1034=COLOUR_RGB('Opaque(229,234,237)',0.898039215686275,0.917647058823529,
0.929411764705882);
ENDSEC;
END-ISO-10303-21;
