ISO-10303-21;
HEADER;
/* Generated by software containing ST-Developer
 * from STEP Tools, Inc. (www.steptools.com) 
 */

FILE_DESCRIPTION(
/* description */ (''),
/* implementation_level */ '2;1');

FILE_NAME(
/* name */ 'Acuator Host-Join-modified-2.step',
/* time_stamp */ '2026-09-04T21:31:17+10:00',
/* author */ (''),
/* organization */ (''),
/* preprocessor_version */ 'ST-DEVELOPER v20.2',
/* originating_system */ 'Autodesk Translation Framework v15.15.0.0',
/* authorisation */ '');

FILE_SCHEMA (('AUTOMOTIVE_DESIGN { 1 0 10303 214 3 1 1 }'));
ENDSEC;

DATA;
#10=MECHANICAL_DESIGN_GEOMETRIC_PRESENTATION_REPRESENTATION('',(#13),#1594);
#11=SHAPE_REPRESENTATION_RELATIONSHIP('SRR','None',#1600,#12);
#12=ADVANCED_BREP_SHAPE_REPRESENTATION('',(#14),#1593);
#13=STYLED_ITEM('',(#1609),#14);
#14=MANIFOLD_SOLID_BREP('Body11',#832);
#15=FACE_BOUND('',#193,.T.);
#16=FACE_BOUND('',#196,.T.);
#17=FACE_BOUND('',#202,.T.);
#18=FACE_BOUND('',#203,.T.);
#19=FACE_BOUND('',#204,.T.);
#20=FACE_BOUND('',#206,.T.);
#21=FACE_BOUND('',#207,.T.);
#22=FACE_BOUND('',#208,.T.);
#23=FACE_BOUND('',#209,.T.);
#24=FACE_BOUND('',#210,.T.);
#25=FACE_BOUND('',#211,.T.);
#26=FACE_BOUND('',#212,.T.);
#27=FACE_BOUND('',#217,.T.);
#28=FACE_BOUND('',#220,.T.);
#29=FACE_BOUND('',#222,.T.);
#30=FACE_BOUND('',#225,.T.);
#31=FACE_BOUND('',#228,.T.);
#32=FACE_BOUND('',#230,.T.);
#33=PLANE('',#901);
#34=PLANE('',#903);
#35=PLANE('',#907);
#36=PLANE('',#911);
#37=PLANE('',#921);
#38=PLANE('',#930);
#39=PLANE('',#942);
#40=PLANE('',#946);
#41=PLANE('',#948);
#42=PLANE('',#951);
#43=PLANE('',#955);
#44=PLANE('',#957);
#45=LINE('',#1439,#70);
#46=LINE('',#1442,#71);
#47=LINE('',#1445,#72);
#48=LINE('',#1449,#73);
#49=LINE('',#1453,#74);
#50=LINE('',#1459,#75);
#51=LINE('',#1466,#76);
#52=LINE('',#1472,#77);
#53=LINE('',#1483,#78);
#54=LINE('',#1490,#79);
#55=LINE('',#1497,#80);
#56=LINE('',#1500,#81);
#57=LINE('',#1503,#82);
#58=LINE('',#1538,#83);
#59=LINE('',#1540,#84);
#60=LINE('',#1544,#85);
#61=LINE('',#1550,#86);
#62=LINE('',#1558,#87);
#63=LINE('',#1565,#88);
#64=LINE('',#1574,#89);
#65=LINE('',#1576,#90);
#66=LINE('',#1578,#91);
#67=LINE('',#1580,#92);
#68=LINE('',#1582,#93);
#69=LINE('',#1590,#94);
#70=VECTOR('',#1069,10.);
#71=VECTOR('',#1072,10.);
#72=VECTOR('',#1075,10.);
#73=VECTOR('',#1080,10.);
#74=VECTOR('',#1085,10.);
#75=VECTOR('',#1092,3.);
#76=VECTOR('',#1101,3.);
#77=VECTOR('',#1110,3.);
#78=VECTOR('',#1125,4.5);
#79=VECTOR('',#1134,4.5);
#80=VECTOR('',#1143,10.);
#81=VECTOR('',#1146,10.);
#82=VECTOR('',#1149,10.);
#83=VECTOR('',#1194,5.);
#84=VECTOR('',#1197,5.);
#85=VECTOR('',#1202,1.7);
#86=VECTOR('',#1209,3.);
#87=VECTOR('',#1220,3.);
#88=VECTOR('',#1229,3.);
#89=VECTOR('',#1242,1.7);
#90=VECTOR('',#1245,1.7);
#91=VECTOR('',#1248,1.7);
#92=VECTOR('',#1251,1.7);
#93=VECTOR('',#1254,1.7);
#94=VECTOR('',#1265,9.);
#95=CYLINDRICAL_SURFACE('',#882,7.);
#96=CYLINDRICAL_SURFACE('',#884,36.5);
#97=CYLINDRICAL_SURFACE('',#886,21.5);
#98=CYLINDRICAL_SURFACE('',#888,36.5);
#99=CYLINDRICAL_SURFACE('',#890,3.);
#100=CYLINDRICAL_SURFACE('',#894,3.);
#101=CYLINDRICAL_SURFACE('',#898,3.);
#102=CYLINDRICAL_SURFACE('',#905,4.5);
#103=CYLINDRICAL_SURFACE('',#909,4.5);
#104=CYLINDRICAL_SURFACE('',#913,36.5);
#105=CYLINDRICAL_SURFACE('',#915,36.5);
#106=CYLINDRICAL_SURFACE('',#917,7.);
#107=CYLINDRICAL_SURFACE('',#919,21.5);
#108=CYLINDRICAL_SURFACE('',#938,5.);
#109=CYLINDRICAL_SURFACE('',#939,5.);
#110=CYLINDRICAL_SURFACE('',#940,1.7);
#111=CYLINDRICAL_SURFACE('',#944,3.);
#112=CYLINDRICAL_SURFACE('',#949,3.);
#113=CYLINDRICAL_SURFACE('',#953,3.);
#114=CYLINDRICAL_SURFACE('',#959,1.7);
#115=CYLINDRICAL_SURFACE('',#960,1.7);
#116=CYLINDRICAL_SURFACE('',#961,1.7);
#117=CYLINDRICAL_SURFACE('',#962,1.7);
#118=CYLINDRICAL_SURFACE('',#963,1.7);
#119=CYLINDRICAL_SURFACE('',#968,9.);
#120=FACE_OUTER_BOUND('',#170,.T.);
#121=FACE_OUTER_BOUND('',#171,.T.);
#122=FACE_OUTER_BOUND('',#172,.T.);
#123=FACE_OUTER_BOUND('',#173,.T.);
#124=FACE_OUTER_BOUND('',#174,.T.);
#125=FACE_OUTER_BOUND('',#175,.T.);
#126=FACE_OUTER_BOUND('',#176,.T.);
#127=FACE_OUTER_BOUND('',#177,.T.);
#128=FACE_OUTER_BOUND('',#178,.T.);
#129=FACE_OUTER_BOUND('',#179,.T.);
#130=FACE_OUTER_BOUND('',#180,.T.);
#131=FACE_OUTER_BOUND('',#181,.T.);
#132=FACE_OUTER_BOUND('',#182,.T.);
#133=FACE_OUTER_BOUND('',#183,.T.);
#134=FACE_OUTER_BOUND('',#184,.T.);
#135=FACE_OUTER_BOUND('',#185,.T.);
#136=FACE_OUTER_BOUND('',#186,.T.);
#137=FACE_OUTER_BOUND('',#187,.T.);
#138=FACE_OUTER_BOUND('',#188,.T.);
#139=FACE_OUTER_BOUND('',#189,.T.);
#140=FACE_OUTER_BOUND('',#190,.T.);
#141=FACE_OUTER_BOUND('',#191,.T.);
#142=FACE_OUTER_BOUND('',#192,.T.);
#143=FACE_OUTER_BOUND('',#194,.T.);
#144=FACE_OUTER_BOUND('',#195,.T.);
#145=FACE_OUTER_BOUND('',#197,.T.);
#146=FACE_OUTER_BOUND('',#198,.T.);
#147=FACE_OUTER_BOUND('',#199,.T.);
#148=FACE_OUTER_BOUND('',#200,.T.);
#149=FACE_OUTER_BOUND('',#201,.T.);
#150=FACE_OUTER_BOUND('',#205,.T.);
#151=FACE_OUTER_BOUND('',#213,.T.);
#152=FACE_OUTER_BOUND('',#214,.T.);
#153=FACE_OUTER_BOUND('',#215,.T.);
#154=FACE_OUTER_BOUND('',#216,.T.);
#155=FACE_OUTER_BOUND('',#218,.T.);
#156=FACE_OUTER_BOUND('',#219,.T.);
#157=FACE_OUTER_BOUND('',#221,.T.);
#158=FACE_OUTER_BOUND('',#223,.T.);
#159=FACE_OUTER_BOUND('',#224,.T.);
#160=FACE_OUTER_BOUND('',#226,.T.);
#161=FACE_OUTER_BOUND('',#227,.T.);
#162=FACE_OUTER_BOUND('',#229,.T.);
#163=FACE_OUTER_BOUND('',#231,.T.);
#164=FACE_OUTER_BOUND('',#232,.T.);
#165=FACE_OUTER_BOUND('',#233,.T.);
#166=FACE_OUTER_BOUND('',#234,.T.);
#167=FACE_OUTER_BOUND('',#235,.T.);
#168=FACE_OUTER_BOUND('',#236,.T.);
#169=FACE_OUTER_BOUND('',#237,.T.);
#170=EDGE_LOOP('',(#529,#530,#531,#532,#533,#534));
#171=EDGE_LOOP('',(#535,#536,#537,#538,#539,#540));
#172=EDGE_LOOP('',(#541,#542,#543,#544));
#173=EDGE_LOOP('',(#545,#546,#547,#548));
#174=EDGE_LOOP('',(#549,#550,#551,#552));
#175=EDGE_LOOP('',(#553,#554,#555,#556));
#176=EDGE_LOOP('',(#557,#558,#559,#560));
#177=EDGE_LOOP('',(#561,#562,#563,#564,#565,#566));
#178=EDGE_LOOP('',(#567,#568,#569,#570,#571,#572,#573));
#179=EDGE_LOOP('',(#574,#575,#576,#577));
#180=EDGE_LOOP('',(#578,#579,#580,#581));
#181=EDGE_LOOP('',(#582,#583,#584,#585,#586));
#182=EDGE_LOOP('',(#587,#588,#589,#590));
#183=EDGE_LOOP('',(#591,#592,#593,#594));
#184=EDGE_LOOP('',(#595,#596,#597,#598,#599));
#185=EDGE_LOOP('',(#600,#601,#602,#603,#604));
#186=EDGE_LOOP('',(#605,#606,#607,#608,#609,#610));
#187=EDGE_LOOP('',(#611,#612,#613,#614,#615,#616));
#188=EDGE_LOOP('',(#617,#618,#619,#620,#621,#622,#623));
#189=EDGE_LOOP('',(#624));
#190=EDGE_LOOP('',(#625));
#191=EDGE_LOOP('',(#626,#627,#628,#629));
#192=EDGE_LOOP('',(#630));
#193=EDGE_LOOP('',(#631));
#194=EDGE_LOOP('',(#632,#633,#634,#635));
#195=EDGE_LOOP('',(#636));
#196=EDGE_LOOP('',(#637));
#197=EDGE_LOOP('',(#638,#639,#640,#641,#642));
#198=EDGE_LOOP('',(#643,#644,#645,#646));
#199=EDGE_LOOP('',(#647,#648,#649,#650));
#200=EDGE_LOOP('',(#651,#652,#653,#654,#655));
#201=EDGE_LOOP('',(#656,#657,#658,#659,#660,#661,#662,#663,#664,#665,#666,
#667,#668,#669,#670,#671,#672,#673,#674,#675,#676,#677));
#202=EDGE_LOOP('',(#678));
#203=EDGE_LOOP('',(#679));
#204=EDGE_LOOP('',(#680));
#205=EDGE_LOOP('',(#681,#682,#683,#684,#685,#686,#687,#688));
#206=EDGE_LOOP('',(#689));
#207=EDGE_LOOP('',(#690));
#208=EDGE_LOOP('',(#691));
#209=EDGE_LOOP('',(#692));
#210=EDGE_LOOP('',(#693));
#211=EDGE_LOOP('',(#694));
#212=EDGE_LOOP('',(#695));
#213=EDGE_LOOP('',(#696,#697,#698,#699));
#214=EDGE_LOOP('',(#700,#701,#702,#703));
#215=EDGE_LOOP('',(#704,#705,#706,#707));
#216=EDGE_LOOP('',(#708));
#217=EDGE_LOOP('',(#709));
#218=EDGE_LOOP('',(#710,#711,#712,#713,#714,#715,#716));
#219=EDGE_LOOP('',(#717));
#220=EDGE_LOOP('',(#718));
#221=EDGE_LOOP('',(#719));
#222=EDGE_LOOP('',(#720));
#223=EDGE_LOOP('',(#721,#722,#723,#724,#725,#726));
#224=EDGE_LOOP('',(#727));
#225=EDGE_LOOP('',(#728));
#226=EDGE_LOOP('',(#729,#730,#731,#732,#733,#734));
#227=EDGE_LOOP('',(#735));
#228=EDGE_LOOP('',(#736));
#229=EDGE_LOOP('',(#737));
#230=EDGE_LOOP('',(#738));
#231=EDGE_LOOP('',(#739,#740,#741,#742));
#232=EDGE_LOOP('',(#743,#744,#745,#746));
#233=EDGE_LOOP('',(#747,#748,#749,#750));
#234=EDGE_LOOP('',(#751,#752,#753,#754));
#235=EDGE_LOOP('',(#755,#756,#757,#758));
#236=EDGE_LOOP('',(#759,#760,#761,#762,#763));
#237=EDGE_LOOP('',(#764,#765,#766,#767,#768));
#238=CIRCLE('',#835,38.);
#239=CIRCLE('',#836,1.5);
#240=CIRCLE('',#837,36.5);
#241=CIRCLE('',#838,1.50000000000001);
#242=CIRCLE('',#839,38.);
#243=CIRCLE('',#841,20.);
#244=CIRCLE('',#842,1.5);
#245=CIRCLE('',#843,21.5);
#246=CIRCLE('',#844,20.);
#247=CIRCLE('',#846,1.50000000000001);
#248=CIRCLE('',#847,38.);
#249=CIRCLE('',#848,1.5);
#250=CIRCLE('',#849,36.5);
#251=CIRCLE('',#851,5.5);
#252=CIRCLE('',#852,7.);
#253=CIRCLE('',#854,1.5);
#254=CIRCLE('',#855,21.5);
#255=CIRCLE('',#857,1.49999999999999);
#256=CIRCLE('',#858,38.);
#257=CIRCLE('',#859,1.5);
#258=CIRCLE('',#860,36.5);
#259=CIRCLE('',#862,1.5);
#260=CIRCLE('',#863,7.);
#261=CIRCLE('',#864,5.5);
#262=CIRCLE('',#866,38.);
#263=CIRCLE('',#867,1.5);
#264=CIRCLE('',#868,36.5);
#265=CIRCLE('',#869,38.);
#266=CIRCLE('',#871,20.);
#267=CIRCLE('',#872,1.5);
#268=CIRCLE('',#873,21.5);
#269=CIRCLE('',#874,20.);
#270=CIRCLE('',#876,36.5);
#271=CIRCLE('',#878,1.5);
#272=CIRCLE('',#879,21.5);
#273=CIRCLE('',#881,36.5);
#274=CIRCLE('',#883,7.);
#275=CIRCLE('',#885,36.5);
#276=CIRCLE('',#887,21.5);
#277=CIRCLE('',#889,36.5);
#278=CIRCLE('',#891,3.);
#279=CIRCLE('',#892,3.);
#280=CIRCLE('',#893,3.);
#281=CIRCLE('',#895,3.);
#282=CIRCLE('',#896,3.);
#283=CIRCLE('',#897,3.);
#284=CIRCLE('',#899,3.);
#285=CIRCLE('',#900,3.);
#286=CIRCLE('',#902,4.5);
#287=CIRCLE('',#904,4.5);
#288=CIRCLE('',#906,4.5);
#289=CIRCLE('',#908,5.);
#290=CIRCLE('',#910,4.5);
#291=CIRCLE('',#912,5.);
#292=CIRCLE('',#914,36.5);
#293=CIRCLE('',#916,36.5);
#294=CIRCLE('',#918,7.);
#295=CIRCLE('',#920,21.5);
#296=CIRCLE('',#922,3.);
#297=CIRCLE('',#923,3.);
#298=CIRCLE('',#924,3.);
#299=CIRCLE('',#925,3.);
#300=CIRCLE('',#926,3.);
#301=CIRCLE('',#927,5.);
#302=CIRCLE('',#928,5.);
#303=CIRCLE('',#929,11.);
#304=CIRCLE('',#931,1.7);
#305=CIRCLE('',#932,1.7);
#306=CIRCLE('',#933,1.7);
#307=CIRCLE('',#934,1.7);
#308=CIRCLE('',#935,1.7);
#309=CIRCLE('',#936,9.);
#310=CIRCLE('',#937,1.7);
#311=CIRCLE('',#941,1.7);
#312=CIRCLE('',#943,1.7);
#313=CIRCLE('',#945,3.);
#314=CIRCLE('',#947,1.7);
#315=CIRCLE('',#950,3.);
#316=CIRCLE('',#952,1.7);
#317=CIRCLE('',#954,3.);
#318=CIRCLE('',#956,1.7);
#319=CIRCLE('',#958,1.7);
#320=CIRCLE('',#965,2.);
#321=CIRCLE('',#966,9.);
#322=CIRCLE('',#967,9.);
#323=B_SPLINE_CURVE_WITH_KNOTS('',3,(#1270,#1271,#1272,#1273,#1274,#1275,
#1276,#1277,#1278,#1279),.UNSPECIFIED.,.F.,.F.,(4,2,2,2,4),(1.65646276768788,
1.73626471602917,1.84973342974546,1.95322556871023,1.9854904454228),
 .UNSPECIFIED.);
#324=B_SPLINE_CURVE_WITH_KNOTS('',3,(#1292,#1293,#1294,#1295,#1296,#1297,
#1298,#1299,#1300,#1301,#1302,#1303,#1304,#1305),.UNSPECIFIED.,.F.,.F.,
(4,2,2,2,2,2,4),(1.65695500705828,1.72752048632826,1.83048708930897,1.91062019679279,
1.98346842459208,2.06210029201042,2.14557851264536),.UNSPECIFIED.);
#325=B_SPLINE_CURVE_WITH_KNOTS('',3,(#1326,#1327,#1328,#1329),
 .UNSPECIFIED.,.F.,.F.,(4,4),(1.88711309779214,1.8938992147163),
 .UNSPECIFIED.);
#326=B_SPLINE_CURVE_WITH_KNOTS('',3,(#1351,#1352,#1353,#1354,#1355,#1356,
#1357,#1358,#1359,#1360),.UNSPECIFIED.,.F.,.F.,(4,2,2,2,4),(1.6564627703458,
1.73626471913207,1.84973343304182,1.95322557207668,1.98549044836677),
 .UNSPECIFIED.);
#327=B_SPLINE_CURVE_WITH_KNOTS('',3,(#1370,#1371,#1372,#1373,#1374,#1375,
#1376,#1377,#1378,#1379,#1380,#1381),.UNSPECIFIED.,.F.,.F.,(4,2,2,2,2,4),
(2.1895472782008,2.26758226305546,2.36742215935958,2.45947813715031,2.55489119265334,
2.60112584886891),.UNSPECIFIED.);
#328=B_SPLINE_CURVE_WITH_KNOTS('',3,(#1383,#1384,#1385,#1386,#1387,#1388),
 .UNSPECIFIED.,.F.,.F.,(4,2,4),(2.60112584886891,2.68009406735386,2.72273338453629),
 .UNSPECIFIED.);
#329=B_SPLINE_CURVE_WITH_KNOTS('',3,(#1396,#1397,#1398,#1399,#1400,#1401,
#1402,#1403,#1404,#1405,#1406,#1407),.UNSPECIFIED.,.F.,.F.,(4,2,2,2,2,4),
(2.07182050923862,2.19669775208931,2.38476088284617,2.50542194233396,2.61620925185497,
2.65824033093109),.UNSPECIFIED.);
#330=B_SPLINE_CURVE_WITH_KNOTS('',3,(#1411,#1412,#1413,#1414),
 .UNSPECIFIED.,.F.,.F.,(4,4),(2.00597400300842,2.01101836873325),
 .UNSPECIFIED.);
#331=B_SPLINE_CURVE_WITH_KNOTS('',3,(#1420,#1421,#1422,#1423,#1424,#1425),
 .UNSPECIFIED.,.F.,.F.,(4,2,4),(0.0050471568541675,0.0812103657667951,0.114583048513644),
 .UNSPECIFIED.);
#332=B_SPLINE_CURVE_WITH_KNOTS('',3,(#1426,#1427,#1428,#1429,#1430,#1431,
#1432,#1433,#1434,#1435),.UNSPECIFIED.,.F.,.F.,(4,2,2,2,4),(0.114583048513644,
0.191617756454227,0.255835838343603,0.315011137940073,0.333930921622182),
 .UNSPECIFIED.);
#333=VERTEX_POINT('',#1268);
#334=VERTEX_POINT('',#1269);
#335=VERTEX_POINT('',#1280);
#336=VERTEX_POINT('',#1282);
#337=VERTEX_POINT('',#1284);
#338=VERTEX_POINT('',#1286);
#339=VERTEX_POINT('',#1290);
#340=VERTEX_POINT('',#1291);
#341=VERTEX_POINT('',#1306);
#342=VERTEX_POINT('',#1308);
#343=VERTEX_POINT('',#1313);
#344=VERTEX_POINT('',#1314);
#345=VERTEX_POINT('',#1316);
#346=VERTEX_POINT('',#1318);
#347=VERTEX_POINT('',#1325);
#348=VERTEX_POINT('',#1330);
#349=VERTEX_POINT('',#1334);
#350=VERTEX_POINT('',#1335);
#351=VERTEX_POINT('',#1337);
#352=VERTEX_POINT('',#1339);
#353=VERTEX_POINT('',#1343);
#354=VERTEX_POINT('',#1344);
#355=VERTEX_POINT('',#1349);
#356=VERTEX_POINT('',#1350);
#357=VERTEX_POINT('',#1361);
#358=VERTEX_POINT('',#1363);
#359=VERTEX_POINT('',#1368);
#360=VERTEX_POINT('',#1369);
#361=VERTEX_POINT('',#1382);
#362=VERTEX_POINT('',#1389);
#363=VERTEX_POINT('',#1391);
#364=VERTEX_POINT('',#1410);
#365=VERTEX_POINT('',#1415);
#366=VERTEX_POINT('',#1419);
#367=VERTEX_POINT('',#1438);
#368=VERTEX_POINT('',#1440);
#369=VERTEX_POINT('',#1444);
#370=VERTEX_POINT('',#1448);
#371=VERTEX_POINT('',#1452);
#372=VERTEX_POINT('',#1456);
#373=VERTEX_POINT('',#1458);
#374=VERTEX_POINT('',#1463);
#375=VERTEX_POINT('',#1465);
#376=VERTEX_POINT('',#1471);
#377=VERTEX_POINT('',#1475);
#378=VERTEX_POINT('',#1478);
#379=VERTEX_POINT('',#1481);
#380=VERTEX_POINT('',#1485);
#381=VERTEX_POINT('',#1488);
#382=VERTEX_POINT('',#1492);
#383=VERTEX_POINT('',#1495);
#384=VERTEX_POINT('',#1499);
#385=VERTEX_POINT('',#1501);
#386=VERTEX_POINT('',#1510);
#387=VERTEX_POINT('',#1513);
#388=VERTEX_POINT('',#1516);
#389=VERTEX_POINT('',#1518);
#390=VERTEX_POINT('',#1520);
#391=VERTEX_POINT('',#1523);
#392=VERTEX_POINT('',#1525);
#393=VERTEX_POINT('',#1527);
#394=VERTEX_POINT('',#1529);
#395=VERTEX_POINT('',#1531);
#396=VERTEX_POINT('',#1533);
#397=VERTEX_POINT('',#1535);
#398=VERTEX_POINT('',#1542);
#399=VERTEX_POINT('',#1546);
#400=VERTEX_POINT('',#1549);
#401=VERTEX_POINT('',#1553);
#402=VERTEX_POINT('',#1557);
#403=VERTEX_POINT('',#1561);
#404=VERTEX_POINT('',#1564);
#405=VERTEX_POINT('',#1568);
#406=VERTEX_POINT('',#1571);
#407=VERTEX_POINT('',#1584);
#408=VERTEX_POINT('',#1586);
#409=EDGE_CURVE('',#333,#334,#323,.T.);
#410=EDGE_CURVE('',#334,#335,#238,.T.);
#411=EDGE_CURVE('',#335,#336,#239,.T.);
#412=EDGE_CURVE('',#336,#337,#240,.T.);
#413=EDGE_CURVE('',#337,#338,#241,.T.);
#414=EDGE_CURVE('',#338,#333,#242,.T.);
#415=EDGE_CURVE('',#339,#340,#324,.T.);
#416=EDGE_CURVE('',#340,#341,#243,.T.);
#417=EDGE_CURVE('',#341,#342,#244,.T.);
#418=EDGE_CURVE('',#342,#336,#245,.T.);
#419=EDGE_CURVE('',#335,#339,#246,.T.);
#420=EDGE_CURVE('',#343,#344,#247,.T.);
#421=EDGE_CURVE('',#344,#345,#248,.T.);
#422=EDGE_CURVE('',#345,#346,#249,.T.);
#423=EDGE_CURVE('',#346,#343,#250,.T.);
#424=EDGE_CURVE('',#345,#338,#251,.T.);
#425=EDGE_CURVE('',#337,#346,#252,.T.);
#426=EDGE_CURVE('',#341,#347,#325,.T.);
#427=EDGE_CURVE('',#347,#348,#253,.T.);
#428=EDGE_CURVE('',#348,#342,#254,.T.);
#429=EDGE_CURVE('',#349,#350,#255,.T.);
#430=EDGE_CURVE('',#350,#351,#256,.T.);
#431=EDGE_CURVE('',#351,#352,#257,.T.);
#432=EDGE_CURVE('',#352,#349,#258,.T.);
#433=EDGE_CURVE('',#353,#354,#259,.T.);
#434=EDGE_CURVE('',#354,#352,#260,.T.);
#435=EDGE_CURVE('',#351,#353,#261,.T.);
#436=EDGE_CURVE('',#355,#356,#326,.T.);
#437=EDGE_CURVE('',#356,#357,#262,.T.);
#438=EDGE_CURVE('',#357,#358,#263,.T.);
#439=EDGE_CURVE('',#358,#354,#264,.T.);
#440=EDGE_CURVE('',#353,#355,#265,.T.);
#441=EDGE_CURVE('',#359,#360,#327,.T.);
#442=EDGE_CURVE('',#360,#361,#328,.T.);
#443=EDGE_CURVE('',#361,#362,#266,.T.);
#444=EDGE_CURVE('',#362,#363,#267,.T.);
#445=EDGE_CURVE('',#363,#358,#268,.T.);
#446=EDGE_CURVE('',#357,#359,#269,.T.);
#447=EDGE_CURVE('',#347,#350,#329,.T.);
#448=EDGE_CURVE('',#349,#348,#270,.T.);
#449=EDGE_CURVE('',#362,#364,#330,.T.);
#450=EDGE_CURVE('',#364,#365,#271,.T.);
#451=EDGE_CURVE('',#365,#363,#272,.T.);
#452=EDGE_CURVE('',#364,#366,#331,.T.);
#453=EDGE_CURVE('',#366,#344,#332,.T.);
#454=EDGE_CURVE('',#343,#365,#273,.T.);
#455=EDGE_CURVE('',#367,#337,#45,.T.);
#456=EDGE_CURVE('',#368,#367,#274,.T.);
#457=EDGE_CURVE('',#346,#368,#46,.T.);
#458=EDGE_CURVE('',#336,#369,#47,.T.);
#459=EDGE_CURVE('',#369,#367,#275,.T.);
#460=EDGE_CURVE('',#370,#348,#48,.T.);
#461=EDGE_CURVE('',#369,#370,#276,.T.);
#462=EDGE_CURVE('',#352,#371,#49,.T.);
#463=EDGE_CURVE('',#371,#370,#277,.T.);
#464=EDGE_CURVE('',#372,#339,#278,.T.);
#465=EDGE_CURVE('',#372,#373,#50,.T.);
#466=EDGE_CURVE('',#373,#373,#279,.T.);
#467=EDGE_CURVE('',#340,#372,#280,.T.);
#468=EDGE_CURVE('',#374,#333,#281,.T.);
#469=EDGE_CURVE('',#374,#375,#51,.T.);
#470=EDGE_CURVE('',#375,#375,#282,.T.);
#471=EDGE_CURVE('',#334,#374,#283,.T.);
#472=EDGE_CURVE('',#344,#362,#284,.T.);
#473=EDGE_CURVE('',#366,#376,#52,.T.);
#474=EDGE_CURVE('',#376,#376,#285,.T.);
#475=EDGE_CURVE('',#377,#377,#286,.T.);
#476=EDGE_CURVE('',#378,#378,#287,.T.);
#477=EDGE_CURVE('',#379,#379,#288,.T.);
#478=EDGE_CURVE('',#379,#378,#53,.T.);
#479=EDGE_CURVE('',#380,#380,#289,.T.);
#480=EDGE_CURVE('',#381,#381,#290,.T.);
#481=EDGE_CURVE('',#381,#377,#54,.T.);
#482=EDGE_CURVE('',#382,#382,#291,.T.);
#483=EDGE_CURVE('',#368,#383,#292,.T.);
#484=EDGE_CURVE('',#383,#365,#55,.T.);
#485=EDGE_CURVE('',#358,#384,#56,.T.);
#486=EDGE_CURVE('',#384,#385,#293,.T.);
#487=EDGE_CURVE('',#385,#354,#57,.T.);
#488=EDGE_CURVE('',#371,#385,#294,.T.);
#489=EDGE_CURVE('',#384,#383,#295,.T.);
#490=EDGE_CURVE('',#361,#359,#296,.T.);
#491=EDGE_CURVE('',#356,#386,#297,.T.);
#492=EDGE_CURVE('',#386,#355,#298,.T.);
#493=EDGE_CURVE('',#350,#387,#299,.T.);
#494=EDGE_CURVE('',#387,#341,#300,.T.);
#495=EDGE_CURVE('',#388,#388,#301,.T.);
#496=EDGE_CURVE('',#389,#389,#302,.T.);
#497=EDGE_CURVE('',#390,#390,#303,.T.);
#498=EDGE_CURVE('',#391,#391,#304,.T.);
#499=EDGE_CURVE('',#392,#392,#305,.T.);
#500=EDGE_CURVE('',#393,#393,#306,.T.);
#501=EDGE_CURVE('',#394,#394,#307,.T.);
#502=EDGE_CURVE('',#395,#395,#308,.T.);
#503=EDGE_CURVE('',#396,#396,#309,.T.);
#504=EDGE_CURVE('',#397,#397,#310,.T.);
#505=EDGE_CURVE('',#388,#382,#58,.T.);
#506=EDGE_CURVE('',#389,#380,#59,.T.);
#507=EDGE_CURVE('',#398,#398,#311,.T.);
#508=EDGE_CURVE('',#398,#397,#60,.T.);
#509=EDGE_CURVE('',#399,#399,#312,.T.);
#510=EDGE_CURVE('',#387,#400,#61,.T.);
#511=EDGE_CURVE('',#400,#400,#313,.T.);
#512=EDGE_CURVE('',#401,#401,#314,.T.);
#513=EDGE_CURVE('',#360,#402,#62,.T.);
#514=EDGE_CURVE('',#402,#402,#315,.T.);
#515=EDGE_CURVE('',#403,#403,#316,.T.);
#516=EDGE_CURVE('',#386,#404,#63,.T.);
#517=EDGE_CURVE('',#404,#404,#317,.T.);
#518=EDGE_CURVE('',#405,#405,#318,.T.);
#519=EDGE_CURVE('',#406,#406,#319,.T.);
#520=EDGE_CURVE('',#399,#391,#64,.T.);
#521=EDGE_CURVE('',#403,#392,#65,.T.);
#522=EDGE_CURVE('',#406,#393,#66,.T.);
#523=EDGE_CURVE('',#405,#394,#67,.T.);
#524=EDGE_CURVE('',#401,#395,#68,.T.);
#525=EDGE_CURVE('',#390,#407,#320,.T.);
#526=EDGE_CURVE('',#407,#408,#321,.T.);
#527=EDGE_CURVE('',#408,#407,#322,.T.);
#528=EDGE_CURVE('',#396,#408,#69,.T.);
#529=ORIENTED_EDGE('',*,*,#409,.T.);
#530=ORIENTED_EDGE('',*,*,#410,.T.);
#531=ORIENTED_EDGE('',*,*,#411,.T.);
#532=ORIENTED_EDGE('',*,*,#412,.T.);
#533=ORIENTED_EDGE('',*,*,#413,.T.);
#534=ORIENTED_EDGE('',*,*,#414,.T.);
#535=ORIENTED_EDGE('',*,*,#415,.T.);
#536=ORIENTED_EDGE('',*,*,#416,.T.);
#537=ORIENTED_EDGE('',*,*,#417,.T.);
#538=ORIENTED_EDGE('',*,*,#418,.T.);
#539=ORIENTED_EDGE('',*,*,#411,.F.);
#540=ORIENTED_EDGE('',*,*,#419,.T.);
#541=ORIENTED_EDGE('',*,*,#420,.T.);
#542=ORIENTED_EDGE('',*,*,#421,.T.);
#543=ORIENTED_EDGE('',*,*,#422,.T.);
#544=ORIENTED_EDGE('',*,*,#423,.T.);
#545=ORIENTED_EDGE('',*,*,#422,.F.);
#546=ORIENTED_EDGE('',*,*,#424,.T.);
#547=ORIENTED_EDGE('',*,*,#413,.F.);
#548=ORIENTED_EDGE('',*,*,#425,.T.);
#549=ORIENTED_EDGE('',*,*,#426,.T.);
#550=ORIENTED_EDGE('',*,*,#427,.T.);
#551=ORIENTED_EDGE('',*,*,#428,.T.);
#552=ORIENTED_EDGE('',*,*,#417,.F.);
#553=ORIENTED_EDGE('',*,*,#429,.T.);
#554=ORIENTED_EDGE('',*,*,#430,.T.);
#555=ORIENTED_EDGE('',*,*,#431,.T.);
#556=ORIENTED_EDGE('',*,*,#432,.T.);
#557=ORIENTED_EDGE('',*,*,#433,.T.);
#558=ORIENTED_EDGE('',*,*,#434,.T.);
#559=ORIENTED_EDGE('',*,*,#431,.F.);
#560=ORIENTED_EDGE('',*,*,#435,.T.);
#561=ORIENTED_EDGE('',*,*,#436,.T.);
#562=ORIENTED_EDGE('',*,*,#437,.T.);
#563=ORIENTED_EDGE('',*,*,#438,.T.);
#564=ORIENTED_EDGE('',*,*,#439,.T.);
#565=ORIENTED_EDGE('',*,*,#433,.F.);
#566=ORIENTED_EDGE('',*,*,#440,.T.);
#567=ORIENTED_EDGE('',*,*,#441,.T.);
#568=ORIENTED_EDGE('',*,*,#442,.T.);
#569=ORIENTED_EDGE('',*,*,#443,.T.);
#570=ORIENTED_EDGE('',*,*,#444,.T.);
#571=ORIENTED_EDGE('',*,*,#445,.T.);
#572=ORIENTED_EDGE('',*,*,#438,.F.);
#573=ORIENTED_EDGE('',*,*,#446,.T.);
#574=ORIENTED_EDGE('',*,*,#447,.T.);
#575=ORIENTED_EDGE('',*,*,#429,.F.);
#576=ORIENTED_EDGE('',*,*,#448,.T.);
#577=ORIENTED_EDGE('',*,*,#427,.F.);
#578=ORIENTED_EDGE('',*,*,#449,.T.);
#579=ORIENTED_EDGE('',*,*,#450,.T.);
#580=ORIENTED_EDGE('',*,*,#451,.T.);
#581=ORIENTED_EDGE('',*,*,#444,.F.);
#582=ORIENTED_EDGE('',*,*,#452,.T.);
#583=ORIENTED_EDGE('',*,*,#453,.T.);
#584=ORIENTED_EDGE('',*,*,#420,.F.);
#585=ORIENTED_EDGE('',*,*,#454,.T.);
#586=ORIENTED_EDGE('',*,*,#450,.F.);
#587=ORIENTED_EDGE('',*,*,#425,.F.);
#588=ORIENTED_EDGE('',*,*,#455,.F.);
#589=ORIENTED_EDGE('',*,*,#456,.F.);
#590=ORIENTED_EDGE('',*,*,#457,.F.);
#591=ORIENTED_EDGE('',*,*,#412,.F.);
#592=ORIENTED_EDGE('',*,*,#458,.T.);
#593=ORIENTED_EDGE('',*,*,#459,.T.);
#594=ORIENTED_EDGE('',*,*,#455,.T.);
#595=ORIENTED_EDGE('',*,*,#418,.F.);
#596=ORIENTED_EDGE('',*,*,#428,.F.);
#597=ORIENTED_EDGE('',*,*,#460,.F.);
#598=ORIENTED_EDGE('',*,*,#461,.F.);
#599=ORIENTED_EDGE('',*,*,#458,.F.);
#600=ORIENTED_EDGE('',*,*,#448,.F.);
#601=ORIENTED_EDGE('',*,*,#432,.F.);
#602=ORIENTED_EDGE('',*,*,#462,.T.);
#603=ORIENTED_EDGE('',*,*,#463,.T.);
#604=ORIENTED_EDGE('',*,*,#460,.T.);
#605=ORIENTED_EDGE('',*,*,#415,.F.);
#606=ORIENTED_EDGE('',*,*,#464,.F.);
#607=ORIENTED_EDGE('',*,*,#465,.T.);
#608=ORIENTED_EDGE('',*,*,#466,.T.);
#609=ORIENTED_EDGE('',*,*,#465,.F.);
#610=ORIENTED_EDGE('',*,*,#467,.F.);
#611=ORIENTED_EDGE('',*,*,#409,.F.);
#612=ORIENTED_EDGE('',*,*,#468,.F.);
#613=ORIENTED_EDGE('',*,*,#469,.T.);
#614=ORIENTED_EDGE('',*,*,#470,.T.);
#615=ORIENTED_EDGE('',*,*,#469,.F.);
#616=ORIENTED_EDGE('',*,*,#471,.F.);
#617=ORIENTED_EDGE('',*,*,#452,.F.);
#618=ORIENTED_EDGE('',*,*,#449,.F.);
#619=ORIENTED_EDGE('',*,*,#472,.F.);
#620=ORIENTED_EDGE('',*,*,#453,.F.);
#621=ORIENTED_EDGE('',*,*,#473,.T.);
#622=ORIENTED_EDGE('',*,*,#474,.T.);
#623=ORIENTED_EDGE('',*,*,#473,.F.);
#624=ORIENTED_EDGE('',*,*,#475,.F.);
#625=ORIENTED_EDGE('',*,*,#476,.F.);
#626=ORIENTED_EDGE('',*,*,#477,.F.);
#627=ORIENTED_EDGE('',*,*,#478,.T.);
#628=ORIENTED_EDGE('',*,*,#476,.T.);
#629=ORIENTED_EDGE('',*,*,#478,.F.);
#630=ORIENTED_EDGE('',*,*,#479,.F.);
#631=ORIENTED_EDGE('',*,*,#477,.T.);
#632=ORIENTED_EDGE('',*,*,#480,.F.);
#633=ORIENTED_EDGE('',*,*,#481,.T.);
#634=ORIENTED_EDGE('',*,*,#475,.T.);
#635=ORIENTED_EDGE('',*,*,#481,.F.);
#636=ORIENTED_EDGE('',*,*,#482,.F.);
#637=ORIENTED_EDGE('',*,*,#480,.T.);
#638=ORIENTED_EDGE('',*,*,#423,.F.);
#639=ORIENTED_EDGE('',*,*,#457,.T.);
#640=ORIENTED_EDGE('',*,*,#483,.T.);
#641=ORIENTED_EDGE('',*,*,#484,.T.);
#642=ORIENTED_EDGE('',*,*,#454,.F.);
#643=ORIENTED_EDGE('',*,*,#439,.F.);
#644=ORIENTED_EDGE('',*,*,#485,.T.);
#645=ORIENTED_EDGE('',*,*,#486,.T.);
#646=ORIENTED_EDGE('',*,*,#487,.T.);
#647=ORIENTED_EDGE('',*,*,#434,.F.);
#648=ORIENTED_EDGE('',*,*,#487,.F.);
#649=ORIENTED_EDGE('',*,*,#488,.F.);
#650=ORIENTED_EDGE('',*,*,#462,.F.);
#651=ORIENTED_EDGE('',*,*,#451,.F.);
#652=ORIENTED_EDGE('',*,*,#484,.F.);
#653=ORIENTED_EDGE('',*,*,#489,.F.);
#654=ORIENTED_EDGE('',*,*,#485,.F.);
#655=ORIENTED_EDGE('',*,*,#445,.F.);
#656=ORIENTED_EDGE('',*,*,#416,.F.);
#657=ORIENTED_EDGE('',*,*,#467,.T.);
#658=ORIENTED_EDGE('',*,*,#464,.T.);
#659=ORIENTED_EDGE('',*,*,#419,.F.);
#660=ORIENTED_EDGE('',*,*,#410,.F.);
#661=ORIENTED_EDGE('',*,*,#471,.T.);
#662=ORIENTED_EDGE('',*,*,#468,.T.);
#663=ORIENTED_EDGE('',*,*,#414,.F.);
#664=ORIENTED_EDGE('',*,*,#424,.F.);
#665=ORIENTED_EDGE('',*,*,#421,.F.);
#666=ORIENTED_EDGE('',*,*,#472,.T.);
#667=ORIENTED_EDGE('',*,*,#443,.F.);
#668=ORIENTED_EDGE('',*,*,#490,.T.);
#669=ORIENTED_EDGE('',*,*,#446,.F.);
#670=ORIENTED_EDGE('',*,*,#437,.F.);
#671=ORIENTED_EDGE('',*,*,#491,.T.);
#672=ORIENTED_EDGE('',*,*,#492,.T.);
#673=ORIENTED_EDGE('',*,*,#440,.F.);
#674=ORIENTED_EDGE('',*,*,#435,.F.);
#675=ORIENTED_EDGE('',*,*,#430,.F.);
#676=ORIENTED_EDGE('',*,*,#493,.T.);
#677=ORIENTED_EDGE('',*,*,#494,.T.);
#678=ORIENTED_EDGE('',*,*,#495,.T.);
#679=ORIENTED_EDGE('',*,*,#496,.T.);
#680=ORIENTED_EDGE('',*,*,#497,.F.);
#681=ORIENTED_EDGE('',*,*,#489,.T.);
#682=ORIENTED_EDGE('',*,*,#483,.F.);
#683=ORIENTED_EDGE('',*,*,#456,.T.);
#684=ORIENTED_EDGE('',*,*,#459,.F.);
#685=ORIENTED_EDGE('',*,*,#461,.T.);
#686=ORIENTED_EDGE('',*,*,#463,.F.);
#687=ORIENTED_EDGE('',*,*,#488,.T.);
#688=ORIENTED_EDGE('',*,*,#486,.F.);
#689=ORIENTED_EDGE('',*,*,#498,.T.);
#690=ORIENTED_EDGE('',*,*,#499,.T.);
#691=ORIENTED_EDGE('',*,*,#500,.T.);
#692=ORIENTED_EDGE('',*,*,#501,.T.);
#693=ORIENTED_EDGE('',*,*,#502,.T.);
#694=ORIENTED_EDGE('',*,*,#503,.T.);
#695=ORIENTED_EDGE('',*,*,#504,.T.);
#696=ORIENTED_EDGE('',*,*,#495,.F.);
#697=ORIENTED_EDGE('',*,*,#505,.T.);
#698=ORIENTED_EDGE('',*,*,#482,.T.);
#699=ORIENTED_EDGE('',*,*,#505,.F.);
#700=ORIENTED_EDGE('',*,*,#496,.F.);
#701=ORIENTED_EDGE('',*,*,#506,.T.);
#702=ORIENTED_EDGE('',*,*,#479,.T.);
#703=ORIENTED_EDGE('',*,*,#506,.F.);
#704=ORIENTED_EDGE('',*,*,#507,.T.);
#705=ORIENTED_EDGE('',*,*,#508,.T.);
#706=ORIENTED_EDGE('',*,*,#504,.F.);
#707=ORIENTED_EDGE('',*,*,#508,.F.);
#708=ORIENTED_EDGE('',*,*,#474,.F.);
#709=ORIENTED_EDGE('',*,*,#509,.F.);
#710=ORIENTED_EDGE('',*,*,#426,.F.);
#711=ORIENTED_EDGE('',*,*,#494,.F.);
#712=ORIENTED_EDGE('',*,*,#510,.T.);
#713=ORIENTED_EDGE('',*,*,#511,.T.);
#714=ORIENTED_EDGE('',*,*,#510,.F.);
#715=ORIENTED_EDGE('',*,*,#493,.F.);
#716=ORIENTED_EDGE('',*,*,#447,.F.);
#717=ORIENTED_EDGE('',*,*,#511,.F.);
#718=ORIENTED_EDGE('',*,*,#512,.F.);
#719=ORIENTED_EDGE('',*,*,#470,.F.);
#720=ORIENTED_EDGE('',*,*,#507,.F.);
#721=ORIENTED_EDGE('',*,*,#441,.F.);
#722=ORIENTED_EDGE('',*,*,#490,.F.);
#723=ORIENTED_EDGE('',*,*,#442,.F.);
#724=ORIENTED_EDGE('',*,*,#513,.T.);
#725=ORIENTED_EDGE('',*,*,#514,.T.);
#726=ORIENTED_EDGE('',*,*,#513,.F.);
#727=ORIENTED_EDGE('',*,*,#514,.F.);
#728=ORIENTED_EDGE('',*,*,#515,.F.);
#729=ORIENTED_EDGE('',*,*,#436,.F.);
#730=ORIENTED_EDGE('',*,*,#492,.F.);
#731=ORIENTED_EDGE('',*,*,#516,.T.);
#732=ORIENTED_EDGE('',*,*,#517,.T.);
#733=ORIENTED_EDGE('',*,*,#516,.F.);
#734=ORIENTED_EDGE('',*,*,#491,.F.);
#735=ORIENTED_EDGE('',*,*,#517,.F.);
#736=ORIENTED_EDGE('',*,*,#518,.F.);
#737=ORIENTED_EDGE('',*,*,#466,.F.);
#738=ORIENTED_EDGE('',*,*,#519,.F.);
#739=ORIENTED_EDGE('',*,*,#509,.T.);
#740=ORIENTED_EDGE('',*,*,#520,.T.);
#741=ORIENTED_EDGE('',*,*,#498,.F.);
#742=ORIENTED_EDGE('',*,*,#520,.F.);
#743=ORIENTED_EDGE('',*,*,#515,.T.);
#744=ORIENTED_EDGE('',*,*,#521,.T.);
#745=ORIENTED_EDGE('',*,*,#499,.F.);
#746=ORIENTED_EDGE('',*,*,#521,.F.);
#747=ORIENTED_EDGE('',*,*,#519,.T.);
#748=ORIENTED_EDGE('',*,*,#522,.T.);
#749=ORIENTED_EDGE('',*,*,#500,.F.);
#750=ORIENTED_EDGE('',*,*,#522,.F.);
#751=ORIENTED_EDGE('',*,*,#518,.T.);
#752=ORIENTED_EDGE('',*,*,#523,.T.);
#753=ORIENTED_EDGE('',*,*,#501,.F.);
#754=ORIENTED_EDGE('',*,*,#523,.F.);
#755=ORIENTED_EDGE('',*,*,#512,.T.);
#756=ORIENTED_EDGE('',*,*,#524,.T.);
#757=ORIENTED_EDGE('',*,*,#502,.F.);
#758=ORIENTED_EDGE('',*,*,#524,.F.);
#759=ORIENTED_EDGE('',*,*,#497,.T.);
#760=ORIENTED_EDGE('',*,*,#525,.T.);
#761=ORIENTED_EDGE('',*,*,#526,.T.);
#762=ORIENTED_EDGE('',*,*,#527,.T.);
#763=ORIENTED_EDGE('',*,*,#525,.F.);
#764=ORIENTED_EDGE('',*,*,#503,.F.);
#765=ORIENTED_EDGE('',*,*,#528,.T.);
#766=ORIENTED_EDGE('',*,*,#526,.F.);
#767=ORIENTED_EDGE('',*,*,#527,.F.);
#768=ORIENTED_EDGE('',*,*,#528,.F.);
#769=TOROIDAL_SURFACE('',#834,38.,1.5);
#770=TOROIDAL_SURFACE('',#840,20.,1.5);
#771=TOROIDAL_SURFACE('',#845,38.,1.5);
#772=TOROIDAL_SURFACE('',#850,5.5,1.5);
#773=TOROIDAL_SURFACE('',#853,20.,1.5);
#774=TOROIDAL_SURFACE('',#856,38.,1.5);
#775=TOROIDAL_SURFACE('',#861,5.5,1.5);
#776=TOROIDAL_SURFACE('',#865,38.,1.5);
#777=TOROIDAL_SURFACE('',#870,20.,1.5);
#778=TOROIDAL_SURFACE('',#875,38.,1.5);
#779=TOROIDAL_SURFACE('',#877,20.,1.5);
#780=TOROIDAL_SURFACE('',#880,38.,1.5);
#781=TOROIDAL_SURFACE('',#964,11.,2.);
#782=ADVANCED_FACE('',(#120),#769,.T.);
#783=ADVANCED_FACE('',(#121),#770,.T.);
#784=ADVANCED_FACE('',(#122),#771,.T.);
#785=ADVANCED_FACE('',(#123),#772,.T.);
#786=ADVANCED_FACE('',(#124),#773,.T.);
#787=ADVANCED_FACE('',(#125),#774,.T.);
#788=ADVANCED_FACE('',(#126),#775,.T.);
#789=ADVANCED_FACE('',(#127),#776,.T.);
#790=ADVANCED_FACE('',(#128),#777,.T.);
#791=ADVANCED_FACE('',(#129),#778,.T.);
#792=ADVANCED_FACE('',(#130),#779,.T.);
#793=ADVANCED_FACE('',(#131),#780,.T.);
#794=ADVANCED_FACE('',(#132),#95,.T.);
#795=ADVANCED_FACE('',(#133),#96,.F.);
#796=ADVANCED_FACE('',(#134),#97,.T.);
#797=ADVANCED_FACE('',(#135),#98,.F.);
#798=ADVANCED_FACE('',(#136),#99,.F.);
#799=ADVANCED_FACE('',(#137),#100,.F.);
#800=ADVANCED_FACE('',(#138),#101,.F.);
#801=ADVANCED_FACE('',(#139),#33,.F.);
#802=ADVANCED_FACE('',(#140),#34,.F.);
#803=ADVANCED_FACE('',(#141),#102,.F.);
#804=ADVANCED_FACE('',(#142,#15),#35,.F.);
#805=ADVANCED_FACE('',(#143),#103,.F.);
#806=ADVANCED_FACE('',(#144,#16),#36,.F.);
#807=ADVANCED_FACE('',(#145),#104,.F.);
#808=ADVANCED_FACE('',(#146),#105,.F.);
#809=ADVANCED_FACE('',(#147),#106,.T.);
#810=ADVANCED_FACE('',(#148),#107,.T.);
#811=ADVANCED_FACE('',(#149,#17,#18,#19),#37,.T.);
#812=ADVANCED_FACE('',(#150,#20,#21,#22,#23,#24,#25,#26),#38,.F.);
#813=ADVANCED_FACE('',(#151),#108,.F.);
#814=ADVANCED_FACE('',(#152),#109,.F.);
#815=ADVANCED_FACE('',(#153),#110,.F.);
#816=ADVANCED_FACE('',(#154,#27),#39,.T.);
#817=ADVANCED_FACE('',(#155),#111,.F.);
#818=ADVANCED_FACE('',(#156,#28),#40,.T.);
#819=ADVANCED_FACE('',(#157,#29),#41,.T.);
#820=ADVANCED_FACE('',(#158),#112,.F.);
#821=ADVANCED_FACE('',(#159,#30),#42,.T.);
#822=ADVANCED_FACE('',(#160),#113,.F.);
#823=ADVANCED_FACE('',(#161,#31),#43,.T.);
#824=ADVANCED_FACE('',(#162,#32),#44,.T.);
#825=ADVANCED_FACE('',(#163),#114,.F.);
#826=ADVANCED_FACE('',(#164),#115,.F.);
#827=ADVANCED_FACE('',(#165),#116,.F.);
#828=ADVANCED_FACE('',(#166),#117,.F.);
#829=ADVANCED_FACE('',(#167),#118,.F.);
#830=ADVANCED_FACE('',(#168),#781,.T.);
#831=ADVANCED_FACE('',(#169),#119,.F.);
#832=CLOSED_SHELL('',(#782,#783,#784,#785,#786,#787,#788,#789,#790,#791,
#792,#793,#794,#795,#796,#797,#798,#799,#800,#801,#802,#803,#804,#805,#806,
#807,#808,#809,#810,#811,#812,#813,#814,#815,#816,#817,#818,#819,#820,#821,
#822,#823,#824,#825,#826,#827,#828,#829,#830,#831));
#833=AXIS2_PLACEMENT_3D('',#1266,#969,#970);
#834=AXIS2_PLACEMENT_3D('',#1267,#971,#972);
#835=AXIS2_PLACEMENT_3D('',#1281,#973,#974);
#836=AXIS2_PLACEMENT_3D('',#1283,#975,#976);
#837=AXIS2_PLACEMENT_3D('',#1285,#977,#978);
#838=AXIS2_PLACEMENT_3D('',#1287,#979,#980);
#839=AXIS2_PLACEMENT_3D('',#1288,#981,#982);
#840=AXIS2_PLACEMENT_3D('',#1289,#983,#984);
#841=AXIS2_PLACEMENT_3D('',#1307,#985,#986);
#842=AXIS2_PLACEMENT_3D('',#1309,#987,#988);
#843=AXIS2_PLACEMENT_3D('',#1310,#989,#990);
#844=AXIS2_PLACEMENT_3D('',#1311,#991,#992);
#845=AXIS2_PLACEMENT_3D('',#1312,#993,#994);
#846=AXIS2_PLACEMENT_3D('',#1315,#995,#996);
#847=AXIS2_PLACEMENT_3D('',#1317,#997,#998);
#848=AXIS2_PLACEMENT_3D('',#1319,#999,#1000);
#849=AXIS2_PLACEMENT_3D('',#1320,#1001,#1002);
#850=AXIS2_PLACEMENT_3D('',#1321,#1003,#1004);
#851=AXIS2_PLACEMENT_3D('',#1322,#1005,#1006);
#852=AXIS2_PLACEMENT_3D('',#1323,#1007,#1008);
#853=AXIS2_PLACEMENT_3D('',#1324,#1009,#1010);
#854=AXIS2_PLACEMENT_3D('',#1331,#1011,#1012);
#855=AXIS2_PLACEMENT_3D('',#1332,#1013,#1014);
#856=AXIS2_PLACEMENT_3D('',#1333,#1015,#1016);
#857=AXIS2_PLACEMENT_3D('',#1336,#1017,#1018);
#858=AXIS2_PLACEMENT_3D('',#1338,#1019,#1020);
#859=AXIS2_PLACEMENT_3D('',#1340,#1021,#1022);
#860=AXIS2_PLACEMENT_3D('',#1341,#1023,#1024);
#861=AXIS2_PLACEMENT_3D('',#1342,#1025,#1026);
#862=AXIS2_PLACEMENT_3D('',#1345,#1027,#1028);
#863=AXIS2_PLACEMENT_3D('',#1346,#1029,#1030);
#864=AXIS2_PLACEMENT_3D('',#1347,#1031,#1032);
#865=AXIS2_PLACEMENT_3D('',#1348,#1033,#1034);
#866=AXIS2_PLACEMENT_3D('',#1362,#1035,#1036);
#867=AXIS2_PLACEMENT_3D('',#1364,#1037,#1038);
#868=AXIS2_PLACEMENT_3D('',#1365,#1039,#1040);
#869=AXIS2_PLACEMENT_3D('',#1366,#1041,#1042);
#870=AXIS2_PLACEMENT_3D('',#1367,#1043,#1044);
#871=AXIS2_PLACEMENT_3D('',#1390,#1045,#1046);
#872=AXIS2_PLACEMENT_3D('',#1392,#1047,#1048);
#873=AXIS2_PLACEMENT_3D('',#1393,#1049,#1050);
#874=AXIS2_PLACEMENT_3D('',#1394,#1051,#1052);
#875=AXIS2_PLACEMENT_3D('',#1395,#1053,#1054);
#876=AXIS2_PLACEMENT_3D('',#1408,#1055,#1056);
#877=AXIS2_PLACEMENT_3D('',#1409,#1057,#1058);
#878=AXIS2_PLACEMENT_3D('',#1416,#1059,#1060);
#879=AXIS2_PLACEMENT_3D('',#1417,#1061,#1062);
#880=AXIS2_PLACEMENT_3D('',#1418,#1063,#1064);
#881=AXIS2_PLACEMENT_3D('',#1436,#1065,#1066);
#882=AXIS2_PLACEMENT_3D('',#1437,#1067,#1068);
#883=AXIS2_PLACEMENT_3D('',#1441,#1070,#1071);
#884=AXIS2_PLACEMENT_3D('',#1443,#1073,#1074);
#885=AXIS2_PLACEMENT_3D('',#1446,#1076,#1077);
#886=AXIS2_PLACEMENT_3D('',#1447,#1078,#1079);
#887=AXIS2_PLACEMENT_3D('',#1450,#1081,#1082);
#888=AXIS2_PLACEMENT_3D('',#1451,#1083,#1084);
#889=AXIS2_PLACEMENT_3D('',#1454,#1086,#1087);
#890=AXIS2_PLACEMENT_3D('',#1455,#1088,#1089);
#891=AXIS2_PLACEMENT_3D('',#1457,#1090,#1091);
#892=AXIS2_PLACEMENT_3D('',#1460,#1093,#1094);
#893=AXIS2_PLACEMENT_3D('',#1461,#1095,#1096);
#894=AXIS2_PLACEMENT_3D('',#1462,#1097,#1098);
#895=AXIS2_PLACEMENT_3D('',#1464,#1099,#1100);
#896=AXIS2_PLACEMENT_3D('',#1467,#1102,#1103);
#897=AXIS2_PLACEMENT_3D('',#1468,#1104,#1105);
#898=AXIS2_PLACEMENT_3D('',#1469,#1106,#1107);
#899=AXIS2_PLACEMENT_3D('',#1470,#1108,#1109);
#900=AXIS2_PLACEMENT_3D('',#1473,#1111,#1112);
#901=AXIS2_PLACEMENT_3D('',#1474,#1113,#1114);
#902=AXIS2_PLACEMENT_3D('',#1476,#1115,#1116);
#903=AXIS2_PLACEMENT_3D('',#1477,#1117,#1118);
#904=AXIS2_PLACEMENT_3D('',#1479,#1119,#1120);
#905=AXIS2_PLACEMENT_3D('',#1480,#1121,#1122);
#906=AXIS2_PLACEMENT_3D('',#1482,#1123,#1124);
#907=AXIS2_PLACEMENT_3D('',#1484,#1126,#1127);
#908=AXIS2_PLACEMENT_3D('',#1486,#1128,#1129);
#909=AXIS2_PLACEMENT_3D('',#1487,#1130,#1131);
#910=AXIS2_PLACEMENT_3D('',#1489,#1132,#1133);
#911=AXIS2_PLACEMENT_3D('',#1491,#1135,#1136);
#912=AXIS2_PLACEMENT_3D('',#1493,#1137,#1138);
#913=AXIS2_PLACEMENT_3D('',#1494,#1139,#1140);
#914=AXIS2_PLACEMENT_3D('',#1496,#1141,#1142);
#915=AXIS2_PLACEMENT_3D('',#1498,#1144,#1145);
#916=AXIS2_PLACEMENT_3D('',#1502,#1147,#1148);
#917=AXIS2_PLACEMENT_3D('',#1504,#1150,#1151);
#918=AXIS2_PLACEMENT_3D('',#1505,#1152,#1153);
#919=AXIS2_PLACEMENT_3D('',#1506,#1154,#1155);
#920=AXIS2_PLACEMENT_3D('',#1507,#1156,#1157);
#921=AXIS2_PLACEMENT_3D('',#1508,#1158,#1159);
#922=AXIS2_PLACEMENT_3D('',#1509,#1160,#1161);
#923=AXIS2_PLACEMENT_3D('',#1511,#1162,#1163);
#924=AXIS2_PLACEMENT_3D('',#1512,#1164,#1165);
#925=AXIS2_PLACEMENT_3D('',#1514,#1166,#1167);
#926=AXIS2_PLACEMENT_3D('',#1515,#1168,#1169);
#927=AXIS2_PLACEMENT_3D('',#1517,#1170,#1171);
#928=AXIS2_PLACEMENT_3D('',#1519,#1172,#1173);
#929=AXIS2_PLACEMENT_3D('',#1521,#1174,#1175);
#930=AXIS2_PLACEMENT_3D('',#1522,#1176,#1177);
#931=AXIS2_PLACEMENT_3D('',#1524,#1178,#1179);
#932=AXIS2_PLACEMENT_3D('',#1526,#1180,#1181);
#933=AXIS2_PLACEMENT_3D('',#1528,#1182,#1183);
#934=AXIS2_PLACEMENT_3D('',#1530,#1184,#1185);
#935=AXIS2_PLACEMENT_3D('',#1532,#1186,#1187);
#936=AXIS2_PLACEMENT_3D('',#1534,#1188,#1189);
#937=AXIS2_PLACEMENT_3D('',#1536,#1190,#1191);
#938=AXIS2_PLACEMENT_3D('',#1537,#1192,#1193);
#939=AXIS2_PLACEMENT_3D('',#1539,#1195,#1196);
#940=AXIS2_PLACEMENT_3D('',#1541,#1198,#1199);
#941=AXIS2_PLACEMENT_3D('',#1543,#1200,#1201);
#942=AXIS2_PLACEMENT_3D('',#1545,#1203,#1204);
#943=AXIS2_PLACEMENT_3D('',#1547,#1205,#1206);
#944=AXIS2_PLACEMENT_3D('',#1548,#1207,#1208);
#945=AXIS2_PLACEMENT_3D('',#1551,#1210,#1211);
#946=AXIS2_PLACEMENT_3D('',#1552,#1212,#1213);
#947=AXIS2_PLACEMENT_3D('',#1554,#1214,#1215);
#948=AXIS2_PLACEMENT_3D('',#1555,#1216,#1217);
#949=AXIS2_PLACEMENT_3D('',#1556,#1218,#1219);
#950=AXIS2_PLACEMENT_3D('',#1559,#1221,#1222);
#951=AXIS2_PLACEMENT_3D('',#1560,#1223,#1224);
#952=AXIS2_PLACEMENT_3D('',#1562,#1225,#1226);
#953=AXIS2_PLACEMENT_3D('',#1563,#1227,#1228);
#954=AXIS2_PLACEMENT_3D('',#1566,#1230,#1231);
#955=AXIS2_PLACEMENT_3D('',#1567,#1232,#1233);
#956=AXIS2_PLACEMENT_3D('',#1569,#1234,#1235);
#957=AXIS2_PLACEMENT_3D('',#1570,#1236,#1237);
#958=AXIS2_PLACEMENT_3D('',#1572,#1238,#1239);
#959=AXIS2_PLACEMENT_3D('',#1573,#1240,#1241);
#960=AXIS2_PLACEMENT_3D('',#1575,#1243,#1244);
#961=AXIS2_PLACEMENT_3D('',#1577,#1246,#1247);
#962=AXIS2_PLACEMENT_3D('',#1579,#1249,#1250);
#963=AXIS2_PLACEMENT_3D('',#1581,#1252,#1253);
#964=AXIS2_PLACEMENT_3D('',#1583,#1255,#1256);
#965=AXIS2_PLACEMENT_3D('',#1585,#1257,#1258);
#966=AXIS2_PLACEMENT_3D('',#1587,#1259,#1260);
#967=AXIS2_PLACEMENT_3D('',#1588,#1261,#1262);
#968=AXIS2_PLACEMENT_3D('',#1589,#1263,#1264);
#969=DIRECTION('axis',(0.,0.,1.));
#970=DIRECTION('refdir',(1.,0.,0.));
#971=DIRECTION('center_axis',(0.,0.,1.));
#972=DIRECTION('ref_axis',(1.,0.,0.));
#973=DIRECTION('center_axis',(0.,0.,1.));
#974=DIRECTION('ref_axis',(0.746000694530398,0.665945165730756,0.));
#975=DIRECTION('center_axis',(0.775461106653413,-0.631395337382106,0.));
#976=DIRECTION('ref_axis',(0.,0.,1.));
#977=DIRECTION('center_axis',(0.,0.,-1.));
#978=DIRECTION('ref_axis',(0.746000694530398,0.665945165730756,0.));
#979=DIRECTION('center_axis',(-0.539695268641331,0.841860449840804,0.));
#980=DIRECTION('ref_axis',(-0.841860449840804,-0.539695268641331,0.));
#981=DIRECTION('center_axis',(0.,0.,1.));
#982=DIRECTION('ref_axis',(0.746000694530398,0.665945165730756,0.));
#983=DIRECTION('center_axis',(0.,0.,1.));
#984=DIRECTION('ref_axis',(-0.99999959491207,-0.000900097603269801,0.));
#985=DIRECTION('center_axis',(0.,0.,-1.));
#986=DIRECTION('ref_axis',(-1.,2.0300428005271E-12,0.));
#987=DIRECTION('center_axis',(-0.774323215734578,-0.632790295101357,-9.36717807174499E-16));
#988=DIRECTION('ref_axis',(0.,-1.48029736616688E-15,1.));
#989=DIRECTION('center_axis',(0.,0.,1.));
#990=DIRECTION('ref_axis',(-1.,2.0300428005271E-12,0.));
#991=DIRECTION('center_axis',(0.,0.,-1.));
#992=DIRECTION('ref_axis',(-1.,2.0300428005271E-12,0.));
#993=DIRECTION('center_axis',(0.,0.,1.));
#994=DIRECTION('ref_axis',(1.,0.,0.));
#995=DIRECTION('center_axis',(-0.705150070209584,-0.709058092460285,0.));
#996=DIRECTION('ref_axis',(0.709058092460285,-0.705150070209584,0.));
#997=DIRECTION('center_axis',(0.,0.,1.));
#998=DIRECTION('ref_axis',(-0.746000694524992,0.665945165736812,0.));
#999=DIRECTION('center_axis',(0.539695268648168,0.841860449836421,0.));
#1000=DIRECTION('ref_axis',(0.,0.,1.));
#1001=DIRECTION('center_axis',(0.,0.,-1.));
#1002=DIRECTION('ref_axis',(-0.746000694524992,0.665945165736812,0.));
#1003=DIRECTION('center_axis',(0.,0.,1.));
#1004=DIRECTION('ref_axis',(1.,0.,0.));
#1005=DIRECTION('center_axis',(0.,0.,-1.));
#1006=DIRECTION('ref_axis',(-4.05859252115968E-12,-1.,0.));
#1007=DIRECTION('center_axis',(0.,0.,1.));
#1008=DIRECTION('ref_axis',(-4.05859252115968E-12,-1.,0.));
#1009=DIRECTION('center_axis',(0.,0.,-1.));
#1010=DIRECTION('ref_axis',(-1.,0.,0.));
#1011=DIRECTION('center_axis',(-0.775461106655974,-0.631395337378961,0.));
#1012=DIRECTION('ref_axis',(0.,0.,1.));
#1013=DIRECTION('center_axis',(0.,0.,1.));
#1014=DIRECTION('ref_axis',(-0.63139533737896,0.775461106655975,0.));
#1015=DIRECTION('center_axis',(0.,0.,1.));
#1016=DIRECTION('ref_axis',(1.,0.,0.));
#1017=DIRECTION('center_axis',(0.705150070224473,0.709058092445478,1.15700700013505E-17));
#1018=DIRECTION('ref_axis',(-0.709058092445478,0.705150070224473,0.));
#1019=DIRECTION('center_axis',(0.,0.,1.));
#1020=DIRECTION('ref_axis',(0.746000694527694,-0.665945165733785,0.));
#1021=DIRECTION('center_axis',(-0.539695268644747,-0.841860449838615,0.));
#1022=DIRECTION('ref_axis',(0.,0.,1.));
#1023=DIRECTION('center_axis',(0.,0.,-1.));
#1024=DIRECTION('ref_axis',(0.746000694527694,-0.665945165733785,0.));
#1025=DIRECTION('center_axis',(0.,0.,1.));
#1026=DIRECTION('ref_axis',(1.,0.,0.));
#1027=DIRECTION('center_axis',(-0.539695268644748,0.841860449838614,0.));
#1028=DIRECTION('ref_axis',(0.,0.,1.));
#1029=DIRECTION('center_axis',(0.,0.,1.));
#1030=DIRECTION('ref_axis',(1.83697019872103E-16,1.,0.));
#1031=DIRECTION('center_axis',(0.,0.,-1.));
#1032=DIRECTION('ref_axis',(1.83697019872103E-16,1.,0.));
#1033=DIRECTION('center_axis',(0.,0.,1.));
#1034=DIRECTION('ref_axis',(1.,0.,0.));
#1035=DIRECTION('center_axis',(0.,0.,1.));
#1036=DIRECTION('ref_axis',(-0.746000694527694,-0.665945165733785,0.));
#1037=DIRECTION('center_axis',(-0.775461106655975,0.63139533737896,0.));
#1038=DIRECTION('ref_axis',(0.,0.,1.));
#1039=DIRECTION('center_axis',(0.,0.,-1.));
#1040=DIRECTION('ref_axis',(-0.746000694527694,-0.665945165733785,0.));
#1041=DIRECTION('center_axis',(0.,0.,1.));
#1042=DIRECTION('ref_axis',(-0.746000694527694,-0.665945165733785,0.));
#1043=DIRECTION('center_axis',(0.,0.,1.));
#1044=DIRECTION('ref_axis',(1.,0.,0.));
#1045=DIRECTION('center_axis',(0.,0.,-1.));
#1046=DIRECTION('ref_axis',(1.,-2.028721975275E-12,0.));
#1047=DIRECTION('center_axis',(0.774323215739106,0.632790295095816,-2.09510809654168E-16));
#1048=DIRECTION('ref_axis',(1.48029736616687E-15,-1.48029736616687E-15,
1.));
#1049=DIRECTION('center_axis',(0.,0.,1.));
#1050=DIRECTION('ref_axis',(1.,-2.028721975275E-12,0.));
#1051=DIRECTION('center_axis',(0.,0.,-1.));
#1052=DIRECTION('ref_axis',(1.,-2.028721975275E-12,0.));
#1053=DIRECTION('center_axis',(0.,0.,1.));
#1054=DIRECTION('ref_axis',(1.,0.,0.));
#1055=DIRECTION('center_axis',(0.,0.,-1.));
#1056=DIRECTION('ref_axis',(0.63139533737896,-0.775461106655975,0.));
#1057=DIRECTION('center_axis',(0.,0.,-1.));
#1058=DIRECTION('ref_axis',(-1.,0.,0.));
#1059=DIRECTION('center_axis',(0.775461106658537,0.631395337375813,0.));
#1060=DIRECTION('ref_axis',(0.,0.,1.));
#1061=DIRECTION('center_axis',(0.,0.,1.));
#1062=DIRECTION('ref_axis',(0.631395337375813,-0.775461106658537,0.));
#1063=DIRECTION('center_axis',(0.,0.,1.));
#1064=DIRECTION('ref_axis',(1.,0.,0.));
#1065=DIRECTION('center_axis',(0.,0.,-1.));
#1066=DIRECTION('ref_axis',(-0.631395337375813,0.775461106658537,0.));
#1067=DIRECTION('center_axis',(0.,0.,1.));
#1068=DIRECTION('ref_axis',(-1.,0.,0.));
#1069=DIRECTION('',(0.,0.,1.));
#1070=DIRECTION('center_axis',(0.,0.,-1.));
#1071=DIRECTION('ref_axis',(-1.,0.,0.));
#1072=DIRECTION('',(0.,0.,-1.));
#1073=DIRECTION('center_axis',(0.,0.,1.));
#1074=DIRECTION('ref_axis',(0.746000694530398,0.665945165730756,0.));
#1075=DIRECTION('',(0.,0.,-1.));
#1076=DIRECTION('center_axis',(0.,0.,-1.));
#1077=DIRECTION('ref_axis',(0.746000694530398,0.665945165730756,0.));
#1078=DIRECTION('center_axis',(0.,0.,1.));
#1079=DIRECTION('ref_axis',(-1.,0.,0.));
#1080=DIRECTION('',(0.,0.,1.));
#1081=DIRECTION('center_axis',(0.,0.,-1.));
#1082=DIRECTION('ref_axis',(-1.,0.,0.));
#1083=DIRECTION('center_axis',(0.,0.,1.));
#1084=DIRECTION('ref_axis',(0.746000694527694,-0.665945165733785,0.));
#1085=DIRECTION('',(0.,0.,-1.));
#1086=DIRECTION('center_axis',(0.,0.,-1.));
#1087=DIRECTION('ref_axis',(0.746000694527694,-0.665945165733785,0.));
#1088=DIRECTION('center_axis',(0.,0.,-1.));
#1089=DIRECTION('ref_axis',(-0.887010833178222,0.461748613235034,0.));
#1090=DIRECTION('center_axis',(0.,0.,-1.));
#1091=DIRECTION('ref_axis',(-0.887010833178222,0.461748613235034,0.));
#1092=DIRECTION('',(0.,0.,-1.));
#1093=DIRECTION('center_axis',(0.,0.,-1.));
#1094=DIRECTION('ref_axis',(-0.887010833178222,0.461748613235034,0.));
#1095=DIRECTION('center_axis',(0.,0.,-1.));
#1096=DIRECTION('ref_axis',(-0.887010833178222,0.461748613235034,0.));
#1097=DIRECTION('center_axis',(0.,0.,-1.));
#1098=DIRECTION('ref_axis',(-0.887010833178222,0.461748613235034,0.));
#1099=DIRECTION('center_axis',(0.,0.,-1.));
#1100=DIRECTION('ref_axis',(-0.887010833178222,0.461748613235034,0.));
#1101=DIRECTION('',(0.,0.,-1.));
#1102=DIRECTION('center_axis',(0.,0.,-1.));
#1103=DIRECTION('ref_axis',(-0.887010833178222,0.461748613235034,0.));
#1104=DIRECTION('center_axis',(0.,0.,-1.));
#1105=DIRECTION('ref_axis',(-0.887010833178222,0.461748613235034,0.));
#1106=DIRECTION('center_axis',(0.,0.,-1.));
#1107=DIRECTION('ref_axis',(-0.887010833178222,0.461748613235034,0.));
#1108=DIRECTION('center_axis',(0.,0.,-1.));
#1109=DIRECTION('ref_axis',(-0.887010833178222,0.461748613235034,0.));
#1110=DIRECTION('',(0.,0.,-1.));
#1111=DIRECTION('center_axis',(0.,0.,-1.));
#1112=DIRECTION('ref_axis',(-0.887010833178222,0.461748613235034,0.));
#1113=DIRECTION('center_axis',(0.,0.,-1.));
#1114=DIRECTION('ref_axis',(1.,0.,0.));
#1115=DIRECTION('center_axis',(0.,0.,-1.));
#1116=DIRECTION('ref_axis',(1.,0.,0.));
#1117=DIRECTION('center_axis',(0.,0.,-1.));
#1118=DIRECTION('ref_axis',(1.,0.,0.));
#1119=DIRECTION('center_axis',(0.,0.,-1.));
#1120=DIRECTION('ref_axis',(1.,0.,0.));
#1121=DIRECTION('center_axis',(0.,0.,1.));
#1122=DIRECTION('ref_axis',(1.,0.,0.));
#1123=DIRECTION('center_axis',(0.,0.,-1.));
#1124=DIRECTION('ref_axis',(1.,0.,0.));
#1125=DIRECTION('',(0.,0.,-1.));
#1126=DIRECTION('center_axis',(0.,0.,-1.));
#1127=DIRECTION('ref_axis',(1.,0.,0.));
#1128=DIRECTION('center_axis',(0.,0.,-1.));
#1129=DIRECTION('ref_axis',(-1.,0.,0.));
#1130=DIRECTION('center_axis',(0.,0.,1.));
#1131=DIRECTION('ref_axis',(1.,0.,0.));
#1132=DIRECTION('center_axis',(0.,0.,-1.));
#1133=DIRECTION('ref_axis',(1.,0.,0.));
#1134=DIRECTION('',(0.,0.,-1.));
#1135=DIRECTION('center_axis',(0.,0.,-1.));
#1136=DIRECTION('ref_axis',(1.,0.,0.));
#1137=DIRECTION('center_axis',(0.,0.,-1.));
#1138=DIRECTION('ref_axis',(-1.,0.,0.));
#1139=DIRECTION('center_axis',(0.,0.,-1.));
#1140=DIRECTION('ref_axis',(-0.746000694524992,0.665945165736812,0.));
#1141=DIRECTION('center_axis',(0.,0.,-1.));
#1142=DIRECTION('ref_axis',(-0.746000694524992,0.665945165736812,0.));
#1143=DIRECTION('',(0.,0.,1.));
#1144=DIRECTION('center_axis',(0.,0.,1.));
#1145=DIRECTION('ref_axis',(-0.746000694527694,-0.665945165733785,0.));
#1146=DIRECTION('',(0.,0.,-1.));
#1147=DIRECTION('center_axis',(0.,0.,-1.));
#1148=DIRECTION('ref_axis',(-0.746000694527694,-0.665945165733785,0.));
#1149=DIRECTION('',(0.,0.,1.));
#1150=DIRECTION('center_axis',(0.,0.,1.));
#1151=DIRECTION('ref_axis',(-1.,0.,0.));
#1152=DIRECTION('center_axis',(0.,0.,-1.));
#1153=DIRECTION('ref_axis',(-1.,0.,0.));
#1154=DIRECTION('center_axis',(0.,0.,1.));
#1155=DIRECTION('ref_axis',(1.,-2.028721975275E-12,0.));
#1156=DIRECTION('center_axis',(0.,0.,-1.));
#1157=DIRECTION('ref_axis',(-1.,0.,0.));
#1158=DIRECTION('center_axis',(0.,0.,1.));
#1159=DIRECTION('ref_axis',(-0.887010833178222,0.461748613235034,0.));
#1160=DIRECTION('center_axis',(0.,0.,-1.));
#1161=DIRECTION('ref_axis',(-0.887010833178222,0.461748613235034,0.));
#1162=DIRECTION('center_axis',(0.,0.,-1.));
#1163=DIRECTION('ref_axis',(-0.887010833178222,0.461748613235034,0.));
#1164=DIRECTION('center_axis',(0.,0.,-1.));
#1165=DIRECTION('ref_axis',(-0.887010833178222,0.461748613235034,0.));
#1166=DIRECTION('center_axis',(0.,0.,-1.));
#1167=DIRECTION('ref_axis',(-0.887010833178222,0.461748613235034,0.));
#1168=DIRECTION('center_axis',(0.,0.,-1.));
#1169=DIRECTION('ref_axis',(-0.887010833178222,0.461748613235034,0.));
#1170=DIRECTION('center_axis',(0.,0.,-1.));
#1171=DIRECTION('ref_axis',(-1.,0.,0.));
#1172=DIRECTION('center_axis',(0.,0.,-1.));
#1173=DIRECTION('ref_axis',(-1.,0.,0.));
#1174=DIRECTION('center_axis',(0.,0.,1.));
#1175=DIRECTION('ref_axis',(0.887010833178222,-0.461748613235034,0.));
#1176=DIRECTION('center_axis',(0.,0.,1.));
#1177=DIRECTION('ref_axis',(-0.887010833178222,0.461748613235034,0.));
#1178=DIRECTION('center_axis',(0.,0.,1.));
#1179=DIRECTION('ref_axis',(-0.887010833178222,0.461748613235034,0.));
#1180=DIRECTION('center_axis',(0.,0.,1.));
#1181=DIRECTION('ref_axis',(-0.887010833178222,0.461748613235034,0.));
#1182=DIRECTION('center_axis',(0.,0.,1.));
#1183=DIRECTION('ref_axis',(-0.887010833178222,0.461748613235034,0.));
#1184=DIRECTION('center_axis',(0.,0.,1.));
#1185=DIRECTION('ref_axis',(-0.887010833178222,0.461748613235034,0.));
#1186=DIRECTION('center_axis',(0.,0.,1.));
#1187=DIRECTION('ref_axis',(-0.887010833178222,0.461748613235034,0.));
#1188=DIRECTION('center_axis',(0.,0.,1.));
#1189=DIRECTION('ref_axis',(0.887010833178222,-0.461748613235034,0.));
#1190=DIRECTION('center_axis',(0.,0.,1.));
#1191=DIRECTION('ref_axis',(-0.887010833178222,0.461748613235034,0.));
#1192=DIRECTION('center_axis',(0.,0.,-1.));
#1193=DIRECTION('ref_axis',(-1.,0.,0.));
#1194=DIRECTION('',(0.,0.,-1.));
#1195=DIRECTION('center_axis',(0.,0.,-1.));
#1196=DIRECTION('ref_axis',(-1.,0.,0.));
#1197=DIRECTION('',(0.,0.,-1.));
#1198=DIRECTION('center_axis',(0.,0.,-1.));
#1199=DIRECTION('ref_axis',(-0.887010833178222,0.461748613235034,0.));
#1200=DIRECTION('center_axis',(0.,0.,1.));
#1201=DIRECTION('ref_axis',(-0.887010833178222,0.461748613235034,0.));
#1202=DIRECTION('',(0.,0.,-1.));
#1203=DIRECTION('center_axis',(0.,0.,1.));
#1204=DIRECTION('ref_axis',(-0.887010833178222,0.461748613235034,0.));
#1205=DIRECTION('center_axis',(0.,0.,1.));
#1206=DIRECTION('ref_axis',(-0.887010833178222,0.461748613235034,0.));
#1207=DIRECTION('center_axis',(0.,0.,-1.));
#1208=DIRECTION('ref_axis',(-0.887010833178222,0.461748613235034,0.));
#1209=DIRECTION('',(0.,0.,-1.));
#1210=DIRECTION('center_axis',(0.,0.,-1.));
#1211=DIRECTION('ref_axis',(-0.887010833178222,0.461748613235034,0.));
#1212=DIRECTION('center_axis',(0.,0.,1.));
#1213=DIRECTION('ref_axis',(-0.887010833178222,0.461748613235034,0.));
#1214=DIRECTION('center_axis',(0.,0.,1.));
#1215=DIRECTION('ref_axis',(-0.887010833178222,0.461748613235034,0.));
#1216=DIRECTION('center_axis',(0.,0.,1.));
#1217=DIRECTION('ref_axis',(-0.887010833178222,0.461748613235034,0.));
#1218=DIRECTION('center_axis',(0.,0.,-1.));
#1219=DIRECTION('ref_axis',(-0.887010833178222,0.461748613235034,0.));
#1220=DIRECTION('',(0.,0.,-1.));
#1221=DIRECTION('center_axis',(0.,0.,-1.));
#1222=DIRECTION('ref_axis',(-0.887010833178222,0.461748613235034,0.));
#1223=DIRECTION('center_axis',(0.,0.,1.));
#1224=DIRECTION('ref_axis',(-0.887010833178222,0.461748613235034,0.));
#1225=DIRECTION('center_axis',(0.,0.,1.));
#1226=DIRECTION('ref_axis',(-0.887010833178222,0.461748613235034,0.));
#1227=DIRECTION('center_axis',(0.,0.,-1.));
#1228=DIRECTION('ref_axis',(-0.887010833178222,0.461748613235034,0.));
#1229=DIRECTION('',(0.,0.,-1.));
#1230=DIRECTION('center_axis',(0.,0.,-1.));
#1231=DIRECTION('ref_axis',(-0.887010833178222,0.461748613235034,0.));
#1232=DIRECTION('center_axis',(0.,0.,1.));
#1233=DIRECTION('ref_axis',(-0.887010833178222,0.461748613235034,0.));
#1234=DIRECTION('center_axis',(0.,0.,1.));
#1235=DIRECTION('ref_axis',(-0.887010833178222,0.461748613235034,0.));
#1236=DIRECTION('center_axis',(0.,0.,1.));
#1237=DIRECTION('ref_axis',(-0.887010833178222,0.461748613235034,0.));
#1238=DIRECTION('center_axis',(0.,0.,1.));
#1239=DIRECTION('ref_axis',(-0.887010833178222,0.461748613235034,0.));
#1240=DIRECTION('center_axis',(0.,0.,-1.));
#1241=DIRECTION('ref_axis',(-0.887010833178222,0.461748613235034,0.));
#1242=DIRECTION('',(0.,0.,-1.));
#1243=DIRECTION('center_axis',(0.,0.,-1.));
#1244=DIRECTION('ref_axis',(-0.887010833178222,0.461748613235034,0.));
#1245=DIRECTION('',(0.,0.,-1.));
#1246=DIRECTION('center_axis',(0.,0.,-1.));
#1247=DIRECTION('ref_axis',(-0.887010833178222,0.461748613235034,0.));
#1248=DIRECTION('',(0.,0.,-1.));
#1249=DIRECTION('center_axis',(0.,0.,-1.));
#1250=DIRECTION('ref_axis',(-0.887010833178222,0.461748613235034,0.));
#1251=DIRECTION('',(0.,0.,-1.));
#1252=DIRECTION('center_axis',(0.,0.,-1.));
#1253=DIRECTION('ref_axis',(-0.887010833178222,0.461748613235034,0.));
#1254=DIRECTION('',(0.,0.,-1.));
#1255=DIRECTION('center_axis',(0.,0.,-1.));
#1256=DIRECTION('ref_axis',(-0.887010833178222,0.461748613235034,0.));
#1257=DIRECTION('center_axis',(-0.461748613235034,-0.887010833178222,0.));
#1258=DIRECTION('ref_axis',(0.887010833178222,-0.461748613235034,0.));
#1259=DIRECTION('center_axis',(0.,0.,-1.));
#1260=DIRECTION('ref_axis',(0.887010833178222,-0.461748613235034,0.));
#1261=DIRECTION('center_axis',(0.,0.,-1.));
#1262=DIRECTION('ref_axis',(0.887010833178222,-0.461748613235034,0.));
#1263=DIRECTION('center_axis',(0.,0.,1.));
#1264=DIRECTION('ref_axis',(0.887010833178222,-0.461748613235034,0.));
#1265=DIRECTION('',(0.,0.,1.));
#1266=CARTESIAN_POINT('',(0.,0.,0.));
#1267=CARTESIAN_POINT('Origin',(-36.6209295681623,-44.9767441858979,12.));
#1268=CARTESIAN_POINT('',(-8.99155537722307,-18.8880937451974,13.5));
#1269=CARTESIAN_POINT('',(-11.2158655961176,-16.7175381712853,13.5));
#1270=CARTESIAN_POINT('Ctrl Pts',(-8.99155537722306,-18.8880937451974,13.5));
#1271=CARTESIAN_POINT('Ctrl Pts',(-9.20192783889153,-18.8391289544981,13.5));
#1272=CARTESIAN_POINT('Ctrl Pts',(-9.41014063891179,-18.766691048297,13.4858797161025));
#1273=CARTESIAN_POINT('Ctrl Pts',(-9.89744469329505,-18.5324121929865,13.4484676238893));
#1274=CARTESIAN_POINT('Ctrl Pts',(-10.2307906714481,-18.3154752008387,13.4183288909622));
#1275=CARTESIAN_POINT('Ctrl Pts',(-10.8094612567427,-17.6775820848581,13.436538992863));
#1276=CARTESIAN_POINT('Ctrl Pts',(-10.9968044904553,-17.3474502279026,13.4741573843803));
#1277=CARTESIAN_POINT('Ctrl Pts',(-11.1563970881129,-16.9243036677015,13.4964884519876));
#1278=CARTESIAN_POINT('Ctrl Pts',(-11.1889300547924,-16.8216601704814,13.5));
#1279=CARTESIAN_POINT('Ctrl Pts',(-11.2158655961176,-16.7175381712853,13.5));
#1280=CARTESIAN_POINT('',(-12.6279067476422,-15.5092221330682,13.5));
#1281=CARTESIAN_POINT('Origin',(-36.6209295681623,-44.9767441858979,13.5));
#1282=CARTESIAN_POINT('',(-13.5749997537153,-16.6724137930483,12.));
#1283=CARTESIAN_POINT('Origin',(-12.6279067476422,-15.5092221330682,12.));
#1284=CARTESIAN_POINT('',(-5.89302314897292,-25.2778668804893,12.));
#1285=CARTESIAN_POINT('Origin',(-36.6209295681623,-44.9767441858979,12.));
#1286=CARTESIAN_POINT('',(-4.6302324742117,-24.4683239775273,13.5));
#1287=CARTESIAN_POINT('Origin',(-4.6302324742117,-24.4683239775273,12.));
#1288=CARTESIAN_POINT('Origin',(-36.6209295681623,-44.9767441858979,13.5));
#1289=CARTESIAN_POINT('Origin',(0.,0.,12.));
#1290=CARTESIAN_POINT('',(-19.7395744622716,-3.21701725957987,13.5));
#1291=CARTESIAN_POINT('',(-19.9448409506511,1.48435826309982,13.5));
#1292=CARTESIAN_POINT('Ctrl Pts',(-19.7395744622716,-3.21701725957987,13.5));
#1293=CARTESIAN_POINT('Ctrl Pts',(-19.9231365481359,-3.0844177028114,13.5));
#1294=CARTESIAN_POINT('Ctrl Pts',(-20.0983543094998,-2.92633043324543,13.4743887400275));
#1295=CARTESIAN_POINT('Ctrl Pts',(-20.4908034184286,-2.46975024685312,13.3732190638993));
#1296=CARTESIAN_POINT('Ctrl Pts',(-20.6740477638795,-2.15858624418353,13.2843413298545));
#1297=CARTESIAN_POINT('Ctrl Pts',(-20.894562594253,-1.55976605401402,13.1635405860683));
#1298=CARTESIAN_POINT('Ctrl Pts',(-20.9759158235001,-1.22877503218902,13.110725297399));
#1299=CARTESIAN_POINT('Ctrl Pts',(-20.9883993307816,-0.476935026073156,
13.1262804848814));
#1300=CARTESIAN_POINT('Ctrl Pts',(-20.9292421060643,-0.164952845406182,
13.1814787397156));
#1301=CARTESIAN_POINT('Ctrl Pts',(-20.775361293531,0.345603582847404,13.2869334298272));
#1302=CARTESIAN_POINT('Ctrl Pts',(-20.6586473820801,0.600004867672101,13.352537478994));
#1303=CARTESIAN_POINT('Ctrl Pts',(-20.3466774815454,1.08589851507655,13.4614560998689));
#1304=CARTESIAN_POINT('Ctrl Pts',(-20.1553458692719,1.30237827483331,13.5));
#1305=CARTESIAN_POINT('Ctrl Pts',(-19.9448409506511,1.48435826309982,13.5));
#1306=CARTESIAN_POINT('',(-12.6558059020271,15.4864643146916,13.5));
#1307=CARTESIAN_POINT('Origin',(0.,0.,13.5));
#1308=CARTESIAN_POINT('',(-13.6049913446792,16.6479491382934,12.));
#1309=CARTESIAN_POINT('Origin',(-12.6558059020271,15.4864643146916,12.));
#1310=CARTESIAN_POINT('Origin',(0.,0.,12.));
#1311=CARTESIAN_POINT('Origin',(0.,0.,13.5));
#1312=CARTESIAN_POINT('Origin',(36.6209295677972,-44.9767441861951,12.));
#1313=CARTESIAN_POINT('',(10.7403091929968,-19.2387666235453,12.));
#1314=CARTESIAN_POINT('',(9.67672205430632,-18.181041518231,13.5));
#1315=CARTESIAN_POINT('Origin',(9.67672205430632,-18.181041518231,12.));
#1316=CARTESIAN_POINT('',(4.63023247401307,-24.4683239775649,13.5));
#1317=CARTESIAN_POINT('Origin',(36.6209295677972,-44.9767441861951,13.5));
#1318=CARTESIAN_POINT('',(5.89302314876769,-25.2778668805371,12.));
#1319=CARTESIAN_POINT('Origin',(4.63023247401307,-24.4683239775649,12.));
#1320=CARTESIAN_POINT('Origin',(36.6209295677972,-44.9767441861951,12.));
#1321=CARTESIAN_POINT('Origin',(-8.72819916938939E-11,-21.5,12.));
#1322=CARTESIAN_POINT('Origin',(-8.72819916938939E-11,-21.5,13.5));
#1323=CARTESIAN_POINT('Origin',(-8.72819916938939E-11,-21.5,12.));
#1324=CARTESIAN_POINT('Origin',(0.,0.,12.));
#1325=CARTESIAN_POINT('',(-12.6502423790171,15.5366540960235,13.4995828109776));
#1326=CARTESIAN_POINT('Ctrl Pts',(-12.6558059020271,15.4864643146916,13.5));
#1327=CARTESIAN_POINT('Ctrl Pts',(-12.6540953057939,15.5031795188836,13.5));
#1328=CARTESIAN_POINT('Ctrl Pts',(-12.6522412302611,15.5199101555482,13.4998593369195));
#1329=CARTESIAN_POINT('Ctrl Pts',(-12.6502423790171,15.5366540960235,13.4995828109776));
#1330=CARTESIAN_POINT('',(-13.5749997536476,16.6724137931035,12.));
#1331=CARTESIAN_POINT('Origin',(-12.6279067475792,15.5092221331195,12.));
#1332=CARTESIAN_POINT('Origin',(0.,0.,12.));
#1333=CARTESIAN_POINT('Origin',(-36.6209295679797,44.9767441860466,12.));
#1334=CARTESIAN_POINT('',(-10.7403091937198,19.2387666228532,12.));
#1335=CARTESIAN_POINT('',(-9.67672205505157,18.1810415175165,13.5));
#1336=CARTESIAN_POINT('Origin',(-9.67672205505158,18.1810415175165,12.));
#1337=CARTESIAN_POINT('',(-4.63023247411239,24.4683239775461,13.5));
#1338=CARTESIAN_POINT('Origin',(-36.6209295679797,44.9767441860466,13.5));
#1339=CARTESIAN_POINT('',(-5.8930231488703,25.2778668805132,12.));
#1340=CARTESIAN_POINT('Origin',(-4.63023247411239,24.4683239775461,12.));
#1341=CARTESIAN_POINT('Origin',(-36.6209295679797,44.9767441860466,12.));
#1342=CARTESIAN_POINT('Origin',(0.,21.5,12.));
#1343=CARTESIAN_POINT('',(4.63023247411238,24.4683239775461,13.5));
#1344=CARTESIAN_POINT('',(5.8930231488703,25.2778668805132,12.));
#1345=CARTESIAN_POINT('Origin',(4.63023247411238,24.4683239775461,12.));
#1346=CARTESIAN_POINT('Origin',(0.,21.5,12.));
#1347=CARTESIAN_POINT('Origin',(0.,21.5,13.5));
#1348=CARTESIAN_POINT('Origin',(36.6209295679797,44.9767441860466,12.));
#1349=CARTESIAN_POINT('',(8.99155537808151,18.8880937442435,13.5));
#1350=CARTESIAN_POINT('',(11.2158655956549,16.7175381716858,13.5));
#1351=CARTESIAN_POINT('Ctrl Pts',(8.99155537808151,18.8880937442435,13.5));
#1352=CARTESIAN_POINT('Ctrl Pts',(9.20192784019441,18.8391289533624,13.5));
#1353=CARTESIAN_POINT('Ctrl Pts',(9.41014064063032,18.7666910468794,13.4858797160591));
#1354=CARTESIAN_POINT('Ctrl Pts',(9.897444694766,18.5324121911891,13.4484676239089));
#1355=CARTESIAN_POINT('Ctrl Pts',(10.2307906729898,18.3154751988233,13.4183288910829));
#1356=CARTESIAN_POINT('Ctrl Pts',(10.8094612581104,17.6775820819066,13.4365389932287));
#1357=CARTESIAN_POINT('Ctrl Pts',(10.9968044916122,17.3474502246591,13.4741573847666));
#1358=CARTESIAN_POINT('Ctrl Pts',(11.1563970884228,16.9243036653917,13.4964884520832));
#1359=CARTESIAN_POINT('Ctrl Pts',(11.1889300546425,16.8216601695082,13.5));
#1360=CARTESIAN_POINT('Ctrl Pts',(11.2158655956549,16.7175381716858,13.5));
#1361=CARTESIAN_POINT('',(12.6279067475792,15.5092221331195,13.5));
#1362=CARTESIAN_POINT('Origin',(36.6209295679797,44.9767441860466,13.5));
#1363=CARTESIAN_POINT('',(13.5749997536476,16.6724137931035,12.));
#1364=CARTESIAN_POINT('Origin',(12.6279067475792,15.5092221331195,12.));
#1365=CARTESIAN_POINT('Origin',(36.6209295679797,44.9767441860466,12.));
#1366=CARTESIAN_POINT('Origin',(36.6209295679797,44.9767441860466,13.5));
#1367=CARTESIAN_POINT('Origin',(0.,0.,12.));
#1368=CARTESIAN_POINT('',(19.7395744624267,3.21701725862833,13.5));
#1369=CARTESIAN_POINT('',(20.6439007558838,-0.600096855791241,13.3505872111869));
#1370=CARTESIAN_POINT('Ctrl Pts',(19.7395744624267,3.21701725862833,13.5));
#1371=CARTESIAN_POINT('Ctrl Pts',(19.9504309112994,3.06470110064485,13.5));
#1372=CARTESIAN_POINT('Ctrl Pts',(20.1505248525728,2.87864085175156,13.4660962339171));
#1373=CARTESIAN_POINT('Ctrl Pts',(20.5560871236331,2.37003431122759,13.3468980112557));
#1374=CARTESIAN_POINT('Ctrl Pts',(20.7328130655691,2.04160009403435,13.2539150134784));
#1375=CARTESIAN_POINT('Ctrl Pts',(20.9488311556087,1.35332257638618,13.1312256816568));
#1376=CARTESIAN_POINT('Ctrl Pts',(20.9901185260336,1.03202842482843,13.1065669075465));
#1377=CARTESIAN_POINT('Ctrl Pts',(20.9733780303409,0.373911890681532,13.1410253104284));
#1378=CARTESIAN_POINT('Ctrl Pts',(20.9093690451578,0.0638680498396535,13.1994303167151));
#1379=CARTESIAN_POINT('Ctrl Pts',(20.766002682117,-0.343584949259259,13.2893657261226));
#1380=CARTESIAN_POINT('Ctrl Pts',(20.7096404274725,-0.473812121637487,13.3206074830737));
#1381=CARTESIAN_POINT('Ctrl Pts',(20.6439007558811,-0.600096855796339,13.3505872111869));
#1382=CARTESIAN_POINT('',(19.9448409506063,-1.48435826370101,13.5));
#1383=CARTESIAN_POINT('Ctrl Pts',(20.6439007558811,-0.600096855796339,13.3505872111869));
#1384=CARTESIAN_POINT('Ctrl Pts',(20.5316182134274,-0.815789613018819,13.4017922143932));
#1385=CARTESIAN_POINT('Ctrl Pts',(20.3920416983569,-1.0199641411959,13.449524384678));
#1386=CARTESIAN_POINT('Ctrl Pts',(20.1362922489506,-1.30793527052226,13.4917601738743));
#1387=CARTESIAN_POINT('Ctrl Pts',(20.0421008110739,-1.40027781377759,13.5));
#1388=CARTESIAN_POINT('Ctrl Pts',(19.9448409506063,-1.48435826370101,13.5));
#1389=CARTESIAN_POINT('',(12.6558059019163,-15.4864643147821,13.5));
#1390=CARTESIAN_POINT('Origin',(0.,0.,13.5));
#1391=CARTESIAN_POINT('',(13.60499134456,-16.6479491383908,12.));
#1392=CARTESIAN_POINT('Origin',(12.6558059019163,-15.4864643147821,12.));
#1393=CARTESIAN_POINT('Origin',(0.,0.,12.));
#1394=CARTESIAN_POINT('Origin',(0.,0.,13.5));
#1395=CARTESIAN_POINT('Origin',(-36.6209295679797,44.9767441860466,12.));
#1396=CARTESIAN_POINT('Ctrl Pts',(-12.6502423790171,15.5366540960235,13.4995828109776));
#1397=CARTESIAN_POINT('Ctrl Pts',(-12.6229045033591,15.7656575119173,13.4958008227785));
#1398=CARTESIAN_POINT('Ctrl Pts',(-12.568842791081,15.994421563714,13.4667201913633));
#1399=CARTESIAN_POINT('Ctrl Pts',(-12.3624057417553,16.5548218366838,13.3720345036881));
#1400=CARTESIAN_POINT('Ctrl Pts',(-12.1740407591677,16.8805214526122,13.2950075640275));
#1401=CARTESIAN_POINT('Ctrl Pts',(-11.7501165292019,17.358489190237,13.2468376794192));
#1402=CARTESIAN_POINT('Ctrl Pts',(-11.5063402572278,17.5902013093775,13.2454748844682));
#1403=CARTESIAN_POINT('Ctrl Pts',(-10.815478708135,17.9802027382916,13.353079724052));
#1404=CARTESIAN_POINT('Ctrl Pts',(-10.4583967239693,18.0992040175733,13.4341435408769));
#1405=CARTESIAN_POINT('Ctrl Pts',(-9.95661084527121,18.1707092116804,13.4902139743653));
#1406=CARTESIAN_POINT('Ctrl Pts',(-9.81682543093639,18.1807926486669,13.5));
#1407=CARTESIAN_POINT('Ctrl Pts',(-9.67672205505156,18.1810415175165,13.5));
#1408=CARTESIAN_POINT('Origin',(-36.6209295679797,44.9767441860466,12.));
#1409=CARTESIAN_POINT('Origin',(0.,0.,12.));
#1410=CARTESIAN_POINT('',(12.6502423789258,-15.53665409604,13.4995828109787));
#1411=CARTESIAN_POINT('Ctrl Pts',(12.6558059019163,-15.4864643147821,13.5));
#1412=CARTESIAN_POINT('Ctrl Pts',(12.6540940792367,-15.5031915033106,13.5));
#1413=CARTESIAN_POINT('Ctrl Pts',(12.6522398024203,-15.5199221154769,13.4998591394025));
#1414=CARTESIAN_POINT('Ctrl Pts',(12.6502423789258,-15.53665409604,13.4995828109787));
#1415=CARTESIAN_POINT('',(13.57499975358,-16.6724137931585,12.));
#1416=CARTESIAN_POINT('Origin',(12.6279067475163,-15.5092221331707,12.));
#1417=CARTESIAN_POINT('Origin',(0.,0.,12.));
#1418=CARTESIAN_POINT('Origin',(36.6209295677972,-44.9767441861951,12.));
#1419=CARTESIAN_POINT('',(12.3324255938049,-16.5662920909095,13.3647791395447));
#1420=CARTESIAN_POINT('Ctrl Pts',(12.6502423789258,-15.53665409604,13.4995828109787));
#1421=CARTESIAN_POINT('Ctrl Pts',(12.6202004890651,-15.7883084490606,13.4954267428752));
#1422=CARTESIAN_POINT('Ctrl Pts',(12.5586140037081,-16.0329595214043,13.4613612086553));
#1423=CARTESIAN_POINT('Ctrl Pts',(12.4294606787537,-16.3663431315857,13.4031850458713));
#1424=CARTESIAN_POINT('Ctrl Pts',(12.384063912813,-16.4670958030283,13.3838613483009));
#1425=CARTESIAN_POINT('Ctrl Pts',(12.3324255938046,-16.5662920909101,13.3647791395447));
#1426=CARTESIAN_POINT('Ctrl Pts',(12.3324255938046,-16.5662920909101,13.3647791395447));
#1427=CARTESIAN_POINT('Ctrl Pts',(12.213228019743,-16.7952685002605,13.3207313658148));
#1428=CARTESIAN_POINT('Ctrl Pts',(12.0608777305313,-17.0160651307877,13.2782762966279));
#1429=CARTESIAN_POINT('Ctrl Pts',(11.7152935038936,-17.3891977278736,13.2470395018278));
#1430=CARTESIAN_POINT('Ctrl Pts',(11.4694647808186,-17.6188881277877,13.2489398424011));
#1431=CARTESIAN_POINT('Ctrl Pts',(10.7604240377542,-18.0030260927524,13.364050934446));
#1432=CARTESIAN_POINT('Ctrl Pts',(10.3942846729183,-18.1165337399231,13.4464842678622));
#1433=CARTESIAN_POINT('Ctrl Pts',(9.90449275014278,-18.1743623065078,13.4936673810414));
#1434=CARTESIAN_POINT('Ctrl Pts',(9.78893019924369,-18.1808422003431,13.5));
#1435=CARTESIAN_POINT('Ctrl Pts',(9.67672205430632,-18.181041518231,13.5));
#1436=CARTESIAN_POINT('Origin',(36.6209295677972,-44.9767441861951,12.));
#1437=CARTESIAN_POINT('Origin',(-8.72819916938939E-11,-21.5,13.5));
#1438=CARTESIAN_POINT('',(-5.89302314897292,-25.2778668804893,8.5));
#1439=CARTESIAN_POINT('',(-5.89302314897292,-25.2778668804893,13.5));
#1440=CARTESIAN_POINT('',(5.89302314876769,-25.2778668805371,8.5));
#1441=CARTESIAN_POINT('Origin',(-8.72819916938939E-11,-21.5,8.5));
#1442=CARTESIAN_POINT('',(5.89302314876769,-25.2778668805371,13.5));
#1443=CARTESIAN_POINT('Origin',(-36.6209295681623,-44.9767441858979,13.5));
#1444=CARTESIAN_POINT('',(-13.5749997537153,-16.6724137930483,8.5));
#1445=CARTESIAN_POINT('',(-13.5749997537153,-16.6724137930483,13.5));
#1446=CARTESIAN_POINT('Origin',(-36.6209295681623,-44.9767441858979,8.5));
#1447=CARTESIAN_POINT('Origin',(0.,0.,13.5));
#1448=CARTESIAN_POINT('',(-13.5749997536476,16.6724137931035,8.5));
#1449=CARTESIAN_POINT('',(-13.5749997536476,16.6724137931035,13.5));
#1450=CARTESIAN_POINT('Origin',(0.,0.,8.5));
#1451=CARTESIAN_POINT('Origin',(-36.6209295679797,44.9767441860466,13.5));
#1452=CARTESIAN_POINT('',(-5.8930231488703,25.2778668805132,8.5));
#1453=CARTESIAN_POINT('',(-5.8930231488703,25.2778668805132,13.5));
#1454=CARTESIAN_POINT('Origin',(-36.6209295679797,44.9767441860466,8.5));
#1455=CARTESIAN_POINT('Origin',(-17.9828682565263,-0.785148984632382,13.5));
#1456=CARTESIAN_POINT('',(-15.3218357569917,-2.17039482433748,13.5));
#1457=CARTESIAN_POINT('Origin',(-17.9828682565263,-0.785148984632382,13.5));
#1458=CARTESIAN_POINT('',(-15.3218357569917,-2.17039482433748,10.5));
#1459=CARTESIAN_POINT('',(-15.3218357569917,-2.17039482433748,13.5));
#1460=CARTESIAN_POINT('Origin',(-17.9828682565263,-0.785148984632382,10.5));
#1461=CARTESIAN_POINT('Origin',(-17.9828682565263,-0.785148984632382,13.5));
#1462=CARTESIAN_POINT('Origin',(-8.31147516216852,-15.9661952354795,13.5));
#1463=CARTESIAN_POINT('',(-5.65044266263386,-17.3514410751846,13.5));
#1464=CARTESIAN_POINT('Origin',(-8.31147516216852,-15.9661952354795,13.5));
#1465=CARTESIAN_POINT('',(-5.65044266263386,-17.3514410751846,10.5));
#1466=CARTESIAN_POINT('',(-5.65044266263386,-17.3514410751846,13.5));
#1467=CARTESIAN_POINT('Origin',(-8.31147516216852,-15.9661952354795,10.5));
#1468=CARTESIAN_POINT('Origin',(-8.31147516216852,-15.9661952354795,13.5));
#1469=CARTESIAN_POINT('Origin',(9.67139309427053,-15.1810462512039,13.5));
#1470=CARTESIAN_POINT('Origin',(9.67139309427053,-15.1810462512039,13.5));
#1471=CARTESIAN_POINT('',(12.3324255938052,-16.566292090909,10.5));
#1472=CARTESIAN_POINT('',(12.3324255938052,-16.566292090909,13.5));
#1473=CARTESIAN_POINT('Origin',(9.67139309427053,-15.1810462512039,10.5));
#1474=CARTESIAN_POINT('Origin',(0.,21.5,9.));
#1475=CARTESIAN_POINT('',(-4.5,21.5,9.));
#1476=CARTESIAN_POINT('Origin',(0.,21.5,9.));
#1477=CARTESIAN_POINT('Origin',(-8.72818484154436E-11,-21.5,9.));
#1478=CARTESIAN_POINT('',(-4.50000000008728,-21.5,9.));
#1479=CARTESIAN_POINT('Origin',(-8.72819916938939E-11,-21.5,9.));
#1480=CARTESIAN_POINT('Origin',(-8.72819916938939E-11,-21.5,8.5));
#1481=CARTESIAN_POINT('',(-4.50000000008728,-21.5,9.5));
#1482=CARTESIAN_POINT('Origin',(-8.72819916938939E-11,-21.5,9.5));
#1483=CARTESIAN_POINT('',(-4.50000000008728,-21.5,8.5));
#1484=CARTESIAN_POINT('Origin',(-8.72818484154436E-11,-21.5,9.5));
#1485=CARTESIAN_POINT('',(4.99999999991272,-21.5,9.5));
#1486=CARTESIAN_POINT('Origin',(-8.72819916938939E-11,-21.5,9.5));
#1487=CARTESIAN_POINT('Origin',(0.,21.5,8.5));
#1488=CARTESIAN_POINT('',(-4.5,21.5,9.5));
#1489=CARTESIAN_POINT('Origin',(0.,21.5,9.5));
#1490=CARTESIAN_POINT('',(-4.5,21.5,8.5));
#1491=CARTESIAN_POINT('Origin',(0.,21.5,9.5));
#1492=CARTESIAN_POINT('',(5.,21.5,9.5));
#1493=CARTESIAN_POINT('Origin',(0.,21.5,9.5));
#1494=CARTESIAN_POINT('Origin',(36.6209295677972,-44.9767441861951,13.5));
#1495=CARTESIAN_POINT('',(13.57499975358,-16.6724137931585,8.5));
#1496=CARTESIAN_POINT('Origin',(36.6209295677972,-44.9767441861951,8.5));
#1497=CARTESIAN_POINT('',(13.57499975358,-16.6724137931585,13.5));
#1498=CARTESIAN_POINT('Origin',(36.6209295679797,44.9767441860466,13.5));
#1499=CARTESIAN_POINT('',(13.5749997536476,16.6724137931035,8.5));
#1500=CARTESIAN_POINT('',(13.5749997536476,16.6724137931035,13.5));
#1501=CARTESIAN_POINT('',(5.8930231488703,25.2778668805132,8.5));
#1502=CARTESIAN_POINT('Origin',(36.6209295679797,44.9767441860466,8.5));
#1503=CARTESIAN_POINT('',(5.8930231488703,25.2778668805132,13.5));
#1504=CARTESIAN_POINT('Origin',(0.,21.5,13.5));
#1505=CARTESIAN_POINT('Origin',(0.,21.5,8.5));
#1506=CARTESIAN_POINT('Origin',(0.,0.,13.5));
#1507=CARTESIAN_POINT('Origin',(0.,0.,8.5));
#1508=CARTESIAN_POINT('Origin',(-8.72819916938939E-11,-3.56706683309159E-10,
13.5));
#1509=CARTESIAN_POINT('Origin',(17.9828682563518,0.78514898391896,13.5));
#1510=CARTESIAN_POINT('',(10.9725076615286,14.580949395061,13.5));
#1511=CARTESIAN_POINT('Origin',(8.31147516199396,15.9661952347661,13.5));
#1512=CARTESIAN_POINT('Origin',(8.31147516199396,15.9661952347661,13.5));
#1513=CARTESIAN_POINT('',(-7.01036059491043,13.7958004107853,13.5));
#1514=CARTESIAN_POINT('Origin',(-9.67139309444509,15.1810462504904,13.5));
#1515=CARTESIAN_POINT('Origin',(-9.67139309444509,15.1810462504904,13.5));
#1516=CARTESIAN_POINT('',(5.,21.5,13.5));
#1517=CARTESIAN_POINT('Origin',(0.,21.5,13.5));
#1518=CARTESIAN_POINT('',(4.99999999991272,-21.5,13.5));
#1519=CARTESIAN_POINT('Origin',(-8.72819916938939E-11,-21.5,13.5));
#1520=CARTESIAN_POINT('',(9.75711916418793,-5.07923474558538,13.5));
#1521=CARTESIAN_POINT('Origin',(-7.72510944102578E-10,-7.31185945124224E-15,
13.5));
#1522=CARTESIAN_POINT('Origin',(-8.72819916938939E-11,-3.56706683309159E-10,
8.5));
#1523=CARTESIAN_POINT('',(11.1793115106735,-15.9660188937034,8.5));
#1524=CARTESIAN_POINT('Origin',(9.67139309427053,-15.1810462512039,8.5));
#1525=CARTESIAN_POINT('',(19.4907866727548,0.000176341419402462,8.5));
#1526=CARTESIAN_POINT('Origin',(17.9828682563518,0.78514898391896,8.5));
#1527=CARTESIAN_POINT('',(-16.4749498401234,-1.57012162713194,8.5));
#1528=CARTESIAN_POINT('Origin',(-17.9828682565263,-0.785148984632382,8.5));
#1529=CARTESIAN_POINT('',(9.81939357839693,15.1812225922666,8.5));
#1530=CARTESIAN_POINT('Origin',(8.31147516199396,15.9661952347661,8.5));
#1531=CARTESIAN_POINT('',(-8.16347467804212,14.3960736079909,8.5));
#1532=CARTESIAN_POINT('Origin',(-9.67139309444509,15.1810462504904,8.5));
#1533=CARTESIAN_POINT('',(-7.98309749937651,4.1557375191153,8.5));
#1534=CARTESIAN_POINT('Origin',(-7.72510944102578E-10,-7.31185945124224E-15,
8.5));
#1535=CARTESIAN_POINT('',(-6.80355674576555,-16.7511678779791,8.5));
#1536=CARTESIAN_POINT('Origin',(-8.31147516216852,-15.9661952354795,8.5));
#1537=CARTESIAN_POINT('Origin',(0.,21.5,13.5));
#1538=CARTESIAN_POINT('',(5.,21.5,13.5));
#1539=CARTESIAN_POINT('Origin',(-8.72819916938939E-11,-21.5,13.5));
#1540=CARTESIAN_POINT('',(4.99999999991272,-21.5,13.5));
#1541=CARTESIAN_POINT('Origin',(-8.31147516216852,-15.9661952354795,13.5));
#1542=CARTESIAN_POINT('',(-6.80355674576555,-16.7511678779791,10.5));
#1543=CARTESIAN_POINT('Origin',(-8.31147516216852,-15.9661952354795,10.5));
#1544=CARTESIAN_POINT('',(-6.80355674576555,-16.7511678779791,13.5));
#1545=CARTESIAN_POINT('Origin',(9.67139309427053,-15.1810462512039,10.5));
#1546=CARTESIAN_POINT('',(11.1793115106735,-15.9660188937034,10.5));
#1547=CARTESIAN_POINT('Origin',(9.67139309427053,-15.1810462512039,10.5));
#1548=CARTESIAN_POINT('Origin',(-9.67139309444509,15.1810462504904,13.5));
#1549=CARTESIAN_POINT('',(-7.01036059491043,13.7958004107854,10.5));
#1550=CARTESIAN_POINT('',(-7.01036059491043,13.7958004107853,13.5));
#1551=CARTESIAN_POINT('Origin',(-9.67139309444509,15.1810462504904,10.5));
#1552=CARTESIAN_POINT('Origin',(-9.67139309444509,15.1810462504904,10.5));
#1553=CARTESIAN_POINT('',(-8.16347467804212,14.3960736079909,10.5));
#1554=CARTESIAN_POINT('Origin',(-9.67139309444509,15.1810462504904,10.5));
#1555=CARTESIAN_POINT('Origin',(-8.31147516216852,-15.9661952354795,10.5));
#1556=CARTESIAN_POINT('Origin',(17.9828682563518,0.78514898391896,13.5));
#1557=CARTESIAN_POINT('',(20.6439007558864,-0.600096855786142,10.5));
#1558=CARTESIAN_POINT('',(20.6439007558864,-0.600096855786143,13.5));
#1559=CARTESIAN_POINT('Origin',(17.9828682563518,0.78514898391896,10.5));
#1560=CARTESIAN_POINT('Origin',(17.9828682563518,0.78514898391896,10.5));
#1561=CARTESIAN_POINT('',(19.4907866727548,0.000176341419402462,10.5));
#1562=CARTESIAN_POINT('Origin',(17.9828682563518,0.78514898391896,10.5));
#1563=CARTESIAN_POINT('Origin',(8.31147516199396,15.9661952347661,13.5));
#1564=CARTESIAN_POINT('',(10.9725076615286,14.580949395061,10.5));
#1565=CARTESIAN_POINT('',(10.9725076615286,14.580949395061,13.5));
#1566=CARTESIAN_POINT('Origin',(8.31147516199396,15.9661952347661,10.5));
#1567=CARTESIAN_POINT('Origin',(8.31147516199396,15.9661952347661,10.5));
#1568=CARTESIAN_POINT('',(9.81939357839693,15.1812225922666,10.5));
#1569=CARTESIAN_POINT('Origin',(8.31147516199396,15.9661952347661,10.5));
#1570=CARTESIAN_POINT('Origin',(-17.9828682565263,-0.785148984632382,10.5));
#1571=CARTESIAN_POINT('',(-16.4749498401234,-1.57012162713194,10.5));
#1572=CARTESIAN_POINT('Origin',(-17.9828682565263,-0.785148984632382,10.5));
#1573=CARTESIAN_POINT('Origin',(9.67139309427053,-15.1810462512039,13.5));
#1574=CARTESIAN_POINT('',(11.1793115106735,-15.9660188937034,13.5));
#1575=CARTESIAN_POINT('Origin',(17.9828682563518,0.78514898391896,13.5));
#1576=CARTESIAN_POINT('',(19.4907866727548,0.000176341419402259,13.5));
#1577=CARTESIAN_POINT('Origin',(-17.9828682565263,-0.785148984632382,13.5));
#1578=CARTESIAN_POINT('',(-16.4749498401234,-1.57012162713194,13.5));
#1579=CARTESIAN_POINT('Origin',(8.31147516199396,15.9661952347661,13.5));
#1580=CARTESIAN_POINT('',(9.81939357839693,15.1812225922666,13.5));
#1581=CARTESIAN_POINT('Origin',(-9.67139309444509,15.1810462504904,13.5));
#1582=CARTESIAN_POINT('',(-8.16347467804212,14.3960736079909,13.5));
#1583=CARTESIAN_POINT('Origin',(-7.72510944102578E-10,-7.31185945124224E-15,
11.5));
#1584=CARTESIAN_POINT('',(7.98309749783148,-4.15573751911531,11.5));
#1585=CARTESIAN_POINT('Origin',(9.75711916418793,-5.07923474558538,11.5));
#1586=CARTESIAN_POINT('',(-7.98309749937651,4.1557375191153,11.5));
#1587=CARTESIAN_POINT('Origin',(-7.72510944102578E-10,-7.31185945124224E-15,
11.5));
#1588=CARTESIAN_POINT('Origin',(-7.72510944102578E-10,-7.31185945124224E-15,
11.5));
#1589=CARTESIAN_POINT('Origin',(-7.72510944102578E-10,-7.31185945124224E-15,
8.5));
#1590=CARTESIAN_POINT('',(-7.98309749937651,4.1557375191153,8.5));
#1591=UNCERTAINTY_MEASURE_WITH_UNIT(LENGTH_MEASURE(0.01),#1595,
'DISTANCE_ACCURACY_VALUE',
'Maximum model space distance between geometric entities at asserted c
onnectivities');
#1592=UNCERTAINTY_MEASURE_WITH_UNIT(LENGTH_MEASURE(0.01),#1595,
'DISTANCE_ACCURACY_VALUE',
'Maximum model space distance between geometric entities at asserted c
onnectivities');
#1593=(
GEOMETRIC_REPRESENTATION_CONTEXT(3)
GLOBAL_UNCERTAINTY_ASSIGNED_CONTEXT((#1591))
GLOBAL_UNIT_ASSIGNED_CONTEXT((#1595,#1596,#1597))
REPRESENTATION_CONTEXT('','3D')
);
#1594=(
GEOMETRIC_REPRESENTATION_CONTEXT(3)
GLOBAL_UNCERTAINTY_ASSIGNED_CONTEXT((#1592))
GLOBAL_UNIT_ASSIGNED_CONTEXT((#1595,#1596,#1597))
REPRESENTATION_CONTEXT('','3D')
);
#1595=(
LENGTH_UNIT()
NAMED_UNIT(*)
SI_UNIT(.MILLI.,.METRE.)
);
#1596=(
NAMED_UNIT(*)
PLANE_ANGLE_UNIT()
SI_UNIT($,.RADIAN.)
);
#1597=(
NAMED_UNIT(*)
SI_UNIT($,.STERADIAN.)
SOLID_ANGLE_UNIT()
);
#1598=SHAPE_DEFINITION_REPRESENTATION(#1599,#1600);
#1599=PRODUCT_DEFINITION_SHAPE('',$,#1602);
#1600=SHAPE_REPRESENTATION('',(#833),#1593);
#1601=PRODUCT_DEFINITION_CONTEXT('part definition',#1606,'design');
#1602=PRODUCT_DEFINITION('Acuator Host-Join','Acuator Host-Join v15',#1603,
#1601);
#1603=PRODUCT_DEFINITION_FORMATION('',$,#1608);
#1604=PRODUCT_RELATED_PRODUCT_CATEGORY('Acuator Host-Join v15',
'Acuator Host-Join v15',(#1608));
#1605=APPLICATION_PROTOCOL_DEFINITION('international standard',
'automotive_design',2009,#1606);
#1606=APPLICATION_CONTEXT(
'Core Data for Automotive Mechanical Design Process');
#1607=PRODUCT_CONTEXT('part definition',#1606,'mechanical');
#1608=PRODUCT('Acuator Host-Join','Acuator Host-Join v15',$,(#1607));
#1609=PRESENTATION_STYLE_ASSIGNMENT((#1610));
#1610=SURFACE_STYLE_USAGE(.BOTH.,#1611);
#1611=SURFACE_SIDE_STYLE('',(#1612));
#1612=SURFACE_STYLE_FILL_AREA(#1613);
#1613=FILL_AREA_STYLE('Steel - Satin',(#1614));
#1614=FILL_AREA_STYLE_COLOUR('Steel - Satin',#1615);
#1615=COLOUR_RGB('Steel - Satin',0.627450980392157,0.627450980392157,0.627450980392157);
ENDSEC;
END-ISO-10303-21;
